<?xml version="1.0" encoding="UTF-8"?>
<svg version="1.1" xmlns="http://www.w3.org/2000/svg" width="512" height="512">
<path d="M0 0 C7.12858874 3.5792914 14.5994209 8.47032383 18.78515625 15.3984375 C19.62520123 19.3237386 19.39281949 22.38566544 17.28515625 25.8984375 C14.54113761 27.54484868 12.35211249 28.25729578 9.12890625 28.125 C4.79885468 26.78268401 1.73742872 23.5344242 -1.62890625 20.6015625 C-7.36179675 15.71734763 -12.72680821 14.78376448 -20.2109375 14.98046875 C-27.34920583 15.97369984 -32.53320551 20.11658923 -37.21484375 25.3984375 C-38.08689453 26.26662109 -38.08689453 26.26662109 -38.9765625 27.15234375 C-45.60892459 34.0192491 -49.85561329 41.99527322 -54.21484375 50.3984375 C-55.11009766 52.09033203 -55.11009766 52.09033203 -56.0234375 53.81640625 C-63.32082951 68.46174957 -68.35097356 84.52816677 -72.21484375 100.3984375 C-70.82700684 100.91845337 -70.82700684 100.91845337 -69.41113281 101.44897461 C-65.87987869 102.77428672 -62.35145987 104.1069983 -58.82418823 105.44287109 C-57.25459112 106.03699987 -55.68454409 106.62994144 -54.11404419 107.22167969 C-43.97537647 111.04809836 -33.94449796 114.9520674 -24.39355469 120.12084961 C-20.47031554 122.08021029 -18.08587295 122.73881227 -13.83203125 121.40234375 C-12.27932694 120.7667299 -10.74026418 120.09699898 -9.21484375 119.3984375 C-8.01952026 118.88482666 -8.01952026 118.88482666 -6.80004883 118.36083984 C-4.15545347 117.21146296 -1.52999281 116.02349958 1.09765625 114.8359375 C29.71979275 102.20674052 59.89946829 92.58372912 90.78515625 87.3984375 C92.0484375 87.17414063 93.31171875 86.94984375 94.61328125 86.71875 C117.56550545 83.213494 146.16493304 82.24698289 166.03515625 96.1484375 C175.80848014 104.12998535 181.34479086 112.37865201 182.72265625 125.0234375 C183.33021305 139.41786026 179.18797873 151.72686594 172.78515625 164.3984375 C172.21023438 165.53667969 171.6353125 166.67492187 171.04296875 167.84765625 C162.59924712 183.44860973 151.46045183 197.25953066 139.16699219 209.96923828 C137.24025264 211.96201802 135.34247697 213.97714776 133.47265625 216.0234375 C132.94027344 216.59320313 132.40789062 217.16296875 131.859375 217.75 C130.42117962 219.62904952 130.42117962 219.62904952 130.78515625 223.3984375 C131.97312621 225.17946262 131.97312621 225.17946262 133.6796875 226.796875 C134.30012939 227.43383301 134.92057129 228.07079102 135.55981445 228.72705078 C136.23230225 229.4023584 136.90479004 230.07766602 137.59765625 230.7734375 C144.04016798 237.44302821 149.97322197 244.27277623 155.51757812 251.70263672 C156.35796167 252.82692487 157.20557322 253.94584872 158.06054688 255.05908203 C172.35515387 273.67391011 184.69441732 296.0783555 182.52734375 320.27734375 C180.64235926 331.50156955 174.41293782 340.51211322 165.2578125 347.26171875 C162.81488145 348.77866977 160.36397546 350.1278973 157.78515625 351.3984375 C157.10582031 351.73746094 156.42648437 352.07648438 155.7265625 352.42578125 C150.61799538 354.65628239 145.29724135 355.43073612 139.78515625 354.3984375 C136.64593007 351.85715917 135.94386892 350.35071351 135.28515625 346.3984375 C135.95802015 342.3612541 136.65033555 341.10578265 139.78515625 338.3984375 C142.73703215 337.30016602 145.72591884 336.40277817 148.73828125 335.484375 C154.9179751 333.28186873 160.16632253 329.40622548 163.09765625 323.42578125 C166.79801033 312.51394167 163.92710365 301.58550143 159.16845703 291.49633789 C148.80273689 270.57163842 133.58006328 248.54741246 114.78515625 234.3984375 C113.97175781 235.11386719 113.15835937 235.82929688 112.3203125 236.56640625 C105.81716512 242.23920064 99.20935252 247.72574096 92.34765625 252.9609375 C91.71802979 253.44135498 91.08840332 253.92177246 90.43969727 254.41674805 C89.79186279 254.90699463 89.14402832 255.39724121 88.4765625 255.90234375 C87.78433594 256.44060791 87.09210938 256.97887207 86.37890625 257.53344727 C84.2904513 259.035114 82.22994315 260.33467149 80.01953125 261.63647461 C71.93080831 266.48041508 71.93080831 266.48041508 67.19262695 274.29858398 C66.20193706 278.76974482 65.93299783 283.27545267 65.66015625 287.8359375 C65.50717683 289.48887751 65.34609054 291.14108562 65.17724609 292.79248047 C64.84117862 296.1056134 64.53109367 299.4194259 64.24023438 302.73681641 C63.64121623 309.22734058 62.58648988 315.61246522 61.41015625 322.0234375 C61.20535645 323.14339111 61.00055664 324.26334473 60.78955078 325.41723633 C53.4117039 364.27672333 41.40465951 413.29020089 7.78515625 438.3984375 C-3.4872696 445.61349567 -15.29402213 447.36783137 -28.36328125 444.7734375 C-47.98502955 438.47648676 -60.37873617 419.87713122 -69.38232422 402.42871094 C-71.04907387 399.11116902 -72.63986267 395.76029992 -74.21484375 392.3984375 C-74.72660156 391.32722656 -75.23835937 390.25601562 -75.765625 389.15234375 C-80.62285719 378.45595911 -83.91739161 367.21306219 -87.39648438 356.01171875 C-88.29952394 353.12802676 -89.24141279 350.25913256 -90.21484375 347.3984375 C-90.86219482 347.56448486 -91.5095459 347.73053223 -92.17651367 347.90161133 C-125.03158439 356.25371157 -165.92781639 365.30843227 -197.58984375 348.2109375 C-207.75527707 341.80847417 -213.10014543 333.98832352 -216.21484375 322.3984375 C-218.1140563 312.64285502 -217.91883955 301.08616327 -212.34765625 292.53125 C-210.21484375 290.3984375 -210.21484375 290.3984375 -206.27734375 289.7734375 C-203.07003854 290.00767889 -202.00652952 290.53022813 -199.15234375 292.3359375 C-196.91394663 295.87404908 -197.11164085 297.5719705 -197.80078125 301.60546875 C-198.96747687 309.47516087 -199.89549379 318.75155713 -195.53125 325.76171875 C-188.03731506 335.07910374 -177.66857577 337.82197758 -166.21484375 339.3984375 C-143.3738422 341.20699744 -120.85305222 337.28024858 -98.87109375 331.3515625 C-95.21484375 330.3984375 -95.21484375 330.3984375 -93.21484375 330.3984375 C-93.40747803 329.61082031 -93.6001123 328.82320313 -93.79858398 328.01171875 C-95.66741657 320.17710895 -97.13075726 312.36885496 -98.27734375 304.3984375 C-98.53112793 302.66533325 -98.53112793 302.66533325 -98.79003906 300.8972168 C-100.28509136 290.4268096 -101.35629423 279.93826249 -102.21484375 269.3984375 C-102.91738281 269.15996094 -103.61992187 268.92148437 -104.34375 268.67578125 C-107.72180415 267.17289185 -110.24800575 265.24998069 -113.15234375 262.9609375 C-113.71373047 262.52064209 -114.27511719 262.08034668 -114.85351562 261.62670898 C-116.04209391 260.69364871 -117.2287445 259.75812825 -118.41357422 258.8203125 C-120.17453393 257.43025701 -121.94484081 256.0531646 -123.71875 254.6796875 C-148.53189702 235.42218849 -173.79632445 214.02827538 -192.21484375 188.3984375 C-193.0642241 187.27568957 -193.91583492 186.15462597 -194.76953125 185.03515625 C-207.94469174 167.52307869 -219.35508878 146.35489352 -216.8046875 123.765625 C-214.91064518 113.26333044 -210.93645856 104.77408451 -202.5390625 97.9921875 C-177.93299028 81.11945226 -144.79801425 84.01516047 -116.92773438 89.1809082 C-107.91143217 90.91775045 -99.04443167 92.8652426 -90.21484375 95.3984375 C-89.89845947 94.41262695 -89.5820752 93.42681641 -89.25610352 92.41113281 C-65.37946922 18.26978445 -65.37946922 18.26978445 -36.47265625 1.83984375 C-25.06981802 -3.99378218 -12.06808164 -4.68115409 0 0 Z M-194.58984375 114.9609375 C-198.74182695 119.98274959 -200.25233341 124.85649172 -200.21484375 131.3984375 C-198.0006441 152.32789605 -185.30527254 169.70849094 -172.21484375 185.3984375 C-171.79396484 185.90955078 -171.37308594 186.42066406 -170.93945312 186.94726562 C-160.69059119 199.3661298 -149.55728547 211.03716262 -137.21484375 221.3984375 C-136.22742188 222.26339844 -135.24 223.12835938 -134.22265625 224.01953125 C-127.65627859 229.76154199 -120.94309536 235.26862747 -114.02734375 240.5859375 C-113.29652588 241.15070801 -112.56570801 241.71547852 -111.81274414 242.29736328 C-111.12688232 242.81927246 -110.44102051 243.34118164 -109.734375 243.87890625 C-108.82328979 244.57342896 -108.82328979 244.57342896 -107.89379883 245.28198242 C-106.09477237 246.58400754 -106.09477237 246.58400754 -103.21484375 247.3984375 C-103.22008057 246.55063721 -103.22531738 245.70283691 -103.23071289 244.8293457 C-103.44813798 203.90664047 -101.45769886 163.90431491 -94.71777344 123.52685547 C-94.1225461 119.82431024 -93.63769195 116.12419996 -93.21484375 112.3984375 C-101.82043478 109.28021727 -110.55439787 107.42530123 -119.52734375 105.7109375 C-120.64802246 105.49671143 -121.76870117 105.28248535 -122.92333984 105.06176758 C-145.20591827 100.90016349 -177.72764997 96.17163586 -194.58984375 114.9609375 Z M87.78515625 105.3984375 C86.36904053 105.66454834 86.36904053 105.66454834 84.92431641 105.93603516 C57.05256203 111.35056777 29.77261664 121.06469927 3.78515625 132.3984375 C3.78515625 133.0584375 3.78515625 133.7184375 3.78515625 134.3984375 C4.86667969 134.94628906 5.94820312 135.49414062 7.0625 136.05859375 C26.33149642 145.9445008 44.99289807 157.04498764 62.78515625 169.3984375 C63.43822754 169.84719238 64.09129883 170.29594727 64.76416016 170.75830078 C79.82026089 181.11624517 94.30928117 192.17960263 108.0859375 204.19140625 C110.55634111 206.21134552 113.00478886 207.84366011 115.78515625 209.3984375 C123.96769301 201.42541093 131.77374242 193.44418491 138.78515625 184.3984375 C139.5946875 183.39425781 140.40421875 182.39007813 141.23828125 181.35546875 C153.38633957 166.16163692 166.73787341 146.8451876 165.78515625 126.5859375 C164.91473303 120.0956078 162.10790135 115.6584057 157.47265625 111.1484375 C137.16802272 97.92681566 110.5203606 101.0469509 87.78515625 105.3984375 Z M-77.21484375 117.3984375 C-80.5582576 135.68105783 -83.40364315 153.89044658 -85.21484375 172.3984375 C-85.33601562 173.63464844 -85.4571875 174.87085938 -85.58203125 176.14453125 C-87.03479399 193.77578814 -87.62681443 211.71169614 -87.21484375 229.3984375 C-87.19695801 230.2965918 -87.17907227 231.19474609 -87.16064453 232.12011719 C-86.47539425 263.38153531 -83.51740617 294.73664936 -77.21484375 325.3984375 C-14.00721887 306.33582047 45.52157191 269.67711937 95.78515625 227.3984375 C97.78361418 225.72991112 99.78438772 224.06419362 101.78515625 222.3984375 C97.04320978 210.2646333 76.93817994 199.82895265 66.78515625 192.3984375 C66.05780273 191.86573242 65.33044922 191.33302734 64.58105469 190.78417969 C38.50507008 171.79206912 10.53286078 155.95295926 -18.21484375 141.3984375 C-19.36388184 140.8118335 -19.36388184 140.8118335 -20.53613281 140.21337891 C-31.57144702 134.6217916 -42.96625072 129.99732205 -54.46484375 125.4609375 C-55.19266052 125.17340607 -55.92047729 124.88587463 -56.67034912 124.58963013 C-58.77189476 123.76201559 -60.87560642 122.94023219 -62.98046875 122.12109375 C-64.20540039 121.64422119 -65.43033203 121.16734863 -66.69238281 120.67602539 C-70.1790904 119.41140515 -73.63868685 118.37211239 -77.21484375 117.3984375 Z M43.5078125 285.890625 C42.1623938 286.6935498 42.1623938 286.6935498 40.78979492 287.51269531 C39.81888916 288.09374023 38.8479834 288.67478516 37.84765625 289.2734375 C28.60947287 294.76531941 19.31543832 300.12099171 9.875 305.25732422 C7.8802545 306.34651119 5.89498716 307.45147447 3.91015625 308.55859375 C-20.67491947 322.10830545 -46.85755002 331.94721457 -73.21484375 341.3984375 C-68.75471459 359.96801372 -62.97222901 377.62840327 -54.21484375 394.6484375 C-53.74103271 395.57624023 -53.26722168 396.50404297 -52.77905273 397.45996094 C-46.53031596 409.20059003 -36.23693796 423.81658954 -23.21484375 428.3984375 C-14.75773289 429.5137956 -8.28894022 428.15758878 -1.21484375 423.3984375 C34.36021969 395.76506576 42.42731323 336.07088325 48.42993164 294.41845703 C48.86783331 290.69554046 48.93483454 287.14039481 48.78515625 283.3984375 C46.85128782 283.3984375 45.1113176 284.92881193 43.5078125 285.890625 Z " fill="#000000" transform="translate(273.21484375,34.6015625)"/>
<path d="M0 0 C2.01409327 0.00631682 4.02227712 -0.04064237 6.03564453 -0.09130859 C13.2328985 -0.09848432 18.40920045 0.39801133 24.32128906 4.65722656 C30.98042274 11.85008722 30.74471238 18.50978161 30.68017578 27.95556641 C30.68287402 29.34845754 30.6867592 30.74134684 30.69177246 32.13423157 C30.69764622 35.04173868 30.68917031 37.9487518 30.67041016 40.85620117 C30.64755678 44.57885362 30.66079576 48.30035645 30.68470001 52.02296734 C30.69916176 54.89438021 30.69455162 57.76552079 30.68418884 60.63694191 C30.68152585 62.00964305 30.68477634 63.38236912 30.69410706 64.75504112 C30.70428379 66.67173147 30.68601758 68.58850893 30.66650391 70.50512695 C30.66173035 72.13891548 30.66173035 72.13891548 30.65686035 73.80570984 C30.03068323 77.28913045 28.89258082 78.46763644 26.14892578 80.63134766 C24.14892578 81.16259766 24.14892578 81.16259766 22.14892578 81.13134766 C21.15892578 81.14681641 21.15892578 81.14681641 20.14892578 81.16259766 C17.19279474 80.37737535 16.04908017 79.00629641 14.14892578 76.63134766 C13.69482422 73.60693359 13.69482422 73.60693359 13.75830078 70.11572266 C13.77119141 68.86533203 13.78408203 67.61494141 13.79736328 66.32666016 C13.83087891 65.02470703 13.86439453 63.72275391 13.89892578 62.38134766 C13.91697266 61.06392578 13.93501953 59.74650391 13.95361328 58.38916016 C14.00075696 55.13624609 14.07249962 51.88370549 14.14892578 48.63134766 C6.22892578 48.63134766 -1.69107422 48.63134766 -9.85107422 48.63134766 C-9.80466797 50.60619141 -9.75826172 52.58103516 -9.71044922 54.61572266 C-9.67293434 57.20424923 -9.63653388 59.79279212 -9.60107422 62.38134766 C-9.56755859 63.68330078 -9.53404297 64.98525391 -9.49951172 66.32666016 C-9.48662109 67.57705078 -9.47373047 68.82744141 -9.46044922 70.11572266 C-9.43950195 71.26782227 -9.41855469 72.41992188 -9.39697266 73.60693359 C-9.94588571 77.26281259 -10.96749222 78.39928628 -13.85107422 80.63134766 C-15.85107422 81.16259766 -15.85107422 81.16259766 -17.85107422 81.13134766 C-18.51107422 81.14166016 -19.17107422 81.15197266 -19.85107422 81.16259766 C-22.78934036 80.38212071 -23.94561439 78.97428815 -25.85107422 76.63134766 C-26.37246704 73.81916809 -26.37246704 73.81916809 -26.40039062 70.53686523 C-26.42898666 68.6889312 -26.42898666 68.6889312 -26.4581604 66.80366516 C-26.45763729 65.46106858 -26.45576194 64.11847195 -26.45263672 62.77587891 C-26.46041783 61.39067575 -26.46908865 60.00547734 -26.47860718 58.62028503 C-26.49352326 55.71585646 -26.49295913 52.81191397 -26.48242188 49.9074707 C-26.4708761 46.20613797 -26.5045831 42.50682131 -26.55111122 38.80582142 C-26.58076023 35.9427499 -26.58230556 33.08015307 -26.57609177 30.21695518 C-26.57760313 28.19580118 -26.60523225 26.17472035 -26.63345337 24.15376282 C-26.55248755 16.04445057 -25.44172864 10.68407949 -19.85107422 4.63134766 C-13.95679894 -0.41865477 -7.54015952 -0.04942566 0 0 Z M-9.85107422 20.63134766 C-9.85107422 24.59134766 -9.85107422 28.55134766 -9.85107422 32.63134766 C-1.93107422 32.63134766 5.98892578 32.63134766 14.14892578 32.63134766 C14.14892578 28.67134766 14.14892578 24.71134766 14.14892578 20.63134766 C10.13698378 16.61940566 9.59667803 16.12396148 4.30517578 16.08447266 C3.59361328 16.09994141 2.88205078 16.11541016 2.14892578 16.13134766 C1.08158203 16.10814453 1.08158203 16.10814453 -0.00732422 16.08447266 C-5.29882646 16.12396148 -5.83913222 16.61940566 -9.85107422 20.63134766 Z " fill="#000000" transform="translate(237.85107421875,215.36865234375)"/>
<path d="M0 0 C5.00746345 3.55670301 8.67917896 8.42936767 10.08984375 14.484375 C10.89378352 22.15121521 10.98205612 29.21407464 6.08984375 35.484375 C0.2868444 41.96853906 -5.81473915 44.93843745 -14.41015625 45.859375 C-22.2547164 45.01888641 -28.67520567 42.56235658 -33.91015625 36.484375 C-38.12400621 29.83699467 -40.03074643 23.200413 -38.484375 15.3125 C-36.38602415 7.84597551 -31.96105912 2.00685347 -25.28515625 -2.015625 C-16.92997262 -5.62648924 -7.72353152 -4.45636503 0 0 Z M-20.91015625 16.484375 C-22.08126074 19.3439756 -22.08126074 19.3439756 -21.91015625 22.484375 C-20.10341177 25.61143276 -18.82561355 27.10880277 -15.47265625 28.484375 C-12.14359071 28.484375 -10.54473162 27.46030652 -7.91015625 25.484375 C-6.48973804 22.64353859 -6.59563353 20.62960222 -6.91015625 17.484375 C-8.41015625 14.984375 -8.41015625 14.984375 -10.91015625 13.484375 C-15.22106762 12.85570042 -17.94007489 13.1842846 -20.91015625 16.484375 Z " fill="#000000" transform="translate(104.91015625,270.515625)"/>
<path d="M0 0 C3.33096138 1.98455173 5.94218342 4.38928105 8.5 7.3125 C9.056875 7.93125 9.61375 8.55 10.1875 9.1875 C13.93108929 15.24854933 14.55041564 22.55473506 13.03515625 29.41796875 C10.86793208 36.04787937 6.85927581 41.25643197 0.75 44.6875 C-6.5051324 47.87368932 -13.64909015 48.04937419 -21.109375 45.4453125 C-27.64144393 42.35005108 -32.30099994 37.60487459 -34.87109375 30.828125 C-36.86909363 22.83612548 -36.18973909 15.69039123 -32.125 8.5078125 C-24.8559791 -1.31235516 -11.28582354 -5.30971126 0 0 Z M-16.9375 16.9375 C-18.97161336 20.02935231 -19.10605429 21.67617425 -18.5 25.3125 C-16.56852577 27.95933505 -15.08460903 29.0726604 -12.0625 30.3125 C-9.3441812 30.52348318 -9.3441812 30.52348318 -6.75 28.75 C-4.02442428 25.79729297 -3.41817313 24.32201663 -3.5 20.3125 C-4.84115399 17.30270117 -4.84115399 17.30270117 -7.5 15.3125 C-11.49900698 14.66980245 -13.54129157 14.67336105 -16.9375 16.9375 Z " fill="#000000" transform="translate(319.5,72.6875)"/>
<path d="M0 0 C5.77795923 4.89988287 9.22566399 10.6667607 10.3125 18.15234375 C10.71756682 25.35493808 8.72929239 31.89782516 3.94140625 37.33984375 C-2.77366046 43.60195486 -8.13203303 45.43973438 -17.25 45.25390625 C-23.44401533 44.68201563 -28.58013276 42.41986724 -33 38 C-38.39552059 30.58689097 -40.05973707 24.19656886 -39 15 C-36.54315592 7.29895061 -32.19525851 1.79417789 -25.08984375 -2.02734375 C-16.50893391 -5.7292472 -7.99654412 -4.70540448 0 0 Z M-19.9375 15 C-22.33186879 17.89125758 -22.33186879 17.89125758 -22.0625 21.625 C-21.24290062 24.95198217 -21.24290062 24.95198217 -19.375 27 C-15.88418213 28.46981805 -13.60851044 27.98413921 -10 27 C-7.85217329 25.44202118 -7.85217329 25.44202118 -7 23 C-7.12743211 19.87791339 -7.46748462 17.81278664 -9.1875 15.1875 C-13.25695967 12.52130229 -15.89656583 12.24872567 -19.9375 15 Z " fill="#000000" transform="translate(384,361)"/>
<path d="M0 0 C0.66 -0.0103125 1.32 -0.020625 2 -0.03125 C4.97217385 0.75823368 6.09656286 2.10063373 8 4.5 C8.50793457 7.6875 8.50793457 7.6875 8.51757812 11.5 C8.5245874 12.19641602 8.53159668 12.89283203 8.53881836 13.61035156 C8.55639196 15.90730932 8.54477919 18.20303021 8.53125 20.5 C8.53394513 22.09896073 8.53782773 23.69791987 8.54284668 25.296875 C8.54874082 28.64599226 8.54018192 31.99468243 8.52148438 35.34375 C8.49869435 39.63478591 8.51181796 43.92482111 8.53577423 48.21582031 C8.5502348 51.51700366 8.54562515 54.81795011 8.53526306 58.11914062 C8.53259646 59.70117308 8.53586322 61.28322711 8.54518127 62.86523438 C8.55535179 65.07740163 8.5398419 67.287953 8.51757812 69.5 C8.51280457 71.3871875 8.51280457 71.3871875 8.50793457 73.3125 C7.91152758 77.05520109 6.9748465 78.23159929 4 80.5 C2 81.03125 2 81.03125 0 81 C-0.66 81.0103125 -1.32 81.020625 -2 81.03125 C-4.97217385 80.24176632 -6.09656286 78.89936627 -8 76.5 C-8.50793457 73.3125 -8.50793457 73.3125 -8.51757812 69.5 C-8.5245874 68.80358398 -8.53159668 68.10716797 -8.53881836 67.38964844 C-8.55639196 65.09269068 -8.54477919 62.79696979 -8.53125 60.5 C-8.53394513 58.90103927 -8.53782773 57.30208013 -8.54284668 55.703125 C-8.54874082 52.35400774 -8.54018192 49.00531757 -8.52148438 45.65625 C-8.49869435 41.36521409 -8.51181796 37.07517889 -8.53577423 32.78417969 C-8.5502348 29.48299634 -8.54562515 26.18204989 -8.53526306 22.88085938 C-8.53259646 21.29882692 -8.53586322 19.71677289 -8.54518127 18.13476562 C-8.55535179 15.92259837 -8.5398419 13.712047 -8.51757812 11.5 C-8.51439575 10.241875 -8.51121338 8.98375 -8.50793457 7.6875 C-7.72413955 2.76886132 -5.09820141 -0.0796594 0 0 Z " fill="#000000" transform="translate(292,215.5)"/>
</svg>
