<svg version="1.1" xmlns="http://www.w3.org/2000/svg" width="512px" height="512px" transform="rotate(0) scale(1, 1)">
<path d="M0 0 C6.71480944 5.56437006 11.26923543 13.22706881 12.3125 21.9375 C13.21059893 31.83291735 11.27385468 40.43478977 4.90625 48.19140625 C-0.25802528 53.84932549 -4.36953809 55.68507249 -11.6875 58.9375 C-12.0175 65.5375 -12.3475 72.1375 -12.6875 78.9375 C-9.34625 79.06125 -9.34625 79.06125 -5.9375 79.1875 C27.89760647 81.0850594 60.72096265 95.00052393 86.79760742 116.35864258 C89.59688846 118.64881043 92.04232898 120.30241449 95.3125 121.9375 C100.9225 116.3275 106.5325 110.7175 112.3125 104.9375 C111.1059375 102.33875 111.1059375 102.33875 109.875 99.6875 C104.80137766 88.75969803 104.25295938 75.29075516 108.3125 63.875 C113.467552 52.51078173 121.87283326 43.72498158 133.5625 39.0625 C145.92173054 35.35473084 157.67118574 36.38258275 169.4375 41.625 C178.13807638 46.34969824 183.9271094 53.18081974 188.3125 61.9375 C188.64121094 62.58332031 188.96992188 63.22914062 189.30859375 63.89453125 C193.92966922 74.39697551 192.77947774 86.29703013 189.3125 96.9375 C184.09305761 108.48019434 175.41873764 115.82500558 164.01171875 120.9765625 C152.5608166 125.09503823 140.20308866 123.93586063 129.3125 118.9375 C127.6625 118.2775 126.0125 117.6175 124.3125 116.9375 C118.7025 122.5475 113.0925 128.1575 107.3125 133.9375 C108.99320291 137.29890582 110.43977091 139.43481528 112.8125 142.25 C135.80441051 170.69832406 148.39737538 205.55013216 150.3125 241.9375 C160.2125 241.4425 160.2125 241.4425 170.3125 240.9375 C171.116875 239.1225 171.92125 237.3075 172.75 235.4375 C177.08327003 226.83184898 183.24434047 220.772808 192.4453125 217.5625 C201.93475107 215.49395753 211.89658662 215.81288722 220.3125 220.9375 C227.58809573 226.11099744 233.6984754 232.89257006 235.3125 241.9375 C236.06554095 253.12200988 235.74604684 262.56448109 228.5625 271.75 C222.19637569 278.56625431 214.08048945 282.07350262 204.86328125 282.89453125 C195.58197422 283.05087792 187.55268311 280.83968727 180.3125 274.9375 C175.73480352 270.11350816 171.3125 264.85921257 171.3125 257.9375 C164.3825 257.9375 157.4525 257.9375 150.3125 257.9375 C149.9721875 262.206875 149.9721875 262.206875 149.625 266.5625 C146.10595154 303.64927531 130.79581184 335.46890408 107.3125 363.9375 C108.70597376 367.08954981 110.33735079 369.19921773 112.7890625 371.609375 C113.459375 372.27324219 114.1296875 372.93710937 114.8203125 373.62109375 C115.51898438 374.30300781 116.21765625 374.98492187 116.9375 375.6875 C117.64390625 376.38488281 118.3503125 377.08226562 119.078125 377.80078125 C120.81848703 379.51762488 122.56334981 381.22961832 124.3125 382.9375 C124.97733398 382.57406494 125.64216797 382.21062988 126.32714844 381.83618164 C138.15679987 375.45272162 149.11565788 374.70277503 162.0625 377.89453125 C167.03543575 379.49041328 171.0907988 381.90175373 175.3125 384.9375 C175.95960938 385.38996094 176.60671875 385.84242188 177.2734375 386.30859375 C185.04661467 392.29971065 190.14131521 402.08606898 191.78125 411.6796875 C193.17704444 423.89288888 191.02205577 434.55775987 184.3125 444.9375 C179.27254836 451.19007158 173.62375121 455.65516011 166.3125 458.9375 C165.6628125 459.25589844 165.013125 459.57429688 164.34375 459.90234375 C154.26589788 464.10790896 140.96629885 463.16410078 130.95703125 459.26171875 C119.33145293 453.44034349 111.82299163 443.94062649 107.3125 431.9375 C103.65055487 419.078799 106.5195533 406.5233934 112.3125 394.9375 C106.7025 389.3275 101.0925 383.7175 95.3125 377.9375 C90.49624414 379.85148874 90.49624414 379.85148874 86.9375 382.9375 C78.39779482 390.63121569 68.38505624 396.54527577 58.3125 402 C57.61906494 402.3820459 56.92562988 402.7640918 56.21118164 403.15771484 C51.42023742 405.67889939 46.45595301 407.87204008 41 406.25 C38.83530109 404.56634529 38.09979084 403.58566011 37.3125 400.9375 C37.375 397.4375 37.375 397.4375 38.3125 393.9375 C41.9905845 390.43783005 46.1967376 388.42598409 50.75 386.3125 C58.95182261 382.35160142 66.12579562 377.50311003 73.3125 371.9375 C74.27929688 371.195 75.24609375 370.4525 76.2421875 369.6875 C107.87720936 344.59456481 126.71367189 307.91394035 132.5625 268.3125 C136.81871934 229.39301682 127.79157469 190.12878299 103.921875 158.70703125 C101.78125878 156.05371499 99.57796948 153.48462244 97.3125 150.9375 C96.60738281 150.1125 95.90226563 149.2875 95.17578125 148.4375 C74.53190933 124.71743173 46.69814746 107.94607588 16.3125 99.9375 C15.05663086 99.60516357 15.05663086 99.60516357 13.77539062 99.26611328 C-13.12902923 92.51932852 -41.62448767 94.48362295 -67.82910156 102.86767578 C-72.43255416 104.33684283 -76.83516013 105.58827857 -81.6875 105.9375 C-85.19699663 104.03016488 -86.39860949 102.78611588 -87.6875 99 C-87.6875 95.2141504 -87.0022153 93.9182199 -84.6875 90.9375 C-82.27714821 89.67124597 -80.17089055 88.74542141 -77.625 87.875 C-76.9225415 87.62459961 -76.22008301 87.37419922 -75.49633789 87.11621094 C-60.58090813 81.9937069 -44.45050659 78.9375 -28.6875 78.9375 C-29.0175 72.3375 -29.3475 65.7375 -29.6875 58.9375 C-31.5025 58.133125 -33.3175 57.32875 -35.1875 56.5 C-42.59334124 52.79270757 -48.13929536 47.80625442 -51.625 40.1875 C-55.08057109 29.61751784 -54.47232944 19.55712362 -49.50390625 9.5546875 C-45.18669305 2.33894873 -39.06456558 -2.12649023 -31.4375 -5.5 C-19.85621066 -7.2371934 -9.70637829 -6.83638604 0 0 Z M-32.6875 13.9375 C-36.80128919 19.2421229 -38.23775047 23.22444424 -37.6875 29.9375 C-35.49993471 36.3099728 -32.2511748 39.8586897 -26.4375 43.25 C-21.02361675 44.60347081 -16.30570503 43.7618686 -11.375 41.25 C-7.06317273 37.53982305 -4.6511347 34.13688516 -3.75 28.5 C-3.34118238 22.56715898 -5.25529285 18.59004671 -9.125 14.125 C-13.74374424 10.18216955 -17.16745905 9.48397179 -23.15234375 9.625 C-27.26916683 10.13246664 -29.36677017 11.41374533 -32.6875 13.9375 Z M128.3125 61.9375 C122.37789376 69.68545815 121.24495845 77.38581244 122.3125 86.9375 C124.50854545 94.31212704 128.88989144 99.76396375 135.3125 103.9375 C142.15324508 107.39491629 149.49771039 108.14840517 156.921875 106.28125 C164.79585664 103.51342615 170.05003082 99.03475758 173.6875 91.5 C176.5907245 84.10428587 177.08302469 77.47948387 174.3125 69.9375 C170.24216927 61.63182513 164.26336844 56.81541561 155.6875 53.5625 C145.41334657 51.659879 135.66699333 54.40362878 128.3125 61.9375 Z M189.5 239 C185.62214534 244.20740483 185.68700842 248.55924786 186.3125 254.9375 C187.59756009 258.96157388 189.83403874 261.51467377 193 264.3125 C198.57158234 267.04572907 203.09757033 267.6019789 209.0625 265.8125 C213.78103233 263.09026981 217.23987339 260.02319614 219.3125 254.9375 C219.99323835 249.6973978 219.96983258 245.2765108 217.625 240.5 C214.01769134 236.50271202 210.82382091 233.28528798 205.26171875 232.734375 C198.53923935 232.595049 194.01677484 233.73686351 189.5 239 Z M128.3125 400.9375 C122.42951602 408.36863766 121.39019017 415.67937723 122.3125 424.9375 C124.0053393 432.08391741 127.33706921 437.61362781 133.3125 441.9375 C140.24792097 445.98817048 147.38720992 447.12053538 155.3125 445.9375 C164.1915775 443.18891253 169.86731173 437.50185143 174.1875 429.4375 C176.81722329 421.25613864 176.97361729 414.36761771 173.15625 406.578125 C168.90095274 399.53324399 163.06328127 394.75139299 155.0625 392.5625 C144.77855129 390.84850855 135.87322385 393.74431133 128.3125 400.9375 Z " fill="#000000" transform="translate(276.6875,6.0625)"/>
<path d="M0 0 C8.12214922 6.53848692 14.3183737 16.11130416 15.8359375 26.50390625 C16.70653902 36.56177216 16.60396434 45.40289152 11.8359375 54.50390625 C11.1759375 56.15390625 10.5159375 57.80390625 9.8359375 59.50390625 C15.4459375 65.11390625 21.0559375 70.72390625 26.8359375 76.50390625 C29.73191019 75.0559199 31.68669838 73.96849146 34.11328125 72.0078125 C34.70947266 71.53150391 35.30566406 71.05519531 35.91992188 70.56445312 C36.53158203 70.07009766 37.14324219 69.57574219 37.7734375 69.06640625 C48.12307789 60.71425743 48.12307789 60.71425743 53.3984375 60.06640625 C56.8359375 60.50390625 56.8359375 60.50390625 59.2734375 62.06640625 C61.46615637 65.48704768 61.46601443 67.51341904 60.8359375 71.50390625 C57.069255 75.77901928 52.59090422 79.21567699 48.1484375 82.75390625 C37.97195337 90.96764245 28.80488089 99.05664885 20.8359375 109.50390625 C20.04445312 110.51839844 19.25296875 111.53289062 18.4375 112.578125 C-4.97467233 143.36578143 -14.97093453 182.54596351 -10.21630859 220.85058594 C-4.33709968 262.58442107 16.39335883 302.6091076 50.41015625 328.2421875 C75.59344709 346.5614289 104.57956758 357.50265763 135.8359375 358.50390625 C136.65835938 358.54386719 137.48078125 358.58382813 138.328125 358.625 C148.97661668 358.90696941 159.83410423 357.55119036 170.3840332 356.17041016 C171.18156006 356.06776855 171.97908691 355.96512695 172.80078125 355.859375 C173.508396 355.76164795 174.21601074 355.6639209 174.94506836 355.56323242 C177.94397113 355.46914161 179.60324409 356.60949972 181.8359375 358.50390625 C183.8359375 361.50390625 183.8359375 361.50390625 183.6484375 365.00390625 C182.59630359 369.5361754 182.59630359 369.5361754 179.8359375 371.50390625 C177.15306937 372.21330446 174.62528745 372.75643215 171.8984375 373.19140625 C170.76740601 373.38246948 170.76740601 373.38246948 169.61352539 373.57739258 C163.30427147 374.57549312 157.22594258 374.74656467 150.8359375 374.50390625 C151.1659375 381.43390625 151.4959375 388.36390625 151.8359375 395.50390625 C154.8059375 396.82390625 157.7759375 398.14390625 160.8359375 399.50390625 C168.26289046 404.4709767 173.75950905 411.54110465 175.5546875 420.37890625 C176.96809586 431.05799165 175.00478714 440.55339332 168.703125 449.39453125 C162.76325341 456.10484643 155.54670187 460.1305633 146.609375 460.71484375 C135.84408596 461.01451989 128.29114567 459.53169239 119.9140625 452.58984375 C112.95712263 445.60674997 109.90002887 437.29977258 109.5234375 427.62890625 C109.806897 416.75740086 114.00397744 409.22848942 121.6484375 401.75390625 C124.8359375 399.50390625 124.8359375 399.50390625 133.8359375 395.50390625 C134.1659375 388.57390625 134.4959375 381.64390625 134.8359375 374.50390625 C133.3096875 374.58640625 131.7834375 374.66890625 130.2109375 374.75390625 C106.96354429 374.64501916 82.81633535 366.67334698 62.62109375 355.49072266 C60.84003134 354.50616928 59.04334945 353.55655466 57.2421875 352.609375 C48.31603081 347.81647026 40.65782715 341.89143883 32.8359375 335.50390625 C31.5093753 334.49494119 30.17942476 333.49022251 28.8359375 332.50390625 C25.68388769 333.89738001 23.57421977 335.52875704 21.1640625 337.98046875 C20.50019531 338.65078125 19.83632812 339.32109375 19.15234375 340.01171875 C18.47042969 340.71039063 17.78851563 341.4090625 17.0859375 342.12890625 C16.03986328 343.18851562 16.03986328 343.18851562 14.97265625 344.26953125 C13.25581262 346.00989328 11.54381918 347.75475606 9.8359375 349.50390625 C10.18527344 350.2515625 10.53460938 350.99921875 10.89453125 351.76953125 C11.34957031 352.754375 11.80460937 353.73921875 12.2734375 354.75390625 C12.72589844 355.7284375 13.17835937 356.70296875 13.64453125 357.70703125 C17.47601903 366.70160583 17.3686686 379.3421627 14.2109375 388.56640625 C9.38528642 399.56283762 1.93433618 408.49266777 -9.046875 413.71484375 C-20.36710988 417.93382428 -33.19265752 418.25127213 -44.5234375 413.82421875 C-48.9599887 411.60594315 -52.55542724 408.89036807 -56.1640625 405.50390625 C-56.875625 404.84519531 -57.5871875 404.18648438 -58.3203125 403.5078125 C-66.16267114 395.53377246 -69.76040897 385.50262473 -70.2265625 374.40234375 C-69.97847119 362.89710911 -65.94100047 351.61275476 -57.984375 343.09375 C-48.51835548 334.82621793 -37.13165609 330.09156765 -24.5 330.28515625 C-16.21306236 331.06119054 -9.61054698 333.78066401 -2.1640625 337.50390625 C3.4459375 331.89390625 9.0559375 326.28390625 14.8359375 320.50390625 C12.92194876 315.68765039 12.92194876 315.68765039 9.8359375 312.12890625 C-14.43643022 285.14285767 -26.02923748 248.08432333 -28.1640625 212.50390625 C-35.0940625 212.50390625 -42.0240625 212.50390625 -49.1640625 212.50390625 C-49.6590625 215.47390625 -49.6590625 215.47390625 -50.1640625 218.50390625 C-54.46717659 226.90522423 -60.59812571 232.01699832 -69.1015625 235.81640625 C-80.29260601 238.32868132 -90.25971229 237.64331988 -100.1640625 231.50390625 C-107.01347209 226.66902889 -110.96721688 220.54280594 -113.1640625 212.50390625 C-114.19197167 201.07738111 -113.35558453 191.36985104 -105.9140625 182.19140625 C-98.85628631 174.72645067 -91.1727076 171.50437024 -80.9140625 171.12890625 C-70.38777085 171.3580008 -62.94616563 174.63923766 -55.3359375 181.91015625 C-51.83976418 186.08544237 -50.09082397 190.43010106 -48.1640625 195.50390625 C-38.2640625 195.99890625 -38.2640625 195.99890625 -28.1640625 196.50390625 C-27.9578125 193.55453125 -27.7515625 190.60515625 -27.5390625 187.56640625 C-24.35990931 151.83635122 -9.82682199 116.79996107 14.8359375 90.50390625 C13.44246374 87.35185644 11.81108671 85.24218852 9.359375 82.83203125 C8.6890625 82.16816406 8.01875 81.50429687 7.328125 80.8203125 C6.62945312 80.13839844 5.93078125 79.45648438 5.2109375 78.75390625 C4.50453125 78.05652344 3.798125 77.35914063 3.0703125 76.640625 C1.32995047 74.92378137 -0.41491231 73.21178793 -2.1640625 71.50390625 C-2.98390625 71.85324219 -3.80375 72.20257813 -4.6484375 72.5625 C-5.72609375 73.01753906 -6.80375 73.47257812 -7.9140625 73.94140625 C-8.98140625 74.39386719 -10.04875 74.84632812 -11.1484375 75.3125 C-21.30873493 79.32660714 -33.38259327 78.66671957 -43.484375 74.765625 C-55.58227923 69.06938146 -63.24943083 60.94700236 -68.1640625 48.50390625 C-71.62660081 37.27448154 -70.57713084 25.89291743 -65.6640625 15.28515625 C-60.30568859 5.34983796 -52.13213444 -2.69273393 -41.2890625 -6.43359375 C-26.57158426 -10.65857325 -12.63659905 -8.73613256 0 0 Z M-47.1640625 16.50390625 C-52.38612327 22.54771263 -54.52085159 29.97367543 -54.0078125 37.92578125 C-52.58020199 45.88745526 -48.34417058 52.2706274 -42.03515625 57.25 C-35.56775801 61.58410195 -28.83826337 62.46866293 -21.1640625 61.50390625 C-13.69424126 59.47982566 -6.85908404 54.8842652 -2.77734375 48.25 C0.46635756 41.15938275 1.26491782 33.49387497 -0.89453125 25.953125 C-4.24455164 17.81736119 -8.8773518 13.23825695 -16.76171875 9.484375 C-27.83526168 4.96492902 -38.77790711 8.44733775 -47.1640625 16.50390625 Z M-93.9765625 193.56640625 C-97.85441716 198.77381108 -97.78955408 203.12565411 -97.1640625 209.50390625 C-95.87900241 213.52798013 -93.64252376 216.08108002 -90.4765625 218.87890625 C-84.90498016 221.61213532 -80.37899217 222.16838515 -74.4140625 220.37890625 C-69.69553017 217.65667606 -66.23668911 214.58960239 -64.1640625 209.50390625 C-63.48332415 204.26380405 -63.50672992 199.84291705 -65.8515625 195.06640625 C-69.45887116 191.06911827 -72.65274159 187.85169423 -78.21484375 187.30078125 C-84.93732315 187.16145525 -89.45978766 188.30326976 -93.9765625 193.56640625 Z M-46.1640625 354.50390625 C-51.47532889 360.34971123 -53.81118951 366.63825353 -54.1640625 374.50390625 C-53.62181806 382.69047468 -49.78714967 389.34399414 -43.7890625 394.81640625 C-37.19749106 399.9854377 -31.7805673 401.13972269 -23.44921875 400.91015625 C-15.33922854 399.90725615 -9.55562772 395.8609019 -4.5703125 389.5234375 C0.295281 382.53590462 0.75101058 375.80995421 -0.1640625 367.50390625 C-2.41204213 359.64174159 -6.77056365 353.72196402 -13.83203125 349.58203125 C-25.20455075 344.32438404 -36.89396261 346.24412318 -46.1640625 354.50390625 Z M129.9609375 416.37890625 C126.44888878 421.54368378 125.19409566 425.19246146 125.8359375 431.50390625 C127.75311848 437.32080762 130.3308117 440.57564784 135.8359375 443.50390625 C140.43725287 445.03767804 145.18373242 445.40865457 149.83984375 443.8203125 C155.16697568 441.04744253 157.96980554 437.10230212 159.8359375 431.50390625 C160.42395731 425.50610422 159.13433032 421.41936828 155.8359375 416.50390625 C152.20188625 412.96303581 148.57779778 410.87442791 143.5234375 410.19140625 C138.19610725 410.81086326 133.56034166 412.24704585 129.9609375 416.37890625 Z " fill="#000000" transform="translate(113.1640625,51.49609375)"/>
<path d="M0 0 C0.96034149 0.00149048 1.92068298 0.00298096 2.91012573 0.0045166 C17.92787283 0.0463049 32.55581358 0.69053527 47.375 3.3125 C48.63691162 3.52132812 48.63691162 3.52132812 49.92431641 3.734375 C68.76722152 6.9122532 93.60068524 12.98901817 105.375 29.3125 C109.68338449 36.60085888 109.94276764 43.28152004 109.87670898 51.59985352 C109.88481346 53.5576474 109.88481346 53.5576474 109.89308167 55.55499268 C109.90695867 59.11084042 109.89592248 62.6662001 109.87937045 66.22202039 C109.86544346 69.95652404 109.87198858 73.69100155 109.87550354 77.42552185 C109.87819932 83.69383541 109.86478359 89.96195679 109.84155273 96.23022461 C109.81493527 103.46203145 109.81320191 110.69351739 109.8249411 117.92535645 C109.83574469 124.90339839 109.82951237 131.88132502 109.81538582 138.85935783 C109.80964951 141.81969895 109.80969001 144.77995503 109.81445122 147.74029732 C109.82013851 151.87855424 109.80084234 156.01633758 109.77905273 160.15454102 C109.78580521 161.98371315 109.78580521 161.98371315 109.79269409 163.84983826 C109.70946557 173.3780022 108.16296131 180.26717489 101.50390625 187.37109375 C79.26981214 207.64695572 41.06741577 211.74876012 12.375 212.3125 C11.51970703 212.33296387 10.66441406 212.35342773 9.78320312 212.37451172 C-25.27118442 213.10632347 -71.456422 212.17899809 -99.875 188.25 C-104.96047256 183.31010394 -108.3830379 177.9552012 -108.75922108 170.73710346 C-108.76349456 169.75694358 -108.76776804 168.7767837 -108.77217102 167.766922 C-108.77932632 166.63851898 -108.78648163 165.51011597 -108.79385376 164.34751892 C-108.79654266 163.11368973 -108.79923157 161.87986053 -108.80200195 160.60864258 C-108.80857315 159.30578308 -108.81514435 158.00292358 -108.82191467 156.6605835 C-108.84291485 152.34274519 -108.85331423 148.02490669 -108.86328125 143.70703125 C-108.86733051 142.21764292 -108.87144749 140.72825477 -108.87563133 139.23886681 C-108.89467523 132.23949869 -108.90890715 125.24014107 -108.9172433 118.24075204 C-108.92700885 110.17545592 -108.95331368 102.11043474 -108.99374419 94.04523546 C-109.02396056 87.80217603 -109.03871745 81.55919516 -109.04202431 75.31606406 C-109.04436878 71.59167146 -109.0532497 67.86757285 -109.07848549 64.14325905 C-109.10621966 59.98310837 -109.10191827 55.82356749 -109.0949707 51.66333008 C-109.10778076 50.43962204 -109.12059082 49.215914 -109.13378906 47.9551239 C-109.08092614 39.25731372 -107.64001934 31.59664817 -101.25 25.25 C-75.66164491 1.67316094 -32.88213388 -0.1269429 0 0 Z M-44.625 19.3125 C-45.96111328 19.56990967 -45.96111328 19.56990967 -47.32421875 19.83251953 C-62.45548645 22.81769029 -80.93428069 26.96355149 -91.32421875 39.3359375 C-92.84833097 41.25749161 -92.84833097 41.25749161 -92.625 43.75 C-89.58295639 51.54523675 -80.5234582 55.58972538 -73.3125 58.8125 C-29.99121341 76.09753029 31.0236298 76.84711613 74.11328125 58.7890625 C85.10732728 53.8134782 85.10732728 53.8134782 93.375 45.3125 C93.52004253 42.12156429 93.02962846 40.15003936 91.046875 37.61328125 C72.39337191 19.56804457 37.25867905 16.23884153 12.58203125 16.109375 C11.23108368 16.09885353 11.23108368 16.09885353 9.85284424 16.08811951 C6.96434465 16.07072284 4.07605005 16.06426787 1.1875 16.0625 C-0.29256027 16.06148788 -0.29256027 16.06148788 -1.80252075 16.06045532 C-16.27343874 16.07619369 -30.39663646 16.43254885 -44.625 19.3125 Z M-92.625 67.3125 C-92.74167875 70.54136009 -92.81240546 73.76967445 -92.875 77 C-92.90851563 77.91201172 -92.94203125 78.82402344 -92.9765625 79.76367188 C-93.03794409 83.98365601 -93.0601241 86.57063302 -90.890625 90.26953125 C-64.04161988 114.47992725 -15.02927173 113.52100717 18.39697266 112.19238281 C42.26492715 110.84517129 72.89550455 107.11204132 91.375 90.3125 C93.51104308 87.10843538 93.61708908 86.31649253 93.5703125 82.64453125 C93.56386719 81.75185547 93.55742187 80.85917969 93.55078125 79.93945312 C93.53402344 79.01068359 93.51726562 78.08191406 93.5 77.125 C93.49097656 76.18462891 93.48195313 75.24425781 93.47265625 74.27539062 C93.44909056 71.95417032 93.41619116 69.63346356 93.375 67.3125 C90.51614593 68.42855265 87.70877743 69.61034951 84.90625 70.86328125 C37.47921121 91.8282693 -28.14177665 91.74777007 -76.57128906 74.12109375 C-80.68684884 72.50070217 -84.59194272 70.53675293 -88.47265625 68.4140625 C-90.51875321 67.16063503 -90.51875321 67.16063503 -92.625 67.3125 Z M-92.625 109.3125 C-92.74167875 112.54136009 -92.81240546 115.76967445 -92.875 119 C-92.90851563 119.91201172 -92.94203125 120.82402344 -92.9765625 121.76367188 C-93.03794409 125.98365601 -93.0601241 128.57063302 -90.890625 132.26953125 C-64.04161988 156.47992725 -15.02927173 155.52100717 18.39697266 154.19238281 C42.26492715 152.84517129 72.89550455 149.11204132 91.375 132.3125 C93.51104308 129.10843538 93.61708908 128.31649253 93.5703125 124.64453125 C93.56386719 123.75185547 93.55742187 122.85917969 93.55078125 121.93945312 C93.53402344 121.01068359 93.51726562 120.08191406 93.5 119.125 C93.49097656 118.18462891 93.48195313 117.24425781 93.47265625 116.27539062 C93.44909056 113.95417032 93.41619116 111.63346356 93.375 109.3125 C90.70685523 110.35120581 88.09201337 111.44325669 85.4921875 112.64453125 C38.70490347 134.00884528 -27.59297938 133.95257837 -75.625 116.3125 C-79.6647724 114.72934595 -83.64889575 113.04785944 -87.625 111.3125 C-89.28928138 110.63990077 -90.95523917 109.9713786 -92.625 109.3125 Z M-92.625 151.3125 C-92.74167875 154.54136009 -92.81240546 157.76967445 -92.875 161 C-92.90851563 161.91201172 -92.94203125 162.82402344 -92.9765625 163.76367188 C-93.03794409 167.98365601 -93.0601241 170.57063302 -90.890625 174.26953125 C-64.04161988 198.47992725 -15.02927173 197.52100717 18.39697266 196.19238281 C42.26492715 194.84517129 72.89550455 191.11204132 91.375 174.3125 C93.51104308 171.10843538 93.61708908 170.31649253 93.5703125 166.64453125 C93.56386719 165.75185547 93.55742187 164.85917969 93.55078125 163.93945312 C93.53402344 163.01068359 93.51726562 162.08191406 93.5 161.125 C93.49097656 160.18462891 93.48195313 159.24425781 93.47265625 158.27539062 C93.44909056 155.95417032 93.41619116 153.63346356 93.375 151.3125 C90.70685523 152.35120581 88.09201337 153.44325669 85.4921875 154.64453125 C38.70490347 176.00884528 -27.59297938 175.95257837 -75.625 158.3125 C-79.6647724 156.72934595 -83.64889575 155.04785944 -87.625 153.3125 C-89.28928138 152.63990077 -90.95523917 151.9713786 -92.625 151.3125 Z " fill="#000000" transform="translate(255.625,149.6875)"/>
</svg>