<?xml version="1.0" encoding="UTF-8"?>
<svg version="1.1" xmlns="http://www.w3.org/2000/svg" width="512" height="512">
<path d="M0 0 C2.73848034 -0.0008957 5.47694813 -0.00658476 8.21542358 -0.01159668 C13.92559695 -0.01882124 19.63556163 -0.00942157 25.34570312 0.00976562 C31.90221592 0.03154547 38.45823113 0.02445418 45.014732 0.00246 C50.69602004 -0.01581877 56.37716022 -0.01819269 62.05846822 -0.00778532 C65.42909303 -0.00162076 68.7993019 -0.00214019 72.16994095 -0.01393127 C102.85262335 -0.09775624 127.91939793 6.62509014 150.4609375 28.53125 C153.4284104 31.69331128 156.00032207 34.96335762 158.4609375 38.53125 C159.47414063 39.99111328 159.47414063 39.99111328 160.5078125 41.48046875 C174.32914009 62.60215922 178.88617502 88.1592327 173.87158203 112.88793945 C170.47924199 127.88495667 163.3938134 141.83500961 153.4609375 153.53125 C152.91824219 154.20671875 152.37554687 154.8821875 151.81640625 155.578125 C138.69138636 171.43880477 117.71313697 182.47275457 97.4609375 185.53125 C95.74819485 185.61681922 94.03442504 185.68311416 92.3203125 185.734375 C82.26702791 185.85323024 82.26702791 185.85323024 73.3125 189.76171875 C71.19501163 192.30064898 69.35468976 194.85560375 67.6328125 197.67626953 C65.44402605 201.14093608 62.88278723 204.33823523 60.3984375 207.59375 C59.38278862 208.95343763 58.36844293 210.31409978 57.35546875 211.67578125 C44.09876592 229.39080039 44.09876592 229.39080039 35.6484375 231.46875 C30.76852397 231.80273648 26.71147 230.98711322 22.4609375 228.53125 C16.4625339 223.18778475 11.81050177 216.48924151 7.078125 210.0390625 C5.02982501 207.26357488 2.91550813 204.54584795 0.78125 201.8359375 C0.14082764 201.02189453 -0.49959473 200.20785156 -1.15942383 199.36914062 C-2.44207781 197.74256447 -3.72831065 196.11880333 -5.01831055 194.49804688 C-5.60394775 193.75361328 -6.18958496 193.00917969 -6.79296875 192.2421875 C-7.32220947 191.57493652 -7.8514502 190.90768555 -8.39672852 190.22021484 C-9.5390625 188.53125 -9.5390625 188.53125 -9.5390625 186.53125 C-10.0753125 186.55445313 -10.6115625 186.57765625 -11.1640625 186.6015625 C-35.68575798 187.1662068 -60.02238026 179.87578298 -78.5390625 163.53125 C-79.5703125 162.7475 -80.6015625 161.96375 -81.6640625 161.15625 C-100.0974846 144.32573417 -107.83753145 120.25684351 -109.8203125 96.10546875 C-110.60452639 70.38978815 -101.1933239 47.07473673 -84.296875 28 C-61.51816726 3.8022908 -31.60254374 -0.11074492 0 0 Z M-2.5390625 55.53125 C-4.35063859 58.99325983 -5.66865022 62.61386395 -7.015625 66.27734375 C-7.42334641 67.3486705 -7.83106781 68.41999725 -8.25114441 69.52378845 C-9.57020918 73.00007097 -10.86764728 76.48396439 -12.1640625 79.96875 C-13.05956759 82.34697796 -13.95629794 84.72474491 -14.85424805 87.10205078 C-16.61984839 91.78060561 -18.37779404 96.46193791 -20.13134766 101.14501953 C-22.15011616 106.52121633 -24.22090434 111.87434536 -26.33203125 117.21484375 C-26.86080569 118.56246709 -27.38930439 119.91019867 -27.91748047 121.25805664 C-28.84561139 123.61914966 -29.782853 125.97669013 -30.73095703 128.32983398 C-31.12782715 129.35278564 -31.52469727 130.3757373 -31.93359375 131.4296875 C-32.27237549 132.28224121 -32.61115723 133.13479492 -32.96020508 134.01318359 C-33.68097917 137.14859647 -33.29343602 139.42417576 -32.5390625 142.53125 C-30.93879181 144.85164251 -29.81131239 145.43094741 -27.1640625 146.40625 C-23.51082254 146.58021381 -22.30886282 145.94594772 -19.5390625 143.53125 C-17.86658134 140.61055681 -16.78124546 137.69681303 -15.5390625 134.53125 C-14.2190625 131.23125 -12.8990625 127.93125 -11.5390625 124.53125 C-0.6490625 124.20125 10.2409375 123.87125 21.4609375 123.53125 C22.4509375 126.50125 23.4409375 129.47125 24.4609375 132.53125 C25.10661054 134.33058883 25.76889183 136.12423241 26.4609375 137.90625 C26.7703125 138.71835938 27.0796875 139.53046875 27.3984375 140.3671875 C28.97320068 143.57460956 30.47965666 145.16972548 33.8359375 146.40625 C37.36819668 146.57445282 38.76242755 145.79216374 41.4609375 143.53125 C42.90363665 140.31322709 43.61188851 138.31876768 42.94160461 134.8218689 C42.58100449 133.90273712 42.22040436 132.98360535 41.84887695 132.03662109 C41.44702682 130.98399078 41.0451767 129.93136047 40.63114929 128.84683228 C39.95328117 127.15534561 39.95328117 127.15534561 39.26171875 125.4296875 C38.57436394 123.64985977 38.57436394 123.64985977 37.87312317 121.83407593 C36.903214 119.32484106 35.92745198 116.81885178 34.94195557 114.3157959 C33.04735598 109.4929081 31.22826822 104.641902 29.40206909 99.79278564 C27.62397014 95.0868585 25.81792223 90.39191727 24.0090332 85.69775391 C23.08762966 83.2994263 22.17177479 80.89896089 21.26098633 78.49658203 C19.91715419 74.9536441 18.55624807 71.41770119 17.19140625 67.8828125 C16.78923386 66.81213531 16.38706146 65.74145813 15.97270203 64.63833618 C13.85619788 59.21530791 12.12044706 55.13491248 7.4609375 51.53125 C2.83611565 50.49066508 0.67880205 52.29751472 -2.5390625 55.53125 Z M63.4609375 55.53125 C62.26585143 59.11650821 62.3055366 62.38826847 62.29980469 66.12036133 C62.29483978 66.8914473 62.28987488 67.66253326 62.28475952 68.45698547 C62.27014943 71.00909314 62.26333757 73.56113863 62.2578125 76.11328125 C62.25205977 77.88823956 62.24630205 79.66319785 62.24053955 81.43815613 C62.23003262 85.16132903 62.22418805 88.88448037 62.22070312 92.60766602 C62.21522129 97.37249728 62.19119866 102.13704237 62.16273117 106.90178394 C62.14408301 110.56927822 62.13889802 114.23670389 62.13736725 117.90424156 C62.13434474 119.66047415 62.12632976 121.41670564 62.11318207 123.17289162 C62.09607705 125.6334658 62.09801257 128.09334513 62.10449219 130.55395508 C62.0952774 131.27572937 62.08606262 131.99750366 62.0765686 132.7411499 C62.11483927 137.39373506 62.95615072 140.60335599 65.4609375 144.53125 C68.25792454 146.26926735 68.25792454 146.26926735 71.4609375 146.53125 C75.02540471 144.99204825 76.28941523 143.78853341 78.4609375 140.53125 C78.67075328 137.8403249 78.76500031 135.25140008 78.76733398 132.55908203 C78.7756575 131.74737549 78.78398102 130.93566895 78.79255676 130.09936523 C78.81667779 127.41254905 78.82543137 124.72597552 78.83203125 122.0390625 C78.84099594 120.17202684 78.85011776 118.30499192 78.85939026 116.43795776 C78.87588849 112.52226006 78.88358189 108.60664795 78.88647461 104.69091797 C78.89185947 99.67466469 78.92954003 94.65921631 78.97521877 89.64319038 C79.00496921 85.78613349 79.01219772 81.92927089 79.01320076 78.07210922 C79.01740703 76.22292265 79.02985767 74.37373571 79.05071831 72.52466202 C79.07759177 69.93657598 79.07282018 67.3503616 79.06030273 64.76220703 C79.07513702 63.99943451 79.08997131 63.23666199 79.10525513 62.45077515 C79.05028942 58.45752662 78.60513978 56.71167034 76.07972717 53.55197144 C73.66066205 51.39136072 73.66066205 51.39136072 70.9609375 50.96875 C67.62496426 51.71934398 65.89455688 53.16523116 63.4609375 55.53125 Z " fill="#2C89FF" transform="translate(233.5390625,31.46875)"/>
<path d="M0 0 C0.95473556 -0.0060911 1.90947111 -0.01218221 2.89313805 -0.01845789 C6.10060113 -0.03514135 9.30766954 -0.03030439 12.51516724 -0.0255127 C14.81141575 -0.03284993 17.10766058 -0.04143514 19.40390015 -0.05117798 C25.6477012 -0.07343954 31.89137046 -0.07632231 38.13520575 -0.07443047 C43.34410089 -0.07431097 48.5529679 -0.08286647 53.76185524 -0.09120798 C66.75211559 -0.1115604 79.74229012 -0.11258601 92.73255958 -0.10540086 C104.01243397 -0.09982601 115.29208119 -0.12064778 126.5719025 -0.15376133 C138.1547082 -0.18750032 149.73739508 -0.20219175 161.32025063 -0.1980443 C167.8228716 -0.195974 174.3252664 -0.20149962 180.82784653 -0.22593689 C186.94285534 -0.2481574 193.05739068 -0.24636483 199.17240143 -0.22600937 C201.41779318 -0.22259099 203.66321651 -0.22772383 205.90856552 -0.24199295 C208.97215146 -0.26011969 212.03411996 -0.24748433 215.09765625 -0.22705078 C215.98793262 -0.23956863 216.878209 -0.25208648 217.79546344 -0.26498365 C222.02358244 -0.20445159 224.83141303 0.07482242 228.21194649 2.74575043 C231.92259799 6.73470618 231.80525023 9.67814386 231.82971191 14.94087219 C231.83628529 15.94292089 231.83628529 15.94292089 231.84299147 16.965213 C231.85636803 19.20829753 231.8625557 21.45134279 231.86868286 23.69445801 C231.87658464 25.30091021 231.88485364 26.90736064 231.89346313 28.5138092 C231.91967127 33.79300239 231.93498809 39.07220348 231.94924927 44.35144043 C231.95460917 46.1687133 231.95998667 47.98598613 231.96538162 49.8032589 C231.98700725 57.36175378 232.0057446 64.92024654 232.01700401 72.47876453 C232.03324841 83.312426 232.06644159 94.14572912 232.12340486 104.9792555 C232.16209142 112.59633193 232.18163509 120.21331246 232.18692458 127.83048457 C232.19057938 132.38035034 232.20261442 136.92983381 232.23502731 141.47959328 C232.26508604 145.76017471 232.27142784 150.04014206 232.25964355 154.3208065 C232.25942264 155.89055545 232.26774237 157.46033272 232.28529739 159.02998352 C232.30799355 161.17639208 232.29969577 163.32057445 232.28381348 165.46699524 C232.2887787 167.26694301 232.2887787 167.26694301 232.29384422 169.10325336 C231.46180837 173.53402332 229.81766469 175.20089636 226.67581177 178.39440918 C223.26093135 180.10184939 219.35008178 179.54623224 215.59213257 179.54830933 C214.16259251 179.55488271 214.16259251 179.55488271 212.70417285 179.56158888 C209.49061566 179.57501061 206.27708591 179.5811633 203.06350708 179.58728027 C200.76755651 179.59517855 198.47160718 179.60344733 196.17565918 179.61206055 C188.61843049 179.6383113 181.06119617 179.65359073 173.50393677 179.66784668 C170.90565741 179.67320501 168.30737809 179.67858251 165.70909882 179.68397903 C154.90373311 179.70561178 144.09836975 179.72450121 133.29298782 179.73560143 C130.4883041 179.73853117 127.68362041 179.74149283 124.87893677 179.74450684 C124.18183778 179.74525289 123.48473879 179.74599894 122.76651558 179.7467676 C111.47359739 179.75942157 100.18083664 179.7926446 88.88799205 179.83430867 C77.29622855 179.87672529 65.70455401 179.89988847 54.11271358 179.90552199 C47.60333127 179.90918109 41.09421577 179.92126212 34.58490753 179.95362473 C28.4617508 179.9836306 22.33902337 179.99004366 16.21580887 179.97824097 C13.96718117 179.97801961 11.71853398 179.98637565 9.46997452 180.00389481 C6.40193776 180.02649941 3.33546916 180.01833114 0.26742554 180.00241089 C-0.62421508 180.01629298 -1.51585569 180.03017506 -2.43451571 180.04447782 C-6.70665194 179.98978749 -9.47178852 179.7154828 -12.86116409 176.98140907 C-16.54304985 173.11419644 -16.45160601 171.2201106 -16.46463013 165.96147156 C-16.46760125 165.29358795 -16.47057237 164.62570434 -16.47363353 163.93758184 C-16.48233777 161.68904756 -16.48383023 159.44056641 -16.48532104 157.1920166 C-16.48994802 155.58409002 -16.49497252 153.97616455 -16.50036621 152.36824036 C-16.51350434 147.99213 -16.51993799 143.61603499 -16.52437687 139.23990798 C-16.52730549 136.5071026 -16.53140991 133.77430144 -16.53588104 131.04149818 C-16.54956007 122.49478175 -16.55922458 113.94807492 -16.56308293 105.40134829 C-16.56756399 95.52885954 -16.58511236 85.65650922 -16.61408353 75.78406256 C-16.63568808 68.15767735 -16.64578657 60.53133112 -16.64712405 52.90491563 C-16.64817302 48.34790978 -16.65410016 43.79103398 -16.67194366 39.23406029 C-16.68840304 34.94703678 -16.69059029 30.66024137 -16.68180466 26.37319756 C-16.68103312 24.79982137 -16.68539239 23.22643303 -16.69526291 21.65308762 C-16.70795119 19.50455184 -16.70212334 17.35682775 -16.69168091 15.20829773 C-16.69314747 14.00611194 -16.69461403 12.80392614 -16.69612503 11.56531048 C-16.18433713 7.20212584 -14.60659094 4.82314248 -11.71945 1.60655975 C-7.92166211 -0.31535577 -4.19726722 -0.02499361 0 0 Z M27.05081177 36.08190918 C20.26340135 44.11568036 17.87271985 53.04344675 18.67581177 63.39440918 C20.44276963 73.33729073 25.73608247 80.48702433 33.42581177 86.85144043 C41.41910304 92.33295094 50.18715332 93.49504722 59.67581177 92.39440918 C68.43068341 90.62468278 74.93853805 86.18485377 80.67581177 79.39440918 C85.90490415 70.92370464 88.66711351 63.34931264 87.67581177 53.39440918 C85.22686807 43.30476113 80.1156205 35.47107147 71.67581177 29.39440918 C56.39738121 20.63003816 39.20715706 23.10314729 27.05081177 36.08190918 Z M134.67581177 37.39440918 C128.66961694 45.56677263 126.91563211 54.27689927 128.01174927 64.26940918 C130.12323142 74.20579579 135.57062309 81.98641581 143.69924927 87.85534668 C152.0167448 93.05002801 161.48235644 94.45431479 171.01565552 92.27331543 C181.22711847 88.89948406 189.26890081 81.66655022 194.11331177 72.08190918 C197.29607692 63.97646727 197.79203183 54.57448686 194.67581177 46.39440918 C190.48880719 37.35557159 184.12677305 30.20624461 175.05081177 25.89440918 C159.29147167 20.39582323 145.42784023 25.53471171 134.67581177 37.39440918 Z M60.73831177 118.39440918 C56.86469993 124.02875367 57.38741424 129.46469298 57.30081177 136.08190918 C57.26342896 137.14603027 57.22604614 138.21015137 57.18753052 139.30651855 C57.11184974 146.11358384 57.77173157 151.36135457 62.67581177 156.39440918 C66.82238907 159.48117141 70.36989283 159.83026694 75.38430786 159.79846191 C76.14432602 159.80532516 76.90434418 159.81218842 77.68739319 159.81925964 C80.19153708 159.83751098 82.69505334 159.83369212 85.19924927 159.82800293 C86.94653527 159.83256609 88.69381947 159.83787207 90.44110107 159.84388733 C94.10111791 159.85281557 97.76091653 159.85039927 101.42092896 159.8404541 C106.10056767 159.82897469 110.77945065 159.8491613 115.4589901 159.87837124 C119.0673701 159.89676087 122.67557001 159.89643513 126.28398514 159.89073372 C128.00868412 159.89058079 129.73339553 159.89660171 131.45804977 159.90902519 C133.87535031 159.9239832 136.29126792 159.91322363 138.70852661 159.89611816 C139.4142128 159.90578613 140.11989899 159.9154541 140.8469696 159.92541504 C146.28070499 159.84531476 149.29646149 158.38914343 153.67581177 155.39440918 C158.46954834 149.43525853 158.2536201 143.76825058 158.11331177 136.33190918 C158.12040161 135.26907715 158.12749146 134.20624512 158.13479614 133.11120605 C158.08919227 127.49491383 157.91824735 123.19540679 154.67581177 118.39440918 C149.31664097 113.18008084 143.81620958 112.14685451 136.51223755 112.11975098 C135.82195465 112.11464005 135.13167175 112.10952911 134.42047119 112.10426331 C132.15393233 112.09044064 129.8877001 112.09131864 127.62112427 112.09362793 C126.0346058 112.08973667 124.44808837 112.08540112 122.86157227 112.0806427 C119.54131692 112.07319602 116.22116794 112.07346025 112.90090942 112.07873535 C108.66206717 112.08452473 104.42366261 112.06760453 100.18489265 112.04439068 C96.90933723 112.02960317 93.63388597 112.02878849 90.35830307 112.03190041 C88.7963156 112.03138961 87.23432193 112.02619752 85.6723671 112.01608849 C71.9424081 111.51688692 71.9424081 111.51688692 60.73831177 118.39440918 Z " fill="#2A8CFF" transform="translate(148.32418823242188,300.6055908203125)"/>
<path d="M0 0 C41.64053809 0 41.64053809 0 49.59732056 7.29203796 C56.43367042 15.61626777 57.88693826 24.31015584 57.7265625 34.76171875 C57.72755951 36.03296097 57.72855652 37.30420319 57.72958374 38.6139679 C57.7249303 41.28339457 57.70890438 43.94955417 57.67236328 46.6184082 C57.62685024 50.01433401 57.62594231 53.4084818 57.63939857 56.80462933 C57.64773621 60.08212357 57.62370759 63.35930993 57.6015625 66.63671875 C57.60429672 68.44640388 57.60429672 68.44640388 57.60708618 70.29264832 C57.448557 79.78752481 55.35521076 87.32850474 48.83203125 94.4296875 C35.37800691 105.96170836 16.3197106 102 0 102 C0 68.34 0 34.68 0 0 Z " fill="#4E5FFF" transform="translate(396,340)"/>
<path d="M0 0 C0 33.66 0 67.32 0 102 C-39.78414097 102 -39.78414097 102 -49 94 C-54.50127499 88.08642388 -57.21043856 82.27073922 -57.32226562 74.09326172 C-57.34148071 72.95122284 -57.3606958 71.80918396 -57.38049316 70.63253784 C-57.38899292 69.41059723 -57.39749268 68.18865662 -57.40625 66.9296875 C-57.41765015 65.65707062 -57.42905029 64.38445374 -57.4407959 63.07327271 C-57.45966569 60.38171121 -57.47347362 57.69059383 -57.48046875 54.99902344 C-57.4913911 51.58285609 -57.53936733 48.16830222 -57.59641266 44.75263786 C-57.64308446 41.45761412 -57.64659281 38.16249512 -57.65625 34.8671875 C-57.6809436 33.65739227 -57.70563721 32.44759705 -57.7310791 31.20114136 C-57.68261717 21.8275795 -55.51242438 13.48039988 -48.68225098 6.69869995 C-34.52986106 -5.12840568 -19.50291083 0 0 0 Z " fill="#06B8FF" transform="translate(116,340)"/>
<path d="M0 0 C4.41204599 3.71012958 7.51487977 7.47992031 8.3203125 13.32421875 C8.59609768 19.32714287 7.69624303 24.16479836 4 29 C-1.06611483 33.62858673 -5.74652811 35.37036283 -12.5859375 35.28125 C-17.84736165 34.66826855 -21.72637747 32.30713892 -25.375 28.5625 C-29.04451873 22.77595123 -29.81799243 17.79244347 -29 11 C-27.3860605 5.43335838 -24.54460343 2.10376821 -19.78125 -1.08984375 C-13.12567481 -4.49060914 -6.40846953 -3.44158549 0 0 Z " fill="#367DFF" transform="translate(321,343)"/>
<path d="M0 0 C4.41204599 3.71012958 7.51487977 7.47992031 8.3203125 13.32421875 C8.59609768 19.32714287 7.69624303 24.16479836 4 29 C-1.06611483 33.62858673 -5.74652811 35.37036283 -12.5859375 35.28125 C-17.84736165 34.66826855 -21.72637747 32.30713892 -25.375 28.5625 C-29.04451873 22.77595123 -29.81799243 17.79244347 -29 11 C-27.3860605 5.43335838 -24.54460343 2.10376821 -19.78125 -1.08984375 C-13.12567481 -4.49060914 -6.40846953 -3.44158549 0 0 Z " fill="#1E9AFF" transform="translate(212,343)"/>
<path d="M0 0 C23.1 0 46.2 0 70 0 C70 5.28 70 10.56 70 16 C46.9 16 23.8 16 0 16 C0 10.72 0 5.44 0 0 Z " fill="#2A8BFF" transform="translate(221,429)"/>
<path d="M0 0 C2.37583495 2.37583495 3.00438878 4.29762668 4.1640625 7.4453125 C4.56367188 8.52167969 4.96328125 9.59804687 5.375 10.70703125 C5.99375 12.39892578 5.99375 12.39892578 6.625 14.125 C7.25535156 15.82849609 7.25535156 15.82849609 7.8984375 17.56640625 C8.93720246 20.37579329 9.96923567 23.18766768 11 26 C4.07 26 -2.86 26 -10 26 C-8.906875 22.82375 -7.81375 19.6475 -6.6875 16.375 C-6.18029419 14.8907251 -6.18029419 14.8907251 -5.6628418 13.37646484 C-4.04952426 8.72954673 -2.33781328 4.33034952 0 0 Z " fill="#2691FF" transform="translate(238,113)"/>
</svg>
