<?xml version="1.0" encoding="UTF-8"?>
<svg version="1.1" xmlns="http://www.w3.org/2000/svg" width="512" height="512">
<path d="M0 0 C0.51546387 0.45375 1.03092773 0.9075 1.56201172 1.375 C43.80118956 38.62696518 68.38575452 92.04327743 72 148 C74.65190006 204.54761141 55.82139141 259.73893123 18 302 C17.50854492 302.55316895 17.01708984 303.10633789 16.51074219 303.67626953 C-18.44168214 342.86569192 -66.17665265 366.2492109 -118 373 C-118.99386719 373.13277344 -119.98773438 373.26554687 -121.01171875 373.40234375 C-175.11400644 379.16798901 -232.14792398 362.3981372 -274.47265625 328.2421875 C-277.71051275 325.56399583 -280.86365623 322.79580375 -284 320 C-284.7731958 319.319375 -284.7731958 319.319375 -285.56201172 318.625 C-327.85705744 281.32376331 -352.27589558 227.99087542 -356 172 C-358.5087678 125.23686691 -346.07580975 75.95228037 -318 38 C-317.24460937 36.97390625 -316.48921875 35.9478125 -315.7109375 34.890625 C-304.28130518 19.61359836 -291.92344777 5.93032689 -277 -6 C-275.84757812 -6.97066406 -275.84757812 -6.97066406 -274.671875 -7.9609375 C-243.97286268 -33.54344776 -205.34775042 -48.07171389 -166 -53 C-165.01 -53.13148437 -164.02 -53.26296875 -163 -53.3984375 C-103.99467978 -59.74493997 -44.04133457 -39.25938529 0 0 Z M-85.98828125 85.37890625 C-89.5542374 90.02503552 -93.07841384 94.70029679 -96.5703125 99.40234375 C-100.27509612 104.38422879 -104.04250537 109.31738181 -107.8125 114.25 C-113.12144113 121.20117528 -118.39102232 128.17973234 -123.625 135.1875 C-128.97639681 142.34886623 -134.41849037 149.43172095 -139.92651367 156.47314453 C-144.33363598 162.11621952 -148.65192325 167.82070774 -152.92749023 173.56396484 C-156.16591876 177.91029138 -159.47654748 182.18774189 -162.890625 186.3984375 C-164.18980616 187.94930601 -164.18980616 187.94930601 -164 190 C-164.99 190 -165.98 190 -167 190 C-167.25523437 189.44183594 -167.51046875 188.88367188 -167.7734375 188.30859375 C-169.17420874 185.67211031 -170.81636552 183.44026078 -172.625 181.0625 C-173.42164063 180.01191406 -174.21828125 178.96132813 -175.0390625 177.87890625 C-176.02580373 176.58575591 -177.01280977 175.29280761 -178 174 C-179.96578443 171.42010326 -181.93110573 168.83985509 -183.89599609 166.25927734 C-185.30010281 164.41787398 -186.70668591 162.57835632 -188.11572266 160.74072266 C-191.05197094 156.90623015 -193.97904776 153.07732716 -196.75 149.12109375 C-202.37728185 141.07757611 -202.37728185 141.07757611 -211 137 C-219.035471 135.67752534 -225.24318697 138.54990455 -231.875 142.875 C-235.85602624 146.85602624 -237.54941964 151.27092312 -238.06469727 156.87597656 C-237.84453581 164.10391882 -234.05212946 169.9663749 -229.6875 175.4375 C-228.90560303 176.44840698 -228.90560303 176.44840698 -228.10791016 177.47973633 C-226.41626416 179.66196467 -224.70810703 181.83064207 -223 184 C-221.81503429 185.52497659 -220.631454 187.05103065 -219.44921875 188.578125 C-217.07370541 191.64404727 -214.69216367 194.70510318 -212.3046875 197.76171875 C-209.51999377 201.32876368 -206.754755 204.90978651 -204 208.5 C-202.79477286 210.06719305 -201.58952733 211.63437203 -200.38378906 213.20117188 C-199.36948469 214.51969597 -198.3559176 215.83878733 -197.34277344 217.15820312 C-193.26270194 222.46608423 -189.15038739 227.74692186 -185 233 C-184.21109375 234.00417969 -183.4221875 235.00835937 -182.609375 236.04296875 C-178.69029588 240.77209376 -175.24214689 244.09517504 -169 245 C-162.40901041 245.41661036 -157.47519292 243.88610012 -152.19140625 239.953125 C-147.87434066 236.10547296 -144.45569236 231.61120456 -141 227 C-140.44505859 226.26346191 -139.89011719 225.52692383 -139.31835938 224.76806641 C-136.75676518 221.36556549 -134.20053261 217.95917857 -131.65429688 214.54516602 C-127.53300937 209.02072244 -123.34495591 203.56134277 -119.06518555 198.15917969 C-113.79583346 191.50007621 -108.66421945 184.73608916 -103.51513672 177.98388672 C-101.35092264 175.15011237 -99.17591107 172.32480514 -97 169.5 C-93.15615406 164.50799228 -89.3255423 159.50604608 -85.5 154.5 C-81.6744577 149.49395392 -77.84384594 144.49200772 -74 139.5 C-72.78560655 137.92109041 -71.57121623 136.34217841 -70.35693359 134.76318359 C-69.37876264 133.49215973 -68.39982754 132.22172381 -67.42041016 130.95166016 C-64.07388706 126.61040857 -60.74176132 122.25886774 -57.43310547 117.88867188 C-56.20400504 116.26885571 -54.96436339 114.65704755 -53.72265625 113.046875 C-49.24758664 107.02965667 -45.81264994 101.0659457 -46.09765625 93.359375 C-47.0879898 86.93662929 -49.35575404 82.70570466 -54.68359375 78.75 C-65.96899271 71.99283804 -78.15720328 75.78803547 -85.98828125 85.37890625 Z " fill="#01BC7C" transform="translate(398,96)"/>
</svg>
