<svg version="1.1" xmlns="http://www.w3.org/2000/svg" width="512px" height="512px" transform="rotate(0) scale(1, 1)">
<path d="M0 0 C0.83222076 -0.00067474 1.66444153 -0.00134949 2.5218811 -0.00204468 C47.95286739 0.05552215 107.50542961 2.33542876 142.48828125 35.01171875 C150.08207553 42.74039392 152.7682298 50.48602699 152.6875 61.25 C151.22289917 71.12887618 145.69552827 79.27664771 138.04296875 85.5078125 C84.66301892 124.9895001 -0.92795764 121.5642989 -63.3125 112.25 C-71.39352599 110.92150766 -79.36844911 109.23485515 -87.3125 107.25 C-88.0864209 107.05825195 -88.8603418 106.86650391 -89.65771484 106.66894531 C-105.96230417 102.51868621 -121.81759551 96.43776507 -135.3125 86.25 C-136.2096875 85.62544922 -136.2096875 85.62544922 -137.125 84.98828125 C-143.69190823 80.11440405 -149.15003715 71.91231902 -150.796875 63.890625 C-151.95735928 53.44626645 -149.67748696 45.67894717 -143.3125 37.25 C-116.70725041 7.2558688 -64.76867004 3.05626027 -27.3359375 0.7109375 C-18.22531151 0.17515932 -9.12517427 0.0067864 0 0 Z " fill="#00a6ff" transform="translate(220.3125,325.75)"/>
<path d="M0 0 C7.30587991 6.90970779 10.96280788 14.22013279 11.4375 24.3125 C10.93583706 35.21530794 6.21325708 43.40267597 -1.71875 50.7265625 C-47.99688045 87.94421561 -127.80713972 87.35578363 -183.42578125 81.62744141 C-190.0867671 80.87984414 -196.70005452 79.90998289 -203.3125 78.8125 C-205.07424561 78.52366943 -205.07424561 78.52366943 -206.87158203 78.22900391 C-220.70199263 75.88244097 -234.12380027 72.60521823 -247.3125 67.8125 C-248.43374268 67.40644531 -248.43374268 67.40644531 -249.57763672 66.9921875 C-264.79717302 61.36821898 -281.85412651 53.15202067 -289.3828125 37.96484375 C-292.86932988 29.89311654 -293.46454012 22.75848834 -290.875 14.375 C-285.04541373 -0.30159923 -270.3811608 -9.05176453 -256.60498047 -15.20996094 C-188.47292148 -44.2622255 -59.88830453 -49.38782914 0 0 Z " fill="#00a6ff" transform="translate(501.3125,126.1875)"/>
<path d="M0 0 C1.95030121 0.00081573 1.95030121 0.00081573 3.94000244 0.00164795 C24.70859908 0.04151457 44.95718182 0.87732154 65.4375 4.375 C66.71592773 4.58930664 67.99435547 4.80361328 69.31152344 5.02441406 C96.56090331 9.75057513 130.69610503 17.19151942 148.03125 41.02734375 C152.08615919 47.79678937 153.55266098 55.56887313 152.4375 63.375 C151.18624326 67.72076265 150.01800404 71.28495547 146.20629883 73.91381836 C143.32077091 75.43660159 140.97311894 76.07869688 137.7734375 76.6640625 C136.66452148 76.87853027 135.55560547 77.09299805 134.41308594 77.31396484 C133.22489258 77.54035645 132.03669922 77.76674805 130.8125 78 C105.70876104 83.10134711 77.77136438 90.78677214 58.2265625 108.36328125 C52.20508692 113.76917847 46.58656504 114.67968779 38.60864258 115.21875 C37.07263276 115.32929158 35.53849434 115.46745574 34.0065918 115.625 C23.97802758 116.61696255 13.94293388 116.61767465 3.875 116.625 C2.91195953 116.62600708 1.94891907 116.62701416 0.95669556 116.62805176 C-45.56429895 116.59540848 -105.39223514 114.14602216 -141.328125 80.78515625 C-148.67697013 72.85816771 -151.22990977 65.04773023 -150.96484375 54.375 C-150.36863244 45.49760454 -145.2292328 38.05319155 -138.81640625 32.17578125 C-134.62808373 28.82947851 -130.21223533 26.03379175 -125.5625 23.375 C-124.25925781 22.62089844 -124.25925781 22.62089844 -122.9296875 21.8515625 C-100.37420978 9.70630526 -73.73566561 5.19914942 -48.5625 2.375 C-47.58792343 2.25372742 -47.58792343 2.25372742 -46.59365845 2.13000488 C-31.07145507 0.20522621 -15.62769918 -0.02460742 0 0 Z " fill="#00a6ff" transform="translate(150.5625,-0.375)"/>
<path d="M0 0 C2.5954555 1.07658971 5.14052931 2.23041373 7.6862793 3.41967773 C9.56731475 4.25701458 11.45013824 5.09034606 13.3347168 5.91967773 C14.24576172 6.32186523 15.15680664 6.72405273 16.09545898 7.13842773 C84.29265837 36.64049931 185.23686078 32.36056108 253.6237793 6.23217773 C257.30752274 4.68970937 260.96121369 3.08528953 264.54150391 1.31469727 C268.7282429 -0.68569225 272.00856633 -1.14639221 276.6237793 -0.76782227 C280.33028642 0.9169537 282.55776946 2.73674372 284.6237793 6.23217773 C286.13956397 16.66641641 284.77112063 25.45026155 278.6237793 34.23217773 C256.93943864 61.0534796 212.70356988 67.73311817 180.6237793 71.23217773 C179.57359619 71.35394882 179.57359619 71.35394882 178.50219727 71.47817993 C163.73498829 73.17131285 149.10500345 73.59425553 134.2487793 73.54467773 C133.11136292 73.54285492 131.97394653 73.5410321 130.80206299 73.53915405 C87.49457819 73.42264427 33.3585384 70.85768742 -2.3762207 43.23217773 C-3.63885742 42.25958008 -3.63885742 42.25958008 -4.92700195 41.26733398 C-12.05716644 35.37415385 -16.66253957 28.42374017 -18.3762207 19.23217773 C-19.24545871 7.60611941 -19.24545871 7.60611941 -15.3762207 2.23217773 C-10.76101066 -1.59185344 -5.5485774 -1.79289797 0 0 Z " fill="#00a6ff" transform="translate(227.376220703125,205.767822265625)"/>
<path d="M0 0 C2.5986958 1.08227369 5.15324693 2.23603443 7.70800781 3.41821289 C9.59816605 4.25555055 11.49010409 5.08888199 13.38378906 5.91821289 C14.75978271 6.52149414 14.75978271 6.52149414 16.16357422 7.13696289 C84.43379498 36.48359396 186.34559027 33.18732198 254.70800781 6.23071289 C258.70670537 4.46279439 262.60746743 2.54191505 266.48144531 0.51586914 C270.15282918 -0.94646172 272.78905679 -1.09821585 276.70800781 -0.76928711 C279.89260428 0.75063393 282.44380747 2.51367248 284.70800781 5.23071289 C287.24364508 12.8376247 285.85978388 21.00414063 282.70800781 28.23071289 C278.47895051 35.96048986 272.86924096 41.2167597 265.70800781 46.23071289 C264.99515625 46.74118164 264.28230469 47.25165039 263.54785156 47.77758789 C227.53588327 71.40448772 175.64257213 73.88335979 134.14550781 73.66821289 C132.88929626 73.66517151 131.63308472 73.66213013 130.33880615 73.65899658 C87.17598415 73.50519276 26.38464492 71.76676518 -6.34667969 39.32055664 C-6.98863281 38.6309082 -7.63058594 37.94125977 -8.29199219 37.23071289 C-8.89269531 36.61325195 -9.49339844 35.99579102 -10.11230469 35.35961914 C-16.96972584 27.92246432 -18.48102769 20.22438959 -18.29199219 10.23071289 C-17.53491267 5.98959756 -15.79106719 3.67307482 -12.54199219 0.79321289 C-8.14739269 -1.31957533 -4.69256435 -1.57501814 0 0 Z " fill="#00a6ff" transform="translate(87.2919921875,438.769287109375)"/>
<path d="M0 0 C2.41396461 0.93480566 4.72150582 1.91005865 7.0625 3 C41.8149538 19.06289536 81.44442377 25.10692696 119.52734375 25.140625 C122.05534775 25.15892583 124.58334284 25.17849353 127.11132812 25.19921875 C131.04385913 25.22832121 134.97580094 25.25000471 138.90844727 25.25048828 C142.74026119 25.25381471 146.57075837 25.28827413 150.40234375 25.328125 C151.57739975 25.3210553 152.75245575 25.3139856 153.96311951 25.30670166 C163.03935934 25.44229892 163.03935934 25.44229892 166.70532227 28.36181641 C170.75639973 33.01932711 171.25438335 37.89675223 172 43.875 C172.51643782 47.80819047 173.06277549 51.57056275 174.1875 55.375 C175.13505956 59.60257342 175.53136755 62.8966118 174 67 C172.09949217 69.91074455 170.08019232 71.42199378 167 73 C157.03450667 74.74749045 146.41582832 74.20032444 136.3125 74.1875 C135.50319031 74.18722809 134.69388062 74.18695618 133.86004639 74.18667603 C119.49771439 74.16461597 105.28844476 73.52349678 91 72 C90.04593262 71.90348145 89.09186523 71.80696289 88.10888672 71.70751953 C55.52751501 68.32323582 12.52297793 61.55147805 -10 35 C-15.74011969 27.19038744 -16.67147799 20.04044049 -16.69921875 10.6640625 C-15.80340017 5.96977297 -14.34160653 4.34666191 -11 1 C-7.35605012 -0.82197494 -3.91378318 -0.63210496 0 0 Z " fill="#00a6ff" transform="translate(16,112)"/>
<path d="M0 0 C3.17147833 1.22286979 6.21955938 2.5847603 9.30053711 4.01318359 C28.77284319 12.95325707 49.79667532 17.84475829 70.875 21.1875 C71.84074951 21.3424292 72.80649902 21.4973584 73.80151367 21.65698242 C89.56025424 24.01035259 105.35921386 25.12561021 121.28515625 25.23828125 C123.09977356 25.25165779 123.09977356 25.25165779 124.9510498 25.26530457 C129.92913232 25.29477105 134.90683614 25.31464053 139.88500977 25.30541992 C143.58135834 25.30281068 147.27647296 25.33077211 150.97265625 25.36328125 C152.09446793 25.35307449 153.2162796 25.34286774 154.37208557 25.33235168 C163.00496593 25.44114385 163.00496593 25.44114385 166.66967773 28.35986328 C170.78307219 33.02013018 171.25541119 37.9209565 172 43.9375 C172.72212368 49.49163819 172.72212368 49.49163819 174.1875 54.875 C175.22383231 58.86089351 175.25880482 62.06424316 174 66 C172.17033764 68.95560842 170.16240834 71.41879583 167 73 C156.62658212 74.10620734 146.17227929 74.2036054 135.75 74.1875 C135.01666443 74.18689575 134.28332886 74.1862915 133.527771 74.18566895 C89.46265671 74.08819816 27.951559 71.65757944 -6 39 C-12.56716288 31.79730523 -16.53758508 24.81297995 -16.5 14.9375 C-16.54253906 13.9155957 -16.54253906 13.9155957 -16.5859375 12.87304688 C-16.60090156 8.97865061 -16.00550686 6.53942858 -13.59375 3.56640625 C-9.40601818 -0.57717779 -5.7136193 -0.92673986 0 0 Z " fill="#00a6ff" transform="translate(16,182)"/>
<path d="M0 0 C2.47690857 0.95505514 4.84727428 1.94921622 7.25 3.0625 C42.66427724 19.41431877 83.32386407 24.97206263 122.06640625 25.23828125 C123.25376373 25.24715363 124.44112122 25.256026 125.66445923 25.26516724 C130.54715613 25.29480531 135.42946515 25.31463933 140.31225586 25.30541992 C143.93911457 25.3028105 147.56471599 25.33077179 151.19140625 25.36328125 C152.29134415 25.35307449 153.39128204 25.34286774 154.52455139 25.33235168 C162.99086866 25.44112584 162.99086866 25.44112584 166.66748047 28.40380859 C169.99735988 32.1101031 170.87649757 35.06813612 171 40 C170.20803724 44.97423803 168.22643728 48.68167461 164.21337891 51.86669922 C159.51237933 54.27371886 154.05987568 54.54246182 148.87234497 55.17037964 C145.15002528 55.62547251 141.43864769 56.1561458 137.7265625 56.6875 C136.98219437 56.79327866 136.23782623 56.89905731 135.47090149 57.00804138 C120.71752129 59.15746071 105.99003744 62.72559239 92.09204102 68.17163086 C82.43894145 71.75260001 72.74573766 69.90045295 62.9375 67.8125 C61.84840332 67.58618896 60.75930664 67.35987793 59.63720703 67.12670898 C34.34717549 61.75894534 4.2966808 54.30699686 -11.59375 32.1953125 C-16.61057418 24.36349253 -17.138533 16.14966522 -16 7 C-12.80605473 0.13893238 -7.03062119 -1.14035545 0 0 Z " fill="#00a6ff" transform="translate(16,252)"/>
<path d="M0 0 C3.72624909 1.65611071 5.94317746 3.49300202 8 7 C8.32361085 9.66760292 8.47673002 12.02603628 8.4375 14.6875 C8.42920166 15.40357422 8.42090332 16.11964844 8.41235352 16.85742188 C8.09500501 26.82284254 3.93151255 33.05367652 -3 40 C-3.75023437 40.76763672 -3.75023437 40.76763672 -4.515625 41.55078125 C-27.2402818 62.84080063 -65.41920653 68.49041433 -95 72 C-96.02222656 72.13019531 -97.04445313 72.26039063 -98.09765625 72.39453125 C-100.7343664 72.68577317 -103.35122484 72.85803462 -106 73 C-107.27488281 73.11085938 -108.54976563 73.22171875 -109.86328125 73.3359375 C-116.5839983 73.77400534 -121.88618736 73.91498811 -127.375 69.4375 C-128.92997685 67.97233204 -130.47217639 66.4934608 -132 65 C-138.76329934 59.64471849 -146.19277452 55.56866887 -153.84375 51.63916016 C-158.13550934 49.35985315 -161.09774861 47.70675639 -163 43 C-163.75806761 39.07588531 -163.367541 35.82696726 -161.75 32.1875 C-159.49880904 29.3735113 -157.81399038 27.30256987 -154.10159302 26.68334961 C-151.66074233 26.50803046 -149.23175966 26.42752363 -146.78515625 26.375 C-145.41339989 26.32735504 -145.41339989 26.32735504 -144.01393127 26.27874756 C-142.05115793 26.21086184 -140.08818007 26.14869503 -138.12506104 26.0916748 C-132.9764184 25.93755516 -127.83016804 25.72674199 -122.68359375 25.515625 C-121.66571777 25.47431458 -120.6478418 25.43300415 -119.59912109 25.39044189 C-82.86898962 23.84338473 -32.76560415 -3.52860352 0 0 Z " fill="#00a6ff" transform="translate(504,275)"/>
<path d="M0 0 C3.05250228 1.76180364 5.39729824 3.79459647 7 7 C8.12837328 18.9693267 6.7421871 27.7473179 -0.9453125 37.45703125 C-23.59188245 61.98385147 -65.60763391 68.69792115 -97 72 C-97.79148437 72.08378906 -98.58296875 72.16757812 -99.3984375 72.25390625 C-104.40893367 72.54261514 -107.18899046 71.17584128 -111 68 C-114.09878362 63.35182458 -113.57520395 58.25166315 -112.6171875 52.8359375 C-112.27951776 51.40486098 -111.92439883 49.97782291 -111.5546875 48.5546875 C-110.85785497 45.34533203 -110.58833028 42.14092288 -110.25 38.875 C-108.86749372 29.65497611 -108.86749372 29.65497611 -105.30078125 26.25 C-100.21349443 23.48610903 -94.28600589 23.08068259 -88.62060547 22.34912109 C-63.35720171 18.98349156 -37.82463801 13.90801921 -14.8125 2.5625 C-9.84395542 0.19288643 -5.48125409 -1.51092919 0 0 Z " fill="#00a6ff" transform="translate(505,345)"/>
<path d="M0 0 C3.65469895 2.22530558 5.27522653 3.52099208 6.63671875 7.60546875 C7.00790625 12.61650003 6.75460821 15.59675374 3.63671875 19.60546875 C-1.10834832 23.75740244 -5.48558721 23.88856604 -11.56640625 23.82421875 C-16.35646613 23.4495772 -19.87294101 22.195165 -23.23828125 18.60546875 C-25.92763163 13.82440141 -25.97009101 8.95038213 -25.36328125 3.60546875 C-23.7563499 0.39160605 -22.41991956 -1.56431544 -19.61328125 -3.76953125 C-11.83067891 -5.93136523 -6.94188684 -3.59982608 0 0 Z " fill="#00a6ff" transform="translate(234.36328125,279.39453125)"/>
</svg>