<svg version="1.1" xmlns="http://www.w3.org/2000/svg" width="512px" height="512px" transform="rotate(0) scale(1, 1)">
<path d="M0 0 C14.70935714 12.61832108 22.53317907 30.59241805 25.375 49.5 C26.9874819 73.28410801 20.57289715 95.57463619 4.85791016 113.59643555 C0.31408538 118.65577617 -4.47230343 123.47623193 -9.375 128.1875 C-8.1143137 131.96955891 -6.50665391 132.88546822 -3.375 135.3125 C1.24308758 138.99263189 5.41473072 142.86461357 9.53125 147.08984375 C11.3947422 148.95681262 13.29946853 150.67330602 15.3125 152.375 C23.71680898 159.59798041 31.67970474 167.65424714 38.8359375 176.11328125 C41.76655863 179.51101012 44.83714124 182.78197962 47.89526367 186.06494141 C50.02141212 188.36370485 51.88290061 190.57435091 53.625 193.1875 C57.66382898 191.59673481 60.20595958 188.70772047 63.125 185.625 C78.45513139 169.99721891 97.45593472 159.45981157 119.625 158.1875 C120.81416016 158.10822266 120.81416016 158.10822266 122.02734375 158.02734375 C142.20085077 157.32961343 162.32731278 164.36957421 177.8125 177.25 C186.38145212 185.34979854 192.50275106 195.83700386 195.625 207.1875 C195.95951172 208.39792969 195.95951172 208.39792969 196.30078125 209.6328125 C198.92964789 220.75631623 199.1578457 234.36545312 193.8125 244.6875 C190.83146416 248.0943981 188.25408951 249.94412324 183.72265625 250.62109375 C177.57428199 250.62900672 173.31185704 250.6340054 168.625 246.1875 C165.64455795 242.38486704 164.9606529 238.97055379 164.625 234.1875 C164.93003431 232.18298879 165.26580679 230.18301782 165.625 228.1875 C166.48586256 220.07307331 164.64732656 212.69420974 160.08203125 205.88671875 C152.90059979 197.16054002 143.32468879 193.03542531 132.5 190.4375 C119.22654114 189.28328619 105.88907018 191.68571942 95.20703125 200.08984375 C88.36537101 206.1048487 82.01516083 212.69852225 75.625 219.1875 C77.25030096 223.97052854 79.90284624 227.83654171 82.6875 232 C88.06930484 240.1925486 93.00328972 248.54524285 97.625 257.1875 C98.15287109 258.16734863 98.15287109 258.16734863 98.69140625 259.16699219 C109.37013995 279.15513858 118.54113635 302.7458608 113.38671875 325.703125 C110.04262673 336.61000975 104.26852506 343.41704527 94.625 349.1875 C90.88998082 351.05280182 87.07009909 352.67622133 83.21875 354.28515625 C82.12239227 354.75199829 81.02603455 355.21884033 79.89645386 355.6998291 C76.92783778 356.96209539 73.95599022 358.21633643 70.98253632 359.46715164 C67.83259161 360.79467834 64.68721742 362.13294434 61.54150391 363.47045898 C57.0237752 365.39041891 52.50484783 367.30749907 47.98420906 369.22059727 C37.62707546 373.60401531 27.29206307 378.03841941 16.95925903 382.4788208 C-2.43420161 390.80947503 -21.85213459 399.0825916 -41.27349854 407.34793091 C-55.98255014 413.60797035 -70.68487976 419.88316414 -85.375 426.1875 C-102.36034661 433.47684331 -119.36338228 440.72417756 -136.37115479 447.96102905 C-148.87502914 453.28183375 -161.3754315 458.61042638 -173.86328125 463.96875 C-174.95510208 464.43717819 -176.04692291 464.90560638 -177.17182922 465.38822937 C-182.3114679 467.5937965 -187.45035057 469.80110284 -192.58813477 472.01098633 C-198.17912768 474.41406927 -203.77571894 476.80380067 -209.375 479.1875 C-210.42514282 479.63575134 -211.47528564 480.08400269 -212.55725098 480.5458374 C-215.79843568 481.92648051 -219.0432179 483.2983217 -222.2890625 484.66796875 C-223.77459122 485.30222527 -223.77459122 485.30222527 -225.29013062 485.94929504 C-240.86581996 492.48767436 -257.93260416 494.08795238 -273.94140625 487.86328125 C-289.11507123 480.45770414 -298.98347432 469.78627753 -305.375 454.1875 C-307.27153734 448.042719 -307.74056362 442.41201932 -307.75 436 C-307.77449219 435.14341797 -307.79898437 434.28683594 -307.82421875 433.40429688 C-307.89604893 417.25447753 -299.19077505 401.93234872 -292.9375 387.4375 C-291.90172766 385.02305066 -290.86658167 382.60833254 -289.83203125 380.19335938 C-287.71246088 375.24763876 -285.58870305 370.30373853 -283.46142578 365.36132812 C-280.6334883 358.79039322 -277.81294575 352.21631863 -274.99609375 345.640625 C-274.13859323 343.63899623 -273.28108999 341.63736861 -272.42358398 339.63574219 C-272.00325897 338.65456421 -271.58293396 337.67338623 -271.14987183 336.66247559 C-269.86506334 333.66431232 -268.57927416 330.66657139 -267.29321289 327.66894531 C-260.79466549 312.51942166 -254.32967193 297.35576287 -247.875 282.1875 C-240.13786718 264.00549698 -232.3742229 245.83515973 -224.58300781 227.67626953 C-217.65377182 211.52461265 -210.75712304 195.35928292 -203.875 179.1875 C-196.69545995 162.3195821 -189.50811293 145.45505517 -182.29248047 128.60253906 C-181.40679785 126.53371213 -180.52152648 124.46470907 -179.63671875 122.39550781 C-177.26331312 116.84592701 -174.8786523 111.30143471 -172.48175049 105.76196289 C-171.37935952 103.19764088 -170.29585816 100.62592449 -169.21435547 98.05273438 C-168.52748425 96.44641523 -167.84016978 94.84028553 -167.15234375 93.234375 C-166.71046471 92.16259003 -166.71046471 92.16259003 -166.25965881 91.06915283 C-162.35462808 82.05444598 -156.24428092 76.32148687 -147.375 72.1875 C-125.92651036 64.47763751 -102.93568115 71.89319359 -83.1796875 81.10546875 C-79.1893736 83.03074322 -75.27295374 85.08243101 -71.375 87.1875 C-70.35962158 87.73325684 -70.35962158 87.73325684 -69.32373047 88.29003906 C-60.34438241 93.14796132 -51.78537192 98.39451521 -43.375 104.1875 C-41.378997 105.52693845 -39.37732484 106.85751004 -37.375 108.1875 C-26.88628691 103.53216765 -16.08832311 90.94063091 -11.30859375 80.61328125 C-11.00050781 79.81277344 -10.69242187 79.01226562 -10.375 78.1875 C-10.05660156 77.37667969 -9.73820312 76.56585938 -9.41015625 75.73046875 C-4.87469294 63.12731495 -5.40418253 50.52493745 -10.6640625 38.15625 C-15.54163212 28.66194336 -21.19776171 22.68651353 -31.375 19.1875 C-34.47647585 18.25352102 -37.13527683 18.11545306 -40.3671875 18.23046875 C-41.79611328 18.26237305 -41.79611328 18.26237305 -43.25390625 18.29492188 C-45.24384385 18.34810795 -47.23350201 18.41312524 -49.22265625 18.49023438 C-55.12385746 18.59774614 -58.83006899 18.38336891 -63.375 14.1875 C-67.43130398 8.96490143 -67.14897544 3.53409858 -66.375 -2.8125 C-64.23227172 -7.33603749 -61.95900634 -9.81945376 -57.375 -11.8125 C-37.43359673 -17.85189642 -16.29607599 -12.30926841 0 0 Z M-137.375 103.1875 C-142.20295267 117.671358 -132.61025217 135.41197862 -126.375 148.1875 C-126.07110352 148.81978516 -125.76720703 149.45207031 -125.45410156 150.10351562 C-112.93476116 175.86153975 -94.23983343 199.66838565 -74.7890625 220.5625 C-72.92125253 222.59351667 -71.12380554 224.64987736 -69.33203125 226.74609375 C-64.79820656 231.94450543 -59.91696594 236.79544614 -55.0324707 241.66040039 C-53.44041034 243.24709946 -51.8537701 244.83907742 -50.26757812 246.43164062 C-44.80981312 251.89334699 -39.27925278 257.20534698 -33.375 262.1875 C-32.31864044 263.09983221 -31.2626326 264.01257187 -30.20703125 264.92578125 C-22.77669827 271.26030833 -15.22561618 277.37851682 -7.375 283.1875 C-6.7464209 283.65269043 -6.1178418 284.11788086 -5.47021484 284.59716797 C16.9452233 301.06082598 48.30452355 324.04911755 77.625 322.1875 C80.55298943 321.03337664 80.55298943 321.03337664 82.625 319.1875 C87.10122709 305.75881874 78.37792323 288.28866056 72.625 276.1875 C66.83467866 264.62929077 59.98230058 253.80079743 52.625 243.1875 C48.06235076 245.10153653 45.29031544 248.46081049 41.94140625 251.99609375 C37.66372132 256.04294239 34.55005065 257.60784478 28.625 257.5625 C27.614375 257.57023438 26.60375 257.57796875 25.5625 257.5859375 C21.07205421 256.97686108 18.59379286 255.45438297 15.84765625 251.86328125 C13.64664477 247.04637115 13.82647624 242.357603 14.625 237.1875 C16.58344717 232.76109095 20.07829653 229.70705593 23.5078125 226.39453125 C24.01014404 225.9054126 24.51247559 225.41629395 25.0300293 224.91235352 C26.0401485 223.94021235 27.06496236 222.98308058 28.10473633 222.04272461 C30.83343455 219.58882351 30.83343455 219.58882351 31.73046875 216.1875 C30.17680687 213.37663469 28.20628099 211.27042552 26 208.9375 C25.0813499 207.95636668 24.16338389 206.97459241 23.24609375 205.9921875 C22.38113281 205.06664062 21.51617187 204.14109375 20.625 203.1875 C19.43036302 201.81869624 18.24188752 200.44446467 17.0625 199.0625 C13.7837208 195.27988948 10.24872828 191.79227625 6.68359375 188.28125 C5.02515004 186.59448372 3.5255479 184.91470879 2.0625 183.0625 C-0.4878662 180.05437577 -3.21912118 177.6454203 -6.21484375 175.09765625 C-8.48151996 173.09330785 -10.57863264 170.9817285 -12.6875 168.8125 C-16.86349886 164.57113768 -21.3355914 160.8342094 -25.9921875 157.1328125 C-28.375 155.1875 -28.375 155.1875 -29.9453125 153.3671875 C-30.41710937 152.97789062 -30.88890625 152.58859375 -31.375 152.1875 C-34.62121451 152.61336994 -36.21426535 153.6757843 -38.43359375 156.0234375 C-39.26020508 156.87808594 -39.26020508 156.87808594 -40.10351562 157.75 C-40.66748047 158.348125 -41.23144531 158.94625 -41.8125 159.5625 C-50.58457224 168.80901113 -50.58457224 168.80901113 -56.3125 169.5859375 C-57.323125 169.57820313 -58.33375 169.57046875 -59.375 169.5625 C-60.385625 169.57023437 -61.39625 169.57796875 -62.4375 169.5859375 C-66.92794579 168.97686108 -69.40620714 167.45438297 -72.15234375 163.86328125 C-74.35025076 159.05316526 -74.18940274 154.3498711 -73.375 149.1875 C-71.87360448 145.98122311 -69.85034098 143.69391221 -67.375 141.1875 C-66.65570313 140.43984375 -65.93640625 139.6921875 -65.1953125 138.921875 C-63.28442552 136.97698647 -61.34734879 135.06974148 -59.375 133.1875 C-60.57024146 129.60177561 -61.39924901 129.25845456 -64.5390625 127.33203125 C-65.40611816 126.79594238 -66.27317383 126.25985352 -67.16650391 125.70751953 C-68.10155762 125.14403809 -69.03661133 124.58055664 -70 124 C-71.43545166 123.12770752 -71.43545166 123.12770752 -72.89990234 122.23779297 C-75.71596592 120.53871286 -78.54201807 118.85819311 -81.375 117.1875 C-82.0865625 116.76678223 -82.798125 116.34606445 -83.53125 115.91259766 C-95.56656302 108.893026 -124.30420369 92.49321211 -137.375 103.1875 Z M-159.375 154.1875 C-161.83134587 159.78532089 -164.27017644 165.39032383 -166.69311523 171.00268555 C-167.51972524 172.91068373 -168.35107622 174.81663526 -169.18725586 176.72045898 C-170.38868808 179.4581254 -171.57285202 182.20271063 -172.75390625 184.94921875 C-173.13092178 185.79836349 -173.50793732 186.64750824 -173.89637756 187.52238464 C-176.42095275 193.22435578 -176.42095275 193.22435578 -175.375 199.1875 C-174.42970913 201.21203405 -173.41238693 203.20362114 -172.34765625 205.16796875 C-171.41481812 206.8993811 -171.41481812 206.8993811 -170.46313477 208.66577148 C-169.78814801 209.90230375 -169.11293123 211.13871047 -168.4375 212.375 C-167.74425465 213.65478259 -167.0514683 214.93481391 -166.35913086 216.21508789 C-161.98852463 224.28376632 -157.56543661 232.32331249 -153.0859375 240.33203125 C-149.55506422 246.64607944 -146.05854325 252.97912539 -142.5625 259.3125 C-142.21911591 259.93443237 -141.87573181 260.55636475 -141.52194214 261.19714355 C-136.26052451 270.73011392 -131.05536103 280.29232839 -125.88085938 289.87280273 C-122.02364281 297.00805443 -118.10566938 304.106905 -114.15625 311.19140625 C-110.60914833 317.55633607 -107.08477815 323.93381261 -103.5625 330.3125 C-103.21929718 330.93373749 -102.87609436 331.55497498 -102.52249146 332.19503784 C-97.79826188 340.7493416 -93.1301054 349.33178489 -88.5 357.9375 C-83.35330173 367.49633387 -77.95393412 376.87579564 -72.375 386.1875 C-58.40505516 380.7064364 -44.59658813 374.90170649 -30.83364868 368.92120361 C-25.2538802 366.49698267 -19.67009521 364.08205875 -14.0859375 361.66796875 C-12.99160904 361.19480225 -11.89728058 360.72163574 -10.76979065 360.23413086 C2.64814146 354.43975266 16.12380374 348.78480688 29.625 343.1875 C29.625 342.5275 29.625 341.8675 29.625 341.1875 C28.99335938 340.87748047 28.36171875 340.56746094 27.7109375 340.24804688 C1.28494598 327.1683234 -23.03833211 311.04093429 -45.36328125 291.76171875 C-48.15300279 289.37724859 -50.99877023 287.09107163 -53.875 284.8125 C-58.82980028 280.7907935 -63.28592377 276.39337694 -67.74780273 271.84423828 C-70.55108848 268.99030335 -73.3618989 266.25262789 -76.4375 263.6875 C-81.68618078 259.2200694 -86.18793453 254.00385862 -90.80615234 248.90478516 C-92.32987029 247.23689969 -93.87296023 245.59000131 -95.42578125 243.94921875 C-102.06971642 236.90972167 -108.15457513 229.59291555 -114.03808594 221.90966797 C-115.31620233 220.2632412 -116.62262395 218.64589024 -117.9453125 217.03515625 C-133.63435731 197.81379126 -146.59947733 176.49917048 -157.375 154.1875 C-158.035 154.1875 -158.695 154.1875 -159.375 154.1875 Z M-192.375 233.1875 C-196.13582772 240.46466689 -199.46535945 247.8684645 -202.6484375 255.4140625 C-203.13527008 256.56055267 -203.62210266 257.70704285 -204.12368774 258.88827515 C-205.66879106 262.52842018 -207.2095981 266.1703633 -208.75 269.8125 C-210.28043733 273.42431274 -211.81179129 277.03573285 -213.34429932 280.64666748 C-214.33111872 282.97366186 -215.31597308 285.30149064 -216.29876709 287.63018799 C-218.37646089 292.54278232 -220.46849222 297.44144152 -222.69628906 302.28808594 C-223.03407379 303.02868256 -223.37185852 303.76927917 -223.71987915 304.53231812 C-224.5850617 306.41410904 -225.46676537 308.28828129 -226.35009766 310.16162109 C-227.96366442 314.92544825 -226.83981915 317.18132154 -224.76782227 321.66650391 C-224.08209608 323.00233468 -223.38953929 324.33467373 -222.69140625 325.6640625 C-222.32049866 326.38217102 -221.94959106 327.10027954 -221.56744385 327.84014893 C-220.3634469 330.16742479 -219.1506262 332.48997182 -217.9375 334.8125 C-217.10261464 336.42178153 -216.268225 338.03132033 -215.43432617 339.64111328 C-211.01127142 348.16997851 -206.56279151 356.68588603 -202.06811523 365.17724609 C-198.33219467 372.23988854 -194.66661041 379.33872245 -191 386.4375 C-186.19654275 395.73386836 -181.39146561 405.0293453 -176.5625 414.3125 C-176.06508301 415.27188477 -175.56766602 416.23126953 -175.05517578 417.21972656 C-174.3685083 418.5379541 -174.3685083 418.5379541 -173.66796875 419.8828125 C-173.2711792 420.64609863 -172.87438965 421.40938477 -172.46557617 422.19580078 C-171.29631972 424.3996884 -171.29631972 424.3996884 -169.375 427.1875 C-162.0004001 424.8634453 -154.95936378 421.98753203 -147.859375 418.93359375 C-146.68538147 418.43207291 -145.51138794 417.93055206 -144.30181885 417.41383362 C-141.20548944 416.09046481 -138.11047393 414.7641169 -135.01611328 413.43615723 C-130.6474116 411.56228538 -126.2761496 409.69438999 -121.90533447 407.82545471 C-119.58437894 406.83261572 -117.26384591 405.83878833 -114.94378662 404.84385681 C-113.36624603 404.16789207 -113.36624603 404.16789207 -111.75683594 403.47827148 C-110.83578064 403.08316879 -109.91472534 402.6880661 -108.96575928 402.2809906 C-106.44736851 401.21804482 -103.91643527 400.19394034 -101.375 399.1875 C-102.85444455 395.27401368 -104.64816212 391.637421 -106.61328125 387.9453125 C-106.9300885 387.34930237 -107.24689575 386.75329224 -107.57330322 386.13922119 C-108.60826761 384.19530831 -109.64757728 382.25376435 -110.6875 380.3125 C-111.22429886 379.30742401 -111.22429886 379.30742401 -111.77194214 378.28204346 C-116.88411006 368.71420414 -122.12574267 359.23144688 -127.5090332 349.81298828 C-131.76412202 342.34124327 -135.83800209 334.77846918 -139.875 327.1875 C-144.43030084 318.62235645 -149.06411917 310.11246617 -153.875 301.6875 C-159.01909961 292.67899058 -163.95138066 283.56713479 -168.82092285 274.40838623 C-173.82052969 265.01087508 -178.96597647 255.70810416 -184.25195312 246.46875 C-186.75242181 242.09373641 -189.18727378 237.72778113 -191.375 233.1875 C-191.705 233.1875 -192.035 233.1875 -192.375 233.1875 Z M-244.375 353.1875 C-247.22036313 359.8474289 -250.06384715 366.50815706 -252.9051733 373.16980934 C-254.22571902 376.26575515 -255.54700412 379.36138011 -256.86938477 382.45654297 C-259.90728664 389.56763359 -262.93450246 396.68309117 -265.94467163 403.80596924 C-266.88322039 406.02485237 -267.82439749 408.24262598 -268.76846313 410.45916748 C-270.04821547 413.46873467 -271.31502128 416.48341472 -272.578125 419.5 C-272.9540831 420.37806305 -273.3300412 421.2561261 -273.71739197 422.16079712 C-276.8817587 429.78878163 -278.08145597 436.3816268 -275.6953125 444.5 C-272.97919173 450.84562728 -268.03487677 455.5383764 -262.25 459.125 C-251.41138228 462.96951177 -241.10700698 459.1463925 -231.1875 454.6875 C-229.91860114 454.13697267 -228.64881434 453.58848769 -227.37817383 453.04199219 C-223.69786768 451.45145229 -220.03645309 449.82096102 -216.375 448.1875 C-214.41462318 447.32684676 -212.4537418 446.4673412 -210.4921875 445.609375 C-206.44028634 443.82960759 -202.402934 442.02083007 -198.375 440.1875 C-199.97588726 434.72937852 -202.43030955 429.89320235 -205.03125 424.86328125 C-205.49301636 423.9624028 -205.95478271 423.06152435 -206.43054199 422.13334656 C-207.90806738 419.25351023 -209.39154737 416.37678673 -210.875 413.5 C-211.84151337 411.61672504 -212.80766244 409.73326306 -213.7734375 407.84960938 C-219.55679624 396.58375285 -225.41475404 385.35861609 -231.33166504 374.16238403 C-232.73724578 371.50182049 -234.13833943 368.83890481 -235.5390625 366.17578125 C-235.95800781 365.37978516 -236.37695312 364.58378906 -236.80859375 363.76367188 C-238.6640625 360.23828125 -240.51953125 356.71289062 -242.375 353.1875 C-243.035 353.1875 -243.695 353.1875 -244.375 353.1875 Z " fill="#ffffff" transform="translate(307.375,20.8125)"/>
<path d="M0 0 C4.62215198 2.18944041 6.71179348 4.50115328 9 9 C9.50390625 11.83203125 9.50390625 11.83203125 9.5625 14.8125 C9.62630859 16.27623047 9.62630859 16.27623047 9.69140625 17.76953125 C8.05812152 25.40075424 0.97684102 31.314772 -4.39477539 36.65356445 C-5.10938431 37.37167801 -5.82399323 38.08979156 -6.56025696 38.82966614 C-8.90108426 41.17922764 -11.2490694 43.52147802 -13.59765625 45.86328125 C-15.23649321 47.5034668 -16.87503329 49.14394903 -18.51329041 50.78471375 C-21.9370165 54.21137946 -25.36431136 57.63442404 -28.79418945 61.05493164 C-33.18805208 65.43737343 -37.57283834 69.82876961 -41.95501041 74.22289753 C-45.33228107 77.60739504 -48.71430045 80.98711487 -52.09777641 84.36540794 C-53.71675827 85.983057 -55.33425951 87.6021893 -56.950243 89.22283363 C-59.20689609 91.48456836 -61.46986546 93.7397888 -63.73461914 95.9934082 C-64.39917114 96.66200867 -65.06372314 97.33060913 -65.74841309 98.01947021 C-70.75786793 102.98342039 -74.57855506 106.42802903 -81.9375 106.4375 C-87.0792385 106.29853409 -90.15476391 105.6480445 -94 102 C-96.5990635 98.33368821 -97.47428036 95.67493905 -97.5625 91.1875 C-97.60503906 90.21167969 -97.64757812 89.23585938 -97.69140625 88.23046875 C-96.05812152 80.59924576 -88.97684102 74.685228 -83.60522461 69.34643555 C-82.89061569 68.62832199 -82.17600677 67.91020844 -81.43974304 67.17033386 C-79.09891574 64.82077236 -76.7509306 62.47852198 -74.40234375 60.13671875 C-72.76350679 58.4965332 -71.12496671 56.85605097 -69.48670959 55.21528625 C-66.0629835 51.78862054 -62.63568864 48.36557596 -59.20581055 44.94506836 C-54.81194792 40.56262657 -50.42716166 36.17123039 -46.04498959 31.77710247 C-42.66771893 28.39260496 -39.28569955 25.01288513 -35.90222359 21.63459206 C-34.28324173 20.016943 -32.66574049 18.3978107 -31.049757 16.77716637 C-28.79310391 14.51543164 -26.53013454 12.2602112 -24.26538086 10.0065918 C-23.26855286 9.0036911 -23.26855286 9.0036911 -22.25158691 7.98052979 C-15.18378507 0.97693013 -10.0894807 -1.23042448 0 0 Z " fill="#ffffff" transform="translate(466,37)"/>
<path d="M0 0 C4.51334264 2.13789915 6.94285326 4.452623 9 9 C10.34515747 14.25834283 10.09587818 19.60951551 10 25 C10.94101563 24.95359375 11.88203125 24.9071875 12.8515625 24.859375 C24.2959347 24.52765407 24.2959347 24.52765407 27.6875 26.6875 C31.80381315 30.80381315 33.42997214 34.08835308 33.4375 39.9375 C33.29853409 45.0792385 32.6480445 48.15476391 29 52 C24.84931313 55.11301515 21.81495757 55.33126049 16.6875 55.1875 C15.43324219 55.16042969 14.17898437 55.13335937 12.88671875 55.10546875 C11.93410156 55.07066406 10.98148438 55.03585938 10 55 C10.02320313 55.556875 10.04640625 56.11375 10.0703125 56.6875 C10.23119751 63.4906375 10.1540969 69.45927032 5.5625 74.875 C0.45237222 79.11266694 -2.55674991 79.43398098 -9.046875 79.31640625 C-13.0050156 78.89231976 -15.12311819 77.72934941 -18 75 C-21.1715094 70.8317305 -21.37654031 67.25281089 -21.1875 62.1875 C-21.16719727 61.14819336 -21.16719727 61.14819336 -21.14648438 60.08789062 C-21.11138845 58.39158735 -21.05758943 56.69568864 -21 55 C-22.01320313 55.04640625 -23.02640625 55.0928125 -24.0703125 55.140625 C-25.42184532 55.17816758 -26.77341028 55.21456506 -28.125 55.25 C-28.79015625 55.28351562 -29.4553125 55.31703125 -30.140625 55.3515625 C-35.29346769 55.45259863 -38.10254669 54.32130804 -42 51 C-46.05630398 45.77740143 -45.77397544 40.34659858 -45 34 C-42.82651135 29.41152397 -40.54070019 27.17055449 -36 25 C-33.30408429 24.79047287 -30.86549491 24.71255569 -28.1875 24.8125 C-27.14819336 24.83280273 -27.14819336 24.83280273 -26.08789062 24.85351562 C-24.39158735 24.88861155 -22.69568864 24.94241057 -21 25 C-21.04640625 23.91460938 -21.0928125 22.82921875 -21.140625 21.7109375 C-21.17816487 20.26565269 -21.21456264 18.82033789 -21.25 17.375 C-21.28351563 16.66214844 -21.31703125 15.94929687 -21.3515625 15.21484375 C-21.44710229 10.00792508 -20.51499326 7.07691396 -17 3 C-11.77740143 -1.05630398 -6.34659858 -0.77397544 0 0 Z " fill="#ffffff" transform="translate(110,0)"/>
<path d="M0 0 C4.58847603 2.17348865 6.82944551 4.45929981 9 9 C9.20952713 11.69591571 9.28744431 14.13450509 9.1875 16.8125 C9.16719727 17.85180664 9.16719727 17.85180664 9.14648438 18.91210938 C9.11138845 20.60841265 9.05758943 22.30431136 9 24 C10.62808594 23.93039062 10.62808594 23.93039062 12.2890625 23.859375 C13.73434731 23.82183513 15.17966211 23.78543736 16.625 23.75 C17.33785156 23.71648437 18.05070312 23.68296875 18.78515625 23.6484375 C23.99207492 23.55289771 26.92308604 24.48500674 31 28 C34.46956504 32.51043455 34.67503376 36.42853842 34.55859375 41.9765625 C33.64888753 46.90042691 30.88064633 49.96694666 27 53 C23.38132441 54.2062252 20.07493749 54.10816918 16.3125 54.0625 C15.2596582 54.05573242 15.2596582 54.05573242 14.18554688 54.04882812 C12.45699462 54.03706927 10.72848635 54.01913454 9 54 C9.08121094 54.99 9.16242188 55.98 9.24609375 57 C9.93138405 69.00701536 9.93138405 69.00701536 5.6875 73.875 C1.15920545 78.26089535 -3.20170608 78.34537497 -9.26953125 78.28125 C-13.11535443 77.88511371 -15.18370077 76.60507679 -18 74 C-22.60966891 67.80079009 -22.12939679 61.40437159 -22 54 C-22.94101562 54.04640625 -23.88203125 54.0928125 -24.8515625 54.140625 C-36.2959347 54.47234593 -36.2959347 54.47234593 -39.6875 52.3125 C-44.09787662 47.90212338 -45.67534265 44.2767088 -46 38 C-45.03973334 32.43045339 -43.27940772 29.65315293 -39 26 C-35.2632157 23.50881047 -33.25548181 23.7934774 -28.8125 23.875 C-27.54019531 23.89304687 -26.26789063 23.91109375 -24.95703125 23.9296875 C-23.98121094 23.95289063 -23.00539063 23.97609375 -22 24 C-22.02320313 23.35933594 -22.04640625 22.71867187 -22.0703125 22.05859375 C-22.21237246 15.24986304 -22.22869621 9.57157255 -17.5625 4.1875 C-11.82360961 -0.71155278 -7.34932676 -0.78742787 0 0 Z " fill="#ffffff" transform="translate(478,353)"/>
<path d="M0 0 C4.61581142 2.18643699 6.72864085 4.49599804 9 9 C9.82885269 14.54808604 9.7240695 19.47140883 7.3125 24.5625 C4.21064779 27.8320199 1.61649202 29.75850523 -2.90234375 30.43359375 C-9.05071801 30.44150672 -13.31314296 30.4465054 -18 26 C-21.88937897 20.55860924 -21.79042609 15.48149391 -21 9 C-16.63929544 -0.20593186 -9.3488659 -1.1401056 0 0 Z " fill="#ffffff" transform="translate(486,121)"/>
<path d="M0 0 C4.61581142 2.18643699 6.72864085 4.49599804 9 9 C9.82885269 14.54808604 9.7240695 19.47140883 7.3125 24.5625 C4.21064779 27.8320199 1.61649202 29.75850523 -2.90234375 30.43359375 C-9.05071801 30.44150672 -13.31314296 30.4465054 -18 26 C-21.88937897 20.55860924 -21.79042609 15.48149391 -21 9 C-16.63929544 -0.20593186 -9.3488659 -1.1401056 0 0 Z " fill="#ffffff" transform="translate(398,0)"/>
</svg>