<svg xmlns="http://www.w3.org/2000/svg" width="500" height="500" xmlns:v="https://vecta.io/nano"><path d="M178.675 124.485l3.404-.021 11.208.002 8.07-.026 19.594-.013 15.937-.001 2.297-.003 4.62-.006 43.266.009 39.518-.029 40.651-.031 4.605.003 2.288.001 15.9-.022 19.403.005 9.884-.004c20.733-.093 34.72 2.246 50.367 16.837 15.636 16.354 15.905 35.229 15.83 56.49l.021 7.766.002 18.819-.006 15.31.002 2.21.004 4.446-.023 41.59.004 35.599.018 41.447-.004 4.429-.002 2.201.012 15.271-.02 20.598.005 7.533c.069 21.379-1.413 37.622-16.718 53.854-9.863 9.471-22.594 16.353-36.527 16.384l-2.801.014-3.051-.001-3.262.011-10.842.019-7.766.02-23.322.039-10.997.015-36.583.039-9.488.006-2.382.001-38.159.066-39.223.054-22.003.036-20.716.017a1344.34 1344.34 0 0 0-7.582.02c-21.438.11-37.561-1.91-53.786-17.143-8.297-8.395-15.428-18.896-15.455-31.085l-.014-2.894.001-3.171-.011-3.375-.019-11.238-.02-8.042-.039-24.164-.015-11.388-.039-37.872-.006-9.826-.001-2.467-.066-39.531-.054-40.613-.036-22.791-.02-19.417-.017-9.896.003-10.759-.033-3.116c.125-14.225 6.096-26.223 15.771-36.452 11.026-10.447 23.257-15.886 38.425-15.765zM165 171c-2.403 5.408-2.283 10.546-2.261 16.348l-.012 3.154-.002 10.46-.015 7.501-.012 18.258-.004 14.843-.002 2.135-.004 4.294-.003 40.262-.025 36.813-.024 37.82-.015 21.225.002 19.96-.009 7.324.01 10.001-.022 2.924c.057 7.162 1.093 12.814 5.709 18.554 5.854 4.629 11.941 4.415 19.074 4.392l3.166.014 10.501.009 7.53.02 18.33.023 14.902.011 42.271.025h2.301 2.303l36.958.047 37.969.041 21.309.026 20.039.005 7.353.015 10.041-.009 2.935.031c6.853-.07 12.505-1.427 17.545-6.307l1.098-1.719 1.152-1.719c1.708-3.343 2.036-6.519 2.042-10.236l.012-2.703-.003-2.957.009-3.151.012-10.486.015-7.505.024-20.411.012-12.746.026-35.296v-2.281l.001-2.287.001-4.587.001-2.299.045-36.873.037-37.864.025-21.257.01-19.992.013-7.34-.004-10.016.024-2.937c-.045-6.207-.688-11.331-4.822-16.266-6.68-5.11-11.677-5.585-19.843-5.554l-3.166-.012-10.518-.002-7.535-.015-18.351-.012c-4.973.002-9.945 0-14.918-.004l-2.145-.002-4.314-.004-40.455-.003c-12.333.005-24.666-.006-36.999-.025l-38-.024a9449.51 9449.51 0 0 1-21.33-.015c-6.686-.013-13.372-.011-20.058.002-2.455.002-4.909 0-7.364-.009a1454.6 1454.6 0 0 0-10.048.01l-2.946-.022c-8.251.066-14.141 1.714-19.581 8.397z" fill="#090909"/><path d="M78.644 13.866l3.141-.007 10.363-.005 7.453-.01 18.11-.012 14.73-.006 41.825-.013h2.274 2.277l36.523-.023 37.563-.02 21.064-.013 19.815-.002 7.256-.007 9.937.005 2.87-.016c17.625.09 32.886 5.252 45.78 17.45 10.817 11.308 15.877 23.899 15.735 39.554l-.11 4.071L375 88h-39l-.478-14.688-.108-2.792-.095-2.841c-.425-3.574-1.278-6.559-3.756-9.226-3.902-3.005-5.962-4.576-10.85-4.587l-2.743-.014-3.033.001-3.208-.011-10.712-.019-7.651-.02-23.014-.039-10.835-.015-36.016-.039-9.349-.006-2.347-.001-37.64-.066-38.637-.054-21.696-.036-20.41-.017c-2.498 0-4.996-.006-7.494-.02-3.409-.018-6.817-.011-10.226.003l-3-.033c-6.094.057-9.838.724-14.699 4.521-4.449 5.702-4.572 10.606-4.508 17.672l-.019 3.223.009 10.672-.021 7.659-.002 18.63.006 15.142-.002 2.179-.004 4.382.023 41.064-.004 35.226-.018 40.924.004 4.364.002 2.169-.012 15.124.02 20.356-.005 7.476.023 10.194-.027 2.998c.065 5.687.663 9.077 4.535 13.547 6.066 4.751 11.934 4.65 19.438 4.75L89 336v39l-13.687.25-4.229.11c-16.186.141-28.701-5.054-40.396-16.173-12.919-13.534-17.028-29.88-16.941-48.186l-.009-3.146.005-10.328-.011-7.449-.001-18.068.003-14.697-.001-2.12-.002-4.265.012-39.912-.002-34.175-.009-39.773.002-4.249.001-2.111-.006-14.662.01-19.771-.003-7.235C13.669 49.916 13.669 49.916 28 34l2.098-2.344c13.502-14.287 29.588-17.821 48.547-17.79z" fill="#0f0f0f"/></svg>