<svg xmlns="http://www.w3.org/2000/svg" width="512" height="512" xmlns:v="https://vecta.io/nano"><path d="M86 304c4.976 2.31 7.31 5.285 10 10 .499 3.318.499 3.318.498 6.964l.017 2.028.001 4.331.016 6.877.031 12.137.056 19.39-.009 6.735c-.124 12.403-.124 12.403 5.64 22.976 6.946 3.947 13.661 3.85 21.465 3.823l3.563.012 9.751.004 10.532.014 20.619.012 16.763.004 2.411.002 4.85.004 45.468.003 41.573.025 42.712.024 23.97.015 20.406.001 10.405.005 11.294-.01 3.302.022c7.307-.052 14.526-.497 20.104-5.647 3.08-5.421 3.811-10.714 3.818-16.875l.011-2.043.008-4.352.029-6.9.077-19.604.065-12.026.007-4.565.033-6.388.009-3.664c.778-5.129 3.312-8.198 7.006-11.707 5.165-2.398 9.9-2.379 15.5-1.625 4.972 2.308 7.342 5.267 10 10 .38 2.75.549 5.094.518 7.834l.021 2.309-.008 7.521.012 5.269-.021 11.04.014 14.06-.001 10.887.01 5.178c.071 16.749-3.168 29.052-14.858 41.651-10.551 9.985-22.363 12.711-36.502 12.638l-3.812.016-10.398.003c-3.748-.005-7.496.008-11.244.018l-21.998.013c-5.963-.004-11.925-.003-17.888.003l-2.576.002-5.181.005c-16.18.014-32.361.008-48.541-.003-14.787-.01-29.573.003-44.36.027l-45.604.027c-8.527-.003-17.054-.001-25.581.016a4918 4918 0 0 1-21.777-.002 1721.85 1721.85 0 0 0-11.099.005 1420.57 1420.57 0 0 1-12.059-.016l-3.505.029c-14.215-.128-24.988-5.263-35.314-14.843-11.603-12.26-12.72-25.886-12.684-41.953l-.016-5.295.003-11.044-.038-14.129-.012-10.912-.018-5.21.013-7.278-.029-2.154C63.543 314.69 64.89 311.889 68 308c5.271-5.008 11.108-4.928 18-4zM262 80c4.966 2.306 7.4 5.234 10 10 .556 3.12.524 6.177.481 9.339l.01 2.825-.037 9.355.002 6.712-.05 18.215-.032 19.038-.072 31.953-.082 32.907-.003 2.05-.015 10.181L272 317l2.821-2.217 3.75-2.947 1.849-1.453 12.456-9.758 15.188-12.187 15.25-12.187 3.113-2.422c5.098-3.621 10.53-3.443 16.574-2.828 4.884 2.309 7.52 5.223 10 10 1.236 5.107 1.433 9.08-.687 13.945-5.021 7.86-14.224 13.424-21.539 19.102-3.973 3.092-7.875 6.268-11.773 9.453l-16.711 13.336L289 347.5l-15.687 12.625-1.709 1.361c-8.819 6.943-8.819 6.943-15.541 6.951l-3.027.059c-6.514-1.065-11.562-6.452-16.535-10.559L221 345.5l-17.039-13.664L191 321.5l-15.562-12.375-2.021-1.623c-11.917-9.662-11.917-9.662-12.752-16.088-.084-5.984.08-9.822 4.336-14.414 4.278-3.597 8.394-5.262 14-5 6.57 1.917 10.827 4.911 15.938 9.375l4.496 3.805 2.296 1.94c3.507 2.904 7.132 5.643 10.77 8.38 6.871 5.183 13.543 10.575 20.145 16.096l2.039 1.701 1.799 1.511c1.523 1.279 1.523 1.279 3.518 2.192l-.011-3.528-.193-82.921-.015-10.206-.003-2.052-.086-32.899-.068-33.758-.047-18.961-.03-17.842-.024-6.552-.004-8.94-.035-2.624c.054-5.395.956-8.422 4.516-12.716 5.271-5.008 11.108-4.928 18-4z"/></svg>