<svg version="1.1" xmlns="http://www.w3.org/2000/svg" width="512px" height="512px" transform="rotate(0) scale(1, 1)">
<path d="M0 0 C80.52 0 161.04 0 244 0 C244 120.45 244 240.9 244 365 C163.48 365 82.96 365 0 365 C0 244.55 0 124.1 0 0 Z " fill="#ffffff" transform="translate(134,74)"/>
<path d="M0 0 C132.66 0 265.32 0 402 0 C402 168.96 402 337.92 402 512 C269.34 512 136.68 512 0 512 C0 343.04 0 174.08 0 0 Z M38 38 C38 181.88 38 325.76 38 474 C145.58 474 253.16 474 364 474 C364 330.12 364 186.24 364 38 C256.42 38 148.84 38 38 38 Z " fill="#ffffff" transform="translate(55,0)"/>
</svg>