<?xml version="1.0" encoding="UTF-8"?>
<svg version="1.1" xmlns="http://www.w3.org/2000/svg" width="512" height="512">
<path d="M0 0 C2.9140625 1.58203125 2.9140625 1.58203125 5.625 3.8125 C6.38067261 4.41928589 6.38067261 4.41928589 7.15161133 5.03833008 C8.22806541 5.90381169 9.29835938 6.77700332 10.36279297 7.65722656 C11.98264676 8.98576755 13.62649856 10.27502549 15.28515625 11.5546875 C24.0445299 18.31989238 32.56908078 25.36781109 41.09326172 32.42529297 C43.63559075 34.52491169 46.19244908 36.60646512 48.75 38.6875 C53.26559242 42.37523381 57.71743759 46.13361357 62.15844727 49.91040039 C65.63299724 52.86017814 69.14484644 55.75689965 72.6875 58.625 C77.08226641 62.19932521 81.28703483 65.93857678 85.47265625 69.75390625 C88.06962393 72.06187598 90.73404013 74.25555863 93.4375 76.4375 C98.27305917 80.35102458 102.87987048 84.46503599 107.4609375 88.671875 C111.91178876 92.75296323 116.4671332 96.70675531 121.078125 100.60546875 C128.16152445 106.60908788 135.04938433 112.76934751 141.81030273 119.13452148 C145.45031336 122.56066657 149.13308231 125.91021868 152.921875 129.171875 C156.37056172 132.20568212 159.72326899 135.34356575 163.09130859 138.46630859 C167.06908993 142.15121906 171.09545612 145.77629534 175.14453125 149.3828125 C177.46914156 151.51344028 179.74616456 153.6747157 182.01171875 155.8671875 C182.7397168 156.56682617 183.46771484 157.26646484 184.21777344 157.98730469 C185.65169852 159.36823826 187.07867201 160.75644347 188.49707031 162.15332031 C192.81698622 166.32739648 192.81698622 166.32739648 197.95629883 169.37304688 C201.32496888 170.94833401 203.51024291 172.21890302 206 175 C207.51332853 181.42746862 207.11907612 187.69281061 206.8125 194.25 C206.76022329 196.20862713 206.71247199 198.16737959 206.66894531 200.1262207 C206.53820793 205.35390259 206.33713074 210.57674183 206.12286377 215.80157471 C205.96163206 219.99880532 205.84836429 224.19666813 205.73661804 228.39546204 C205.12170115 251.24759092 203.86318373 274.02841845 202 296.8125 C201.91641235 297.8383017 201.83282471 298.86410339 201.7467041 299.92098999 C199.50952986 326.97849113 195.91283748 350.25794162 177 371 C176.32582031 371.76699219 175.65164063 372.53398437 174.95703125 373.32421875 C156.38087652 393.29445638 131.86031606 398.96879698 105.68896484 401.01074219 C102.60777199 401.25134529 99.5286012 401.51075988 96.44921875 401.7734375 C94.45842278 401.93858187 92.46753981 402.10268152 90.4765625 402.265625 C89.57217438 402.3405719 88.66778625 402.4155188 87.73599243 402.49273682 C81.81265464 402.95083483 75.94009084 403.08430184 70 403 C70.03029297 402.28126709 70.06058594 401.56253418 70.09179688 400.82202148 C70.97830853 378.46999405 71.11316763 356.11856159 71.12338257 333.75212479 C71.12496985 331.4806497 71.12850748 329.20918551 71.13256836 326.93771362 C71.15875703 310.33863502 71.0188521 293.75332204 70.5546875 277.16015625 C70.52556463 276.08350614 70.52556463 276.08350614 70.49585342 274.98510551 C70.45090515 247.72090387 70.45090515 247.72090387 56.9296875 225.02734375 C35.08804693 207.10502196 -4.49433126 212.09126492 -30.875 213.8125 C-32.03306152 213.88251221 -33.19112305 213.95252441 -34.38427734 214.0246582 C-47.1397938 214.95484455 -58.76147637 218.12711141 -67.8125 227.6875 C-79.14985798 241.5978754 -78.09791957 259.09937148 -78.5546875 276.06640625 C-78.57562344 276.81669161 -78.59655937 277.56697697 -78.61812973 278.33999825 C-79.07864942 295.10565845 -79.15807524 311.86661494 -79.12857056 328.63766479 C-79.12493509 330.97931033 -79.1233678 333.32094962 -79.12231445 335.66259766 C-79.10976212 358.11851982 -78.95270076 380.56085651 -78 403 C-90.52627342 402.63673807 -103.00508968 401.9416699 -115.48486328 400.81265259 C-116.84870111 400.68947047 -118.21279441 400.56907838 -119.57714844 400.45175171 C-144.65870298 398.27375931 -165.06158322 390.90796106 -183 373 C-183.76957031 372.24203125 -184.53914063 371.4840625 -185.33203125 370.703125 C-198.95261294 356.50245039 -206.30554153 338.06175649 -208 318.65625 C-208.12093269 317.3449411 -208.12093269 317.3449411 -208.24430847 316.00714111 C-208.50314462 313.17200236 -208.7523699 310.33613808 -209 307.5 C-209.08682037 306.52325317 -209.17364075 305.54650635 -209.26309204 304.54016113 C-211.58767699 278.33827549 -213.348863 252.11092973 -213.84333801 225.80302429 C-213.92511437 221.67427476 -214.05031195 217.55012884 -214.21582031 213.42382812 C-214.41601732 208.42264474 -214.55886608 203.4222938 -214.6696167 198.41836548 C-214.72281629 196.44555734 -214.79517081 194.47316433 -214.88751221 192.50180054 C-215.60102788 176.82597121 -215.60102788 176.82597121 -211.6628418 172.33447266 C-208.74609375 170.50390625 -208.74609375 170.50390625 -205.83764648 169.25219727 C-202.59681613 167.82208293 -200.73583605 166.05579688 -198.3125 163.5 C-195.59604065 160.64311761 -192.87033043 157.93914083 -189.875 155.375 C-187.30736308 153.17271853 -184.87042357 150.91332717 -182.5 148.5 C-179.57613012 145.53023979 -176.51418446 142.79493621 -173.359375 140.07421875 C-170.40135527 137.47370803 -167.5131049 134.80265774 -164.625 132.125 C-159.90982158 127.75605756 -155.16733542 123.42164633 -150.37890625 119.1328125 C-148.7987351 117.71610733 -147.22316315 116.29425471 -145.65234375 114.8671875 C-140.29259426 110.00419528 -134.83133188 105.27836501 -129.32006836 100.58935547 C-125.40546663 97.24429512 -121.58420106 93.81744028 -117.8125 90.3125 C-113.24293751 86.0686885 -108.50542582 82.09032853 -103.6484375 78.1796875 C-101.02724881 76.02242601 -98.50845719 73.78689 -96 71.5 C-91.7992051 67.67510041 -87.45618531 64.07883855 -83.0390625 60.5078125 C-79.52942849 57.61168778 -76.10964618 54.62337676 -72.6875 51.625 C-67.29684521 46.91219559 -61.79102297 42.40637098 -56.12963867 38.02392578 C-52.16543939 34.94581532 -48.31144824 31.76489222 -44.5 28.5 C-38.42880933 23.31306148 -32.21472986 18.34092638 -25.88720703 13.47070312 C-23.85162012 11.88436735 -21.8463083 10.26360302 -19.83984375 8.640625 C-18.43548083 7.53050955 -17.03054437 6.42111922 -15.625 5.3125 C-14.98328857 4.78277588 -14.34157715 4.25305176 -13.68041992 3.70727539 C-8.95002137 0.03323278 -5.98930588 -0.88149058 0 0 Z " fill="#39AEF6" transform="translate(260,96)"/>
<path d="M0 0 C0.886875 0.69738281 1.77375 1.39476563 2.6875 2.11328125 C4.2125649 3.26700873 5.73762982 4.42073619 7.26269531 5.57446289 C13.5069746 10.32385944 19.59742408 15.25737132 25.67016602 20.22314453 C30.00752458 23.76560662 34.3900262 27.24044451 38.8125 30.67578125 C44.22711069 34.89201345 49.4631509 39.28462824 54.65112305 43.77587891 C58.0981554 46.7589528 61.58070189 49.68283589 65.125 52.55078125 C70.80797155 57.16715404 76.32356268 61.96514854 81.84375 66.7734375 C85.54237799 69.9938269 89.26909553 73.18040769 93 76.36328125 C97.01109256 79.7875473 100.97405706 83.250554 104.875 86.80078125 C108.12420399 89.75460306 111.44624685 92.55777873 114.875 95.30078125 C120.94070218 100.20331611 126.56914977 105.53586162 132.2421875 110.8828125 C135.370604 113.82863988 138.56223562 116.68590272 141.81640625 119.4921875 C149.40714603 126.0687157 156.76437098 132.91597611 164.15966797 139.71044922 C166.15193586 141.53971916 168.14688434 143.3660514 170.1418457 145.19238281 C172.13822452 147.02083578 174.13263081 148.85143342 176.12695312 150.68212891 C177.1952012 151.66180197 178.264251 152.64060134 179.33398438 153.61865234 C182.63431289 156.63628722 185.9233563 159.66521994 189.19189453 162.71728516 C190.59167328 164.02383672 191.99681645 165.32463445 193.40234375 166.625 C200.07988413 172.99950775 202.78518044 177.65576985 203.125 187.05078125 C202.93318227 194.29381881 201.82436007 198.81925074 196.81640625 204.078125 C191.13801653 209.32714688 186.71649273 211.40182598 178.875 211.48828125 C177.71355469 211.51664063 176.55210937 211.545 175.35546875 211.57421875 C167.06128114 210.53192467 161.78612589 205.80696778 156 200.11328125 C154.59551128 198.76384482 153.19055716 197.41489263 151.78515625 196.06640625 C151.09437988 195.39802734 150.40360352 194.72964844 149.69189453 194.04101562 C146.8128975 191.27212883 143.88012505 188.56420028 140.9375 185.86328125 C140.41140137 185.37867432 139.88530273 184.89406738 139.34326172 184.39477539 C134.79219934 180.20308173 130.23195362 176.02136578 125.66796875 171.84375 C123.62606672 169.97442206 121.58736503 168.10168284 119.55078125 166.2265625 C114.66275059 161.7290861 109.75674766 157.26194296 104.734375 152.9140625 C102.24675274 150.7255246 99.81396548 148.48088934 97.375 146.23828125 C93.77358829 142.94895887 90.11442725 139.79310489 86.3125 136.73828125 C82.109356 133.34942156 78.12546823 129.80088859 74.1875 126.11328125 C69.38203707 121.61369131 64.4358902 117.38224878 59.30078125 113.2578125 C56.68902377 111.11453169 54.18384698 108.88947795 51.6875 106.61328125 C47.46385723 102.7681725 43.1005207 99.14569954 38.66015625 95.5546875 C35.34999043 92.83608877 32.11244833 90.04254672 28.875 87.23828125 C23.65617271 82.7280247 18.31776688 78.41489473 12.86791992 74.18798828 C8.88917547 71.09062887 5.0170042 67.89289004 1.1875 64.61328125 C-4.88766607 59.42308032 -11.10442141 54.44248779 -17.43408203 49.56640625 C-18.73630928 48.55901652 -20.03385922 47.54556263 -21.32763672 46.52734375 C-34.48685562 36.17092389 -44.10646099 30.50738428 -61.3125 32.11328125 C-71.69912198 33.8724293 -80.36654753 42.70271946 -88.3125 49.11328125 C-89.02873535 49.68916992 -89.7449707 50.26505859 -90.48291016 50.85839844 C-94.53496464 54.12196008 -98.56670931 57.40960352 -102.59082031 60.70751953 C-104.92148049 62.61051745 -107.27149508 64.48864405 -109.625 66.36328125 C-117.68212603 72.79555353 -125.62557189 79.35380364 -133.48022461 86.03100586 C-136.85043016 88.89137384 -140.25249462 91.7056211 -143.6875 94.48828125 C-149.38764776 99.12947558 -154.92670627 103.94602018 -160.46875 108.7734375 C-164.16737799 111.9938269 -167.89409553 115.18040769 -171.625 118.36328125 C-175.63609256 121.7875473 -179.59905706 125.250554 -183.5 128.80078125 C-186.91071516 131.90296133 -190.4098376 134.84566399 -194 137.73828125 C-197.78002288 140.79627729 -201.26998183 143.95086911 -204.6484375 147.44140625 C-207.03658382 149.84076453 -209.59079375 152.02715524 -212.15234375 154.23828125 C-215.39206836 157.05033878 -218.5694181 159.93040825 -221.75390625 162.8046875 C-223.40502333 164.29447405 -225.05850144 165.78165002 -226.71484375 167.265625 C-232.53325187 172.48050294 -238.28397362 177.76483769 -244.01953125 183.0703125 C-248.10817014 186.85155299 -252.21201823 190.61586797 -256.328125 194.3671875 C-258.40518845 196.26658931 -260.45140937 198.19412884 -262.484375 200.140625 C-263.2731604 200.88687134 -263.2731604 200.88687134 -264.07788086 201.64819336 C-265.53305572 203.02621203 -266.97971708 204.41320503 -268.42578125 205.80078125 C-275.80812682 211.71464942 -283.20839082 212.03001447 -292.3125 211.11328125 C-298.97407627 209.41586037 -303.49219559 204.65788522 -307.3125 199.11328125 C-309.31471145 195.1355545 -309.63863308 191.73301068 -309.6875 187.30078125 C-309.71585937 186.13933594 -309.74421875 184.97789062 -309.7734375 183.78125 C-308.68449807 175.11587606 -303.67550045 169.90812648 -297.5625 164.05078125 C-296.88445312 163.38240234 -296.20640625 162.71402344 -295.5078125 162.02539062 C-291.55695998 158.16091605 -287.48244717 154.47676262 -283.30371094 150.86157227 C-279.89192024 147.86600665 -276.60827643 144.73525697 -273.3125 141.61328125 C-268.69390739 137.23824723 -264.02289288 132.95398732 -259.21875 128.78320312 C-256.36419007 126.28253843 -253.58836243 123.70057189 -250.8125 121.11328125 C-246.68137891 117.28109555 -242.52206509 113.4968856 -238.2578125 109.8125 C-235.9758471 107.81921697 -233.74021426 105.77835098 -231.5 103.73828125 C-228.08020672 100.64691324 -224.59291476 97.68869093 -221 94.80078125 C-216.77853625 91.38907641 -212.77155933 87.82030497 -208.8125 84.11328125 C-204.0070133 79.61371413 -199.06089283 75.38225089 -193.92578125 71.2578125 C-191.31402377 69.11453169 -188.80884698 66.88947795 -186.3125 64.61328125 C-182.06598314 60.7479478 -177.6823689 57.09929879 -173.21875 53.48828125 C-170.10857459 50.94663253 -167.05344752 48.34738208 -164 45.73828125 C-158.95122973 41.43438687 -153.78461624 37.31045723 -148.54589844 33.2409668 C-144.52793234 30.10603956 -140.61884213 26.86743197 -136.75 23.55078125 C-131.56875259 19.11973854 -126.2581865 14.89394256 -120.81640625 10.78515625 C-118.26779898 8.85853487 -115.76658406 6.88159451 -113.27734375 4.87890625 C-79.46333349 -22.09049387 -35.43354216 -27.15516996 0 0 Z " fill="#37ACF5" transform="translate(309.3125,37.88671875)"/>
<path d="M0 0 C1.16007568 0.07001221 2.32015137 0.14002441 3.51538086 0.2121582 C4.60471924 0.29296631 5.69405762 0.37377441 6.81640625 0.45703125 C7.7813501 0.52510986 8.74629395 0.59318848 9.74047852 0.66333008 C13.86053039 1.46406796 16.58932396 3.43356574 19.6875 6.1875 C24.34856919 14.17790433 22.74224769 26.45372677 22.9921875 35.4921875 C23.01312344 36.2208691 23.03405937 36.9495507 23.05562973 37.70031357 C23.5238476 54.2878019 23.59144179 70.87221681 23.56787109 87.46533203 C23.56216493 91.50916898 23.56559006 95.55294029 23.57129288 99.59677505 C23.59007224 115.14694756 23.52416327 130.69508668 23.11056137 146.24053574 C23.07365646 147.64519739 23.03967732 149.04993932 23.00879288 150.45474625 C22.96484444 152.3787746 22.906382 154.30245516 22.84716797 156.22607422 C22.81654266 157.30992401 22.78591736 158.3937738 22.75436401 159.51046753 C22.4375 162.1875 22.4375 162.1875 20.4375 165.1875 C17.48851097 165.48951685 14.74876672 165.59677453 11.796875 165.57568359 C10.90246704 165.58094055 10.00805908 165.58619751 9.08654785 165.59161377 C6.12002269 165.60485435 3.15403094 165.59606136 0.1875 165.5859375 C-1.86751407 165.58795707 -3.92252745 165.59086752 -5.97753906 165.59463501 C-10.28848074 165.59906387 -14.59923618 165.59260923 -18.91015625 165.57861328 C-24.44556501 165.56152115 -29.98053744 165.57135933 -35.51593018 165.58933067 C-39.76061308 165.60015333 -44.00519195 165.59672915 -48.24987793 165.5889473 C-50.29130098 165.58694108 -52.33273336 165.58941924 -54.37414551 165.59638596 C-57.22364446 165.60397549 -60.07242945 165.59243145 -62.921875 165.57568359 C-63.7718103 165.58175629 -64.62174561 165.58782898 -65.49743652 165.59408569 C-67.84277344 165.56845093 -67.84277344 165.56845093 -71.5625 165.1875 C-73.8576439 161.74478415 -73.85685434 160.31339471 -73.97216797 156.24584961 C-74.01028595 155.01048965 -74.04840393 153.7751297 -74.087677 152.50233459 C-74.11894938 151.13568463 -74.14959954 149.76902031 -74.1796875 148.40234375 C-74.21737018 146.96963402 -74.25528842 145.53693047 -74.29342651 144.10423279 C-74.68803011 128.30140581 -74.71480825 112.4950756 -74.69287109 96.68823242 C-74.68717926 92.57709875 -74.69056941 88.46602992 -74.69630814 84.35489845 C-74.71580713 67.88531776 -74.60643641 51.4279033 -74.1171875 34.96484375 C-74.09777225 34.28738161 -74.07835701 33.60991947 -74.05835342 32.91192818 C-73.32869979 8.16023579 -73.32869979 8.16023579 -68.58984375 3.48828125 C-64.29041527 0.72968841 -59.55353114 0.55882398 -54.5625 0.1875 C-53.91764648 0.13400391 -53.27279297 0.08050781 -52.60839844 0.02539062 C-35.08366826 -1.39125423 -17.5303927 -1.16211263 0 0 Z " fill="#3CB1F9" transform="translate(281.5625,335.8125)"/>
<path d="M0 0 C0.83439606 -0.0033284 1.66879211 -0.0066568 2.5284729 -0.01008606 C4.28492689 -0.01512385 6.04139035 -0.01749536 7.79785156 -0.01733398 C10.46175145 -0.0195191 13.12523574 -0.03770463 15.7890625 -0.05664062 C17.50520693 -0.05957563 19.22135331 -0.06155971 20.9375 -0.0625 C21.72216644 -0.06968552 22.50683289 -0.07687103 23.3152771 -0.08427429 C29.51755153 -0.05908459 36.43052221 0.09879116 41.4765625 4.0078125 C42.0128125 4.70003906 42.5490625 5.39226563 43.1015625 6.10546875 C43.6584375 6.79511719 44.2153125 7.48476563 44.7890625 8.1953125 C47.74282135 12.63474172 47.44440347 17.40110292 47.66015625 22.546875 C47.70240829 23.54312393 47.74466034 24.53937286 47.78819275 25.56581116 C48.34686929 40.58972593 48.21226338 55.6285699 48.17022705 70.66015625 C48.15981331 74.79101028 48.15539164 78.92187088 48.15039062 83.05273438 C48.13981351 91.09116326 48.12285278 99.12956111 48.1015625 107.16796875 C44.46754673 105.45674311 41.97519147 103.36862988 39.0390625 100.60546875 C35.32677659 97.15334304 31.55340112 93.84871691 27.6015625 90.66796875 C23.81695916 87.61448196 20.17948713 84.46128574 16.6015625 81.16796875 C12.2352044 77.15313948 7.73619843 73.3761192 3.12109375 69.65234375 C-0.46497499 66.70183958 -3.96349762 63.65998994 -7.4609375 60.60546875 C-12.5590088 56.15504776 -17.71182114 51.8265112 -23.04296875 47.65625 C-26.84458605 44.60695275 -26.84458605 44.60695275 -27.14135742 42.18774414 C-27.13724854 41.38844482 -27.13313965 40.58914551 -27.12890625 39.765625 C-27.12793945 38.8802002 -27.12697266 37.99477539 -27.12597656 37.08251953 C-27.11276367 36.14134277 -27.09955078 35.20016602 -27.0859375 34.23046875 C-27.0765918 33.27640137 -27.06724609 32.32233398 -27.05761719 31.33935547 C-26.79572193 11.65356164 -26.79572193 11.65356164 -21.8984375 5.16796875 C-15.41374574 -0.30799318 -8.07509384 0.01139341 0 0 Z " fill="#55C3FF" transform="translate(399.8984375,10.83203125)"/>
</svg>
