<svg xmlns="http://www.w3.org/2000/svg" width="512" height="512" xmlns:v="https://vecta.io/nano"><path d="M140.229-.533l8.409-.026 20.339-.013 16.558-.001 2.394-.003 4.818-.006 45.029.009 41.038-.029 42.313-.031 4.802.003 2.386.001 16.498-.022 20.165.005L375.23-.65C414.32-.819 446.33 10.04 475 37l1.789 1.594C495.577 56.046 506.089 81.347 511 106l.527 2.463c.672 5.017.625 9.981.627 15.038l.013 3.53.022 9.677.028 10.449.052 25.234.012 7.14.06 44.422.009 10.283.002 2.581.088 41.293.071 42.488.048 23.817.028 20.308.022 10.331c.24 39.169-10.592 71.214-37.609 99.945l-1.594 1.789C459.276 492.001 438.809 502.575 419 508l-1.931.537c-15.032 4.031-29.824 4.038-45.298 3.997l-8.409.026-20.339.013a7615.76 7615.76 0 0 0-16.558.001l-2.394.003-4.818.006c-15.01.017-30.019.008-45.029-.009-13.679-.015-27.359 0-41.038.029l-42.313.031-4.802-.003-2.386-.001a5397.76 5397.76 0 0 0-16.498.022 3388.57 3388.57 0 0 1-20.165-.005 1291.44 1291.44 0 0 0-10.253.004c-39.09.17-71.1-10.69-99.77-37.65l-1.789-1.594C19.998 459.274 9.428 438.81 4 419l-.537-1.929c-3.875-14.415-4.038-28.554-3.971-43.405l-.01-10.47.009-20.427.01-23.848.033-42.577.021-41.209.001-45.015.005-4.808.002-2.389-.001-16.581.021-20.227.007-10.298C-.454 109.567-.454 109.567 3 97l.582-2.341c8.241-31.866 29.533-60.1 57.704-77.032C71.466 11.767 81.655 7.107 93 4l1.931-.537c15.032-4.031 29.824-4.038 45.298-3.997zM71 65l-2.309 2.02c-15.517 14.495-24.983 36.317-25.785 57.452l-.047 8.551-.009 3.301-.012 10.917-.015 7.842-.024 21.286-.012 13.314-.026 36.923v2.384l-.001 2.39-.001 4.793-.001 2.402-.045 38.472-.037 39.58-.025 22.19-.012 18.905-.011 9.624C42.527 395.022 46.042 419.449 65 441l2.02 2.309c14.098 15.092 35.746 24.976 56.373 25.785l8.592.047 3.325.009 11.017.012 7.905.015 21.472.024 13.427.012 37.227.026h2.404l2.41.001 4.834.001 2.422.001 38.804.045 39.908.037 22.379.025 19.067.012 9.709.011c27.4.1 51.376-3.609 72.704-22.371l2.309-2.02c15.517-14.495 24.983-36.317 25.785-57.452l.047-8.551.009-3.301.012-10.917.015-7.842.024-21.286.012-13.314.026-36.923v-2.384l.001-2.39.001-4.793.001-2.402.045-38.472.037-39.58.025-22.19.012-18.905.011-9.624C469.473 116.978 465.958 92.551 447 71l-2.02-2.309c-14.098-15.092-35.746-24.976-56.373-25.785l-8.592-.047-3.325-.009-11.017-.012-7.905-.015-21.472-.024-13.427-.012-37.227-.026h-2.404l-2.41-.001-4.834-.001-2.422-.001-38.804-.045-39.908-.037-22.379-.025-19.067-.012a1917.87 1917.87 0 0 1-9.709-.011C116.304 42.529 92.328 46.238 71 65zm217 66l2.045.554C320.318 139.883 349.013 159.597 365 187l1.241 2.12C372.67 200.301 377.589 211.562 381 224l1.027 3.559c4.362 18.355 4.189 42.344-1.027 60.441l-.554 2.045c-9.037 32.847-30.487 60.553-59.915 77.576C310.094 373.459 299.526 377.839 288 381l-3.559 1.027C266.087 386.39 242.098 386.216 224 381l-2.045-.554C191.682 372.117 162.987 352.403 147 325l-1.241-2.12C139.33 311.699 134.411 300.438 131 288l-1.027-3.559C125.61 266.087 125.784 242.098 131 224l.554-2.045C139.883 191.682 159.597 162.987 187 147l2.12-1.241C200.301 139.33 211.562 134.411 224 131l3.559-1.027c18.355-4.362 42.344-4.189 60.441 1.027zm-89 62l-2.309 2.02c-15.757 14.72-24.541 36.224-25.848 57.527-.727 22.408 7.408 43.688 22.156 60.453l2.02 2.309c14.569 15.596 36.043 24.547 57.164 25.895 22.731.327 43.665-7.115 60.816-22.203l2.309-2.02c15.757-14.72 24.541-36.224 25.848-57.527.727-22.408-7.408-43.688-22.156-60.453l-2.02-2.309c-14.569-15.596-36.043-24.547-57.164-25.895-22.731-.327-43.665 7.115-60.816 22.203zM408.98 87.746L411 89l2.113 1.285C420.245 95.107 424.719 101.722 427 110c1.229 10.683-.583 19.844-6.895 28.641-2.055 2.302-3.961 3.877-6.543 5.547l-2.246 1.48c-7.98 4.589-17.208 5.385-26.129 3.27-9.004-2.883-14.446-8.81-19.875-16.25-3.865-7.914-3.933-16.116-2.312-24.687 1.308-3.597 2.968-6.763 5-10l1.688-2.75c10.192-9.916 26.235-14.457 39.293-7.504z"/></svg>