<?xml version="1.0" encoding="UTF-8"?>
<svg version="1.1" xmlns="http://www.w3.org/2000/svg" width="512" height="512">
<path d="M0 0 C0.65677734 -0.03287109 1.31355469 -0.06574219 1.99023438 -0.09960938 C11.49447228 -0.2006206 19.60799948 6.05241031 27.1484375 11.25 C27.96841217 11.80731812 28.78838684 12.36463623 29.63320923 12.93884277 C31.39879421 14.13940173 33.16261239 15.34256244 34.92480469 16.5480957 C39.71922522 19.82699465 44.52790111 23.08486347 49.3359375 26.34375 C50.32881775 27.01724487 51.321698 27.69073975 52.34466553 28.38464355 C62.603606 35.33280742 72.95266825 42.14110907 83.3125 48.9375 C100.09857976 59.95776052 116.78714998 71.11507249 133.41601562 82.37109375 C134.65878769 83.21185959 134.65878769 83.21185959 135.92666626 84.0696106 C137.56660872 85.1801494 139.20543929 86.29233206 140.84310913 87.40621948 C145.17978269 90.34945125 149.54216988 93.24240406 153.94970703 96.07861328 C154.88802872 96.68794205 155.8263504 97.29727081 156.79310608 97.92506409 C158.57618607 99.08081731 160.36594813 100.22636064 162.1638031 101.35899353 C170.006534 106.4648182 177.42945998 112.77360071 179.91015625 122.12890625 C181.37203415 130.51696291 180.24028464 137.82952747 176.3125 145.4375 C172.68129198 150.30550577 168.88231471 153.41528843 163.8046875 156.69140625 C163.06391464 157.18058533 162.32314178 157.6697644 161.55992126 158.17376709 C159.95284275 159.23358983 158.34296715 160.28918081 156.73062134 161.3409729 C153.2271973 163.62646174 149.7372602 165.93219531 146.24635315 168.23674011 C144.40249973 169.45376401 142.5579545 170.66974038 140.7127533 171.88471985 C131.68676061 177.83243197 122.73346656 183.88529937 113.78482056 189.94848633 C96.26630321 201.81389147 78.64774777 213.52052225 60.96362305 225.13745117 C59.16450877 226.31943475 57.36543591 227.50148138 55.56640625 228.68359375 C54.69503525 229.25615402 53.82366425 229.82871429 52.92588806 230.41862488 C47.29758479 234.12085554 41.68661352 237.84794085 36.08984375 241.59765625 C35.38343246 242.07064651 34.67702118 242.54363678 33.94920349 243.03096008 C30.71821141 245.19544296 27.4901075 247.36405329 24.26635742 249.53930664 C23.14899125 250.2893228 22.03156366 251.03924749 20.9140625 251.7890625 C19.96869629 252.42666504 19.02333008 253.06426758 18.04931641 253.72119141 C10.37559063 258.53352791 3.41070576 260.60160574 -5.640625 259.1171875 C-10.84353363 257.70723898 -15.24568038 254.99477797 -19.765625 252.13671875 C-20.4605304 251.69955032 -21.15543579 251.2623819 -21.87139893 250.81196594 C-29.94549948 245.69461676 -37.84784222 240.32353209 -45.75244141 234.94970703 C-61.6460753 224.14874143 -77.6233115 213.4828581 -93.6875 202.9375 C-108.89778225 192.94872157 -124.04219663 182.86783637 -139.125 172.6875 C-140.02387939 172.08107666 -140.92275879 171.47465332 -141.84887695 170.84985352 C-146.75409872 167.53911177 -151.65310335 164.21946667 -156.54568481 160.89007568 C-158.57855304 159.51138766 -160.61825205 158.14345276 -162.65991211 156.77783203 C-163.83335083 155.98496723 -165.00662231 155.19185484 -166.1796875 154.3984375 C-167.16694824 153.73634277 -168.15420898 153.07424805 -169.17138672 152.39208984 C-175.01189679 147.85501206 -178.41564163 141.68709269 -179.6875 134.4375 C-180.39947691 126.6834242 -179.67529237 119.82128097 -175.21606445 113.27856445 C-168.3147437 105.02600996 -159.6546665 99.69614683 -150.66625977 93.94970703 C-146.72968799 91.43264505 -142.81420282 88.88357817 -138.89727783 86.33609009 C-136.85754834 85.00965892 -134.81680735 83.68478195 -132.77508545 82.36141968 C-123.37994364 76.26489414 -114.09263089 70.01579237 -104.82528687 63.72729492 C-87.28426798 51.82533767 -69.63522322 40.09515595 -51.91772461 28.45776367 C-50.12741773 27.28177433 -48.33713401 26.10574972 -46.546875 24.9296875 C-45.68921036 24.36633194 -44.83154572 23.80297638 -43.94789124 23.22254944 C-38.87042105 19.88387784 -33.80850393 16.52349551 -28.765625 13.1328125 C-27.89963936 12.55123131 -27.89963936 12.55123131 -27.01615906 11.957901 C-24.47947256 10.253246 -21.94644162 8.54356983 -19.41918945 6.82495117 C-18.16174927 5.97767456 -18.16174927 5.97767456 -16.87890625 5.11328125 C-16.17967041 4.63802002 -15.48043457 4.16275879 -14.76000977 3.6730957 C-9.91281411 0.78327862 -5.57902827 0.04786583 0 0 Z " fill="#2A8CFF" transform="translate(255.6875,31.5625)"/>
<path d="M0 0 C3.82579375 2.25622831 7.55401691 4.62401806 11.25268555 7.08300781 C12.105345 7.64502396 12.95800446 8.2070401 13.83650208 8.78608704 C16.65285286 10.64467435 19.46457747 12.51012972 22.27612305 14.37597656 C24.25005057 15.68132201 26.224092 16.98649523 28.19824219 18.29150391 C41.88004368 27.34744802 55.49526213 36.50050609 69.08862305 45.68847656 C75.94056486 50.31677749 82.79428774 54.94242819 89.65112305 59.56347656 C90.40554687 60.07213257 91.1599707 60.58078857 91.93725586 61.1048584 C96.03729215 63.86712876 100.1444163 66.61813841 104.26443481 69.3505249 C105.4508464 70.13940177 106.63496366 70.93174381 107.81637573 71.72808838 C119.46194162 79.57121727 131.2671261 85.93524739 145.65112305 84.56347656 C161.48443759 81.26982968 174.29929568 71.23528578 187.41952515 62.2984314 C192.16327389 59.06839581 196.91653157 55.85243565 201.6706543 52.63769531 C202.6534285 51.97306778 203.6362027 51.30844025 204.64875793 50.62367249 C217.16475969 42.17284944 229.78081248 33.8735839 242.41308594 25.59790039 C250.1814893 20.50580234 257.9376599 15.4083913 265.57299805 10.11816406 C266.71197576 9.33456988 267.85104959 8.55111538 268.99023438 7.76782227 C270.97756951 6.39402263 272.95500438 5.00572374 274.91943359 3.59936523 C275.75772705 3.02162354 276.59602051 2.44388184 277.4597168 1.84863281 C278.15895264 1.35242432 278.85818848 0.85621582 279.57861328 0.3449707 C281.65112305 -0.43652344 281.65112305 -0.43652344 284.05395508 0.19360352 C288.71109437 2.6500059 293.02191976 5.59136247 297.37988281 8.53808594 C299.07180551 9.67715434 300.77592446 10.79609756 302.48120117 11.91503906 C311.08088723 17.7128096 318.38008015 24.03409588 320.65112305 34.56347656 C321.66289221 42.86997648 320.46515911 50.6022948 315.27693176 57.35098267 C310.97471239 62.47297315 306.48312035 66.09852189 300.85424805 69.66894531 C299.58018349 70.49875916 299.58018349 70.49875916 298.28038025 71.34533691 C296.45007757 72.5358133 294.61629662 73.72095606 292.77938843 74.9012146 C287.80552928 78.09774245 282.85773397 81.33431183 277.9050293 84.56347656 C276.88464066 85.22707687 275.86425201 85.89067719 274.8129425 86.5743866 C264.4081422 93.34883495 254.11734077 100.28732078 243.83862305 107.25097656 C240.28069255 109.65820815 236.72193825 112.06421923 233.1628418 114.46972656 C232.29120392 115.05894897 231.41956604 115.64817139 230.52151489 116.25524902 C219.47885303 123.71446776 208.39075439 131.10566353 197.29174805 138.48071289 C195.72010346 139.52518272 194.14848839 140.56969697 192.5769043 141.61425781 C191.8180191 142.11858841 191.05913391 142.62291901 190.2772522 143.14253235 C185.35652805 146.4168593 180.45748431 149.72159472 175.5690918 153.04394531 C173.73080501 154.28826735 171.89200592 155.5318278 170.05297852 156.77505493 C168.41183236 157.88879416 166.77740307 159.01241173 165.14331055 160.13647461 C157.70727976 165.1585973 149.92749213 170.16888985 140.65112305 170.06347656 C139.74362305 170.07378906 138.83612305 170.08410156 137.90112305 170.09472656 C128.9019373 168.62370582 121.65250925 163.92189925 114.27612305 158.81347656 C112.53919496 157.63110985 110.80221534 156.44881885 109.06518555 155.26660156 C108.17669922 154.65727783 107.28821289 154.0479541 106.37280273 153.42016602 C103.66322747 151.57173402 100.93783472 149.74963321 98.20581055 147.93457031 C92.99326087 144.4675954 87.80370007 140.96776492 82.61987305 137.45800781 C64.76342328 125.37378588 46.8745273 113.34610186 28.85482788 101.50628662 C20.78120415 96.20070901 12.71575594 90.88270655 4.65112305 85.56347656 C3.80138916 85.00347961 2.95165527 84.44348267 2.07617188 83.86651611 C-2.77444574 80.66818522 -7.61662534 77.45778477 -12.44650269 74.22821045 C-13.89847315 73.25980335 -15.35308304 72.29533943 -16.81057739 71.33526611 C-35.96047124 58.71145859 -35.96047124 58.71145859 -38.91137695 47.97753906 C-40.43213881 39.5861924 -39.72035096 31.99732007 -35.34887695 24.56347656 C-30.58208758 17.93529236 -24.34996702 13.69399178 -17.63525391 9.23510742 C-15.77299568 7.99204452 -13.93345081 6.7194217 -12.09301758 5.44433594 C-10.90742372 4.64754334 -9.72061571 3.85255372 -8.5324707 3.05957031 C-7.46569092 2.33954834 -6.39891113 1.61952637 -5.29980469 0.87768555 C-2.34887695 -0.43652344 -2.34887695 -0.43652344 0 0 Z " fill="#2A8CFF" transform="translate(115.348876953125,220.4365234375)"/>
<path d="M0 0 C1.86207581 1.02606201 1.86207581 1.02606201 3.81079102 2.31542969 C4.5543132 2.80350098 5.29783539 3.29157227 6.06388855 3.79443359 C6.86909439 4.33148926 7.67430023 4.86854492 8.50390625 5.421875 C9.35757278 5.98503418 10.21123932 6.54819336 11.09077454 7.12841797 C13.91856438 8.99648472 16.74059378 10.87305947 19.5625 12.75 C21.54749558 14.06441944 23.53268734 15.37854268 25.51806641 16.69238281 C39.01948943 25.63887388 52.45724247 34.67869043 65.875 43.75 C79.09484447 52.68626017 92.3249228 61.60601145 105.63238525 70.41149902 C107.27112808 71.4969319 108.90834289 72.58467589 110.54388428 73.67492676 C112.79829717 75.17677213 115.05841593 76.66961351 117.3203125 78.16015625 C117.96840881 78.59419266 118.61650513 79.02822906 119.28424072 79.47541809 C130.42433591 86.76653567 140.7815001 89.17047315 154 88 C164.80664755 85.72058006 174.34581515 78.99764736 183.125 72.58984375 C191.37947879 66.63338011 199.88887046 61.07744553 208.40640259 55.50698853 C227.77830009 42.83323425 247.01420369 29.96562248 266.18275452 16.98683167 C267.82046463 15.87923752 269.45937605 14.77341717 271.09959412 13.66954041 C274.88599771 11.12004612 278.65228616 8.54971464 282.38037109 5.91552734 C283.06463669 5.43947556 283.74890228 4.96342377 284.4539032 4.47294617 C285.72124116 3.59056419 286.98075387 2.69678345 288.2303009 1.78938293 C290.83508613 -0.00771149 292.46166319 -1.01927373 295.6730957 -0.90429688 C297.97244735 -0.01070769 299.7965547 0.94707967 301.8125 2.36328125 C302.49570312 2.83830078 303.17890625 3.31332031 303.8828125 3.80273438 C304.93082031 4.55006836 304.93082031 4.55006836 306 5.3125 C306.69867188 5.79912109 307.39734375 6.28574219 308.1171875 6.78710938 C317.10126813 13.08444136 323.85817667 18.70674972 326 30 C326.72319334 37.7485001 325.98336867 44.62270962 321.52856445 51.15893555 C314.6272437 59.41149004 305.9671665 64.74135317 296.97875977 70.48779297 C293.04218799 73.00485495 289.12670282 75.55392183 285.20977783 78.10140991 C283.17004834 79.42784108 281.12930735 80.75271805 279.08758545 82.07608032 C269.69244364 88.17260586 260.40513089 94.42170763 251.13778687 100.71020508 C233.59676798 112.61216233 215.94772322 124.34234405 198.23022461 135.97973633 C196.43991773 137.15572567 194.64963401 138.33175028 192.859375 139.5078125 C192.00171036 140.07116806 191.14404572 140.63452362 190.26039124 141.21495056 C185.18292105 144.55362216 180.12100393 147.91400449 175.078125 151.3046875 C174.21213936 151.88626869 174.21213936 151.88626869 173.32865906 152.479599 C170.79197256 154.184254 168.25894162 155.89393017 165.73168945 157.61254883 C164.47424927 158.45982544 164.47424927 158.45982544 163.19140625 159.32421875 C162.49217041 159.79947998 161.79293457 160.27474121 161.07250977 160.7644043 C156.22531411 163.65422138 151.89152827 164.38963417 146.3125 164.4375 C145.32733398 164.48680664 145.32733398 164.48680664 144.32226562 164.53710938 C134.81802772 164.6381206 126.70450052 158.38508969 119.1640625 153.1875 C118.34408783 152.63018188 117.52411316 152.07286377 116.67929077 151.49865723 C114.91370579 150.29809827 113.14988761 149.09493756 111.38769531 147.8894043 C106.59327478 144.61050535 101.78459889 141.35263653 96.9765625 138.09375 C95.98368225 137.42025513 94.990802 136.74676025 93.96783447 136.05285645 C83.708894 129.10469258 73.35983175 122.29639093 63 115.5 C46.21392024 104.47973948 29.52535002 93.32242751 12.89648438 82.06640625 C11.65371231 81.22564041 11.65371231 81.22564041 10.38583374 80.3678894 C8.74589128 79.2573506 7.10706071 78.14516794 5.46939087 77.03128052 C1.13271731 74.08804875 -3.22966988 71.19509594 -7.63720703 68.35888672 C-8.57552872 67.74955795 -9.5138504 67.14022919 -10.48060608 66.51243591 C-12.26368607 65.35668269 -14.05344813 64.21113936 -15.8513031 63.07850647 C-23.694034 57.9726818 -31.11695998 51.66389929 -33.59765625 42.30859375 C-35.26078124 32.7658086 -33.57895206 24.16411784 -28.015625 16.13671875 C-24.19433451 11.75482189 -19.2523128 8.74271516 -14.4375 5.5625 C-13.49197266 4.91345703 -12.54644531 4.26441406 -11.57226562 3.59570312 C-10.66025391 2.98791016 -9.74824219 2.38011719 -8.80859375 1.75390625 C-7.98157959 1.20033447 -7.15456543 0.6467627 -6.30249023 0.07641602 C-3.52606922 -1.22156301 -2.83384022 -0.96342309 0 0 Z " fill="#2A8CFF" transform="translate(110,316)"/>
</svg>
