<svg version="1.1" xmlns="http://www.w3.org/2000/svg" width="512px" height="512px" transform="rotate(0) scale(1, 1)">
<path d="M0 0 C23.71138105 20.67293968 39.23323457 46.11742617 48.05615234 76.19970703 C48.30268555 77.0341333 48.54921875 77.86855957 48.80322266 78.72827148 C52.31690743 91.22177789 53.09289069 103.48123699 53.00146484 116.37548828 C52.99772409 117.94874388 52.99488216 119.52200184 52.9928894 121.09526062 C52.98533641 125.19032484 52.96576201 129.285242 52.94348145 133.38024902 C52.92284099 137.5772096 52.9138492 141.77419446 52.90380859 145.97119141 C52.88250622 154.17242997 52.84847409 162.37355009 52.80615234 170.57470703 C53.41885986 170.56741074 54.03156738 170.56011444 54.6628418 170.55259705 C55.87266724 170.5440847 55.87266724 170.5440847 57.10693359 170.53540039 C57.90526611 170.5281041 58.70359863 170.5208078 59.52612305 170.51329041 C68.5302598 170.75583277 76.51336888 175.43924315 82.80615234 181.57470703 C91.86917349 191.41096212 94.95921642 200.98447807 94.94659424 214.10612488 C94.95105092 215.55365244 94.95105092 215.55365244 94.95559764 217.03042299 C94.96427506 220.26679142 94.96579209 223.50312281 94.96728516 226.73950195 C94.97191402 229.05896076 94.97693877 231.37841881 94.98233032 233.69787598 C94.99545005 240.00176901 95.0018985 246.3056514 95.00634098 252.60955596 C95.00927249 256.54865331 95.01337746 260.48774776 95.01784515 264.42684364 C95.02995278 275.34127132 95.04033515 286.25569647 95.04372025 297.17013073 C95.04393981 297.86826337 95.04415938 298.56639601 95.0443856 299.28568419 C95.04460387 299.98545177 95.04482215 300.68521935 95.04504704 301.406192 C95.0454905 302.82409871 95.04593707 304.24200541 95.04638672 305.65991211 C95.04660815 306.3632372 95.04682958 307.06656229 95.04705772 307.79120026 C95.0510037 319.1814092 95.06845262 330.5715541 95.09174624 341.96173831 C95.11548943 353.66661588 95.12792346 365.37146135 95.12908816 377.07636338 C95.13013581 383.64387953 95.13603528 390.21130531 95.15390778 396.77879906 C95.17039794 402.95856572 95.17253924 409.13817418 95.16376877 415.31795502 C95.1629989 417.58263129 95.16733447 419.8473161 95.17722702 422.1119709 C95.18996723 425.21095823 95.18405815 428.30938701 95.17364502 431.40837097 C95.18170142 432.2979867 95.18975783 433.18760244 95.19805837 434.10417622 C95.10472027 446.03575386 90.66019053 456.46992076 82.68115234 465.32470703 C75.76914009 471.85014142 66.62559977 475.69196845 57.19095516 475.70892811 C56.04025412 475.71338595 54.88955307 475.7178438 53.70398229 475.72243673 C52.43912404 475.72225236 51.17426578 475.722068 49.87107849 475.72187805 C48.5142807 475.72517796 47.15748389 475.7289038 45.80068833 475.73301953 C42.06844162 475.74303335 38.336211 475.74675533 34.60395277 475.74940884 C30.57990993 475.75331376 26.55587981 475.76289202 22.53184509 475.7716217 C12.81146422 475.79138147 3.09108232 475.801452 -6.62931362 475.81034949 C-11.20790815 475.81473346 -15.78650152 475.82010001 -20.36509514 475.82533836 C-35.58753119 475.84235065 -50.80996652 475.85684432 -66.03241062 475.8640871 C-69.98246321 475.86599697 -73.93251579 475.86791731 -77.88256836 475.86987305 C-78.86432381 475.87035679 -79.84607927 475.87084053 -80.85758489 475.87133893 C-96.7575905 475.87963733 -112.65752083 475.90497106 -128.55749357 475.93745372 C-144.88522401 475.97053803 -161.21291622 475.98853713 -177.54068035 475.99173135 C-186.70664223 475.99389524 -195.87249435 476.00262619 -205.03842354 476.02819252 C-212.8454577 476.04991831 -220.65235544 476.05794073 -228.4594164 476.04822574 C-232.44056246 476.04368638 -236.42142716 476.04554579 -240.40253448 476.06498718 C-244.05276141 476.08265825 -247.70250255 476.0815897 -251.35273492 476.06608989 C-253.28700323 476.06260361 -255.22127687 476.07871074 -257.15547377 476.09569436 C-269.6344174 476.00409079 -279.20779115 472.4748694 -288.10009766 463.69189453 C-296.78932428 454.30311152 -299.50786595 444.26804782 -299.45454407 431.68252563 C-299.45836961 430.71494398 -299.46219516 429.74736233 -299.46613663 428.75046003 C-299.47641692 425.52336265 -299.47248392 422.29644485 -299.46850586 419.06933594 C-299.47285508 416.74943376 -299.47803893 414.42953301 -299.48399353 412.1096344 C-299.49737213 405.81829881 -299.49796345 399.52702333 -299.49543023 393.23567629 C-299.49422422 387.3143199 -299.50044135 381.39297359 -299.50586369 375.47162025 C-299.5167287 363.02675042 -299.51458169 350.58190772 -299.50847884 338.13703637 C-299.50331082 326.7664131 -299.51456392 315.39587554 -299.53357706 304.02526923 C-299.55297591 292.33385127 -299.56120786 280.64247382 -299.55745381 268.95103967 C-299.55564211 262.39363575 -299.55826602 255.83631032 -299.57216835 249.27891922 C-299.58475508 243.11141446 -299.5827944 236.94408107 -299.56975746 230.7765789 C-299.567394 228.51674148 -299.57011809 226.25689196 -299.57838058 223.99706841 C-299.58886899 220.90479985 -299.58073025 217.81310408 -299.56806946 214.72085571 C-299.57544374 213.83328634 -299.58281803 212.94571697 -299.59041578 212.03125155 C-299.49448731 200.84254825 -295.76099741 190.55423825 -288.08447266 182.30908203 C-280.13007574 174.90326421 -271.51002083 170.42956687 -260.46337891 170.52783203 C-258.98188354 170.5379834 -258.98188354 170.5379834 -257.47045898 170.54833984 C-256.34353638 170.5613916 -256.34353638 170.5613916 -255.19384766 170.57470703 C-255.20050949 169.80701492 -255.20717133 169.03932281 -255.21403503 168.24836731 C-255.27486442 160.91157208 -255.32017908 153.57490395 -255.34928417 146.23791981 C-255.36475171 142.46847847 -255.38562983 138.69925032 -255.42016602 134.92993164 C-255.60349457 114.35498095 -255.59634544 93.91023759 -249.56884766 74.01220703 C-249.31651367 73.16053955 -249.06417969 72.30887207 -248.80419922 71.43139648 C-242.51045081 51.09645255 -232.28224464 32.52739775 -218.19384766 16.57470703 C-217.35208984 15.60017578 -216.51033203 14.62564453 -215.64306641 13.62158203 C-194.79686712 -10.13445493 -166.77700012 -25.92412884 -136.19384766 -33.42529297 C-135.51483398 -33.6017334 -134.83582031 -33.77817383 -134.13623047 -33.95996094 C-87.39578403 -45.67409667 -36.13884834 -30.48997009 0 0 Z M-159.19384766 53.57470703 C-159.86673828 54.14705078 -160.53962891 54.71939453 -161.23291016 55.30908203 C-176.69321479 69.5692717 -184.64502331 90.18411229 -187.19384766 110.57470703 C-187.19384766 130.37470703 -187.19384766 150.17470703 -187.19384766 170.57470703 C-130.43384766 170.57470703 -73.67384766 170.57470703 -15.19384766 170.57470703 C-12.00106483 106.39198762 -12.00106483 106.39198762 -40.19384766 56.57470703 C-40.73396484 55.95982422 -41.27408203 55.34494141 -41.83056641 54.71142578 C-50.02291012 45.73492827 -61.7975495 39.4158385 -73.19384766 35.57470703 C-74.34755859 35.18283203 -75.50126953 34.79095703 -76.68994141 34.38720703 C-106.18582846 25.69241126 -136.31714174 33.77881824 -159.19384766 53.57470703 Z " fill="#0099ff" transform="translate(358.19384765625,36.42529296875)"/>
</svg>