<svg y="0px" x="0px" version="1.1" viewBox="2.225 2.521875 45 44.875" xmlns:xlink="http://www.w3.org/1999/xlink" xmlns="http://www.w3.org/2000/svg" style="max-height: 500px" width="45px" height="44.875px" transform="rotate(0) scale(1, 1)"><title>points</title><g fill-rule="evenodd" fill="none" stroke-width="1" stroke="none"><path fill-rule="nonzero" fill="#60A5FA" d="M20.05,18.0147475 C13.2845118,18.0147475 7.8,23.4992593 7.8,30.2647475 C7.8,37.0302356 13.2845118,42.5147475 20.05,42.5147475 C26.8154882,42.5147475 32.3,37.0302356 32.3,30.2647475 C32.3,23.4992593 26.8154882,18.0147475 20.05,18.0147475 Z M20.05,19.5147475 C25.9870611,19.5147475 30.8,24.3276864 30.8,30.2647475 C30.8,36.2018085 25.9870611,41.0147475 20.05,41.0147475 C14.1129389,41.0147475 9.3,36.2018085 9.3,30.2647475 C9.3,24.3276864 14.1129389,19.5147475 20.05,19.5147475 Z"/><path fill-rule="nonzero" fill="#60A5FA" d="M31.55,11.5747475 C38.3154882,11.5747475 43.8,17.0592593 43.8,23.8247475 C43.8,29.7563019 39.5545202,34.8057246 33.7878783,35.8706727 C33.3805523,35.9458952 32.9893695,35.6766721 32.914147,35.2693461 C32.8389245,34.8620202 33.1081476,34.4708374 33.5154736,34.3956149 C38.5738773,33.4614598 42.3,29.0297419 42.3,23.8247475 C42.3,17.8876864 37.4870611,13.0747475 31.55,13.0747475 C28.372503,13.0747475 25.4216884,14.4603531 23.3910946,16.8248071 C23.1212279,17.139044 22.6477184,17.1750131 22.3334815,16.9051464 C22.0192446,16.6352796 21.9832755,16.1617701 22.2531422,15.8475332 C24.5657592,13.1546871 27.9304315,11.5747475 31.55,11.5747475 Z"/><path fill-rule="nonzero" fill="#60A5FA" d="M20.92584,24.2746675 C23.1582462,24.2746675 24.5918625,25.984153 24.5894427,28.1211077 C24.5870968,30.1874334 23.2428872,31.8554302 21.1387638,31.9608928 L20.92584,31.9661875 L19.494,31.966 L19.49448,35.9847475 L16.18952,35.9847475 L16.18952,24.2746675 L20.92584,24.2746675 Z M20.92584,25.4746675 L17.389,25.474 L17.389,34.784 L18.294,34.784 L18.29448,30.7661875 L20.92584,30.7661875 C22.4381645,30.7661875 23.3877225,29.6349265 23.3894427,28.1197472 C23.39109,26.6647511 22.5182242,25.565642 21.1052506,25.4800413 L20.92584,25.4746675 Z M20.7492,26.3649075 C22.906992,26.3649075 22.9609368,29.7445695 20.9110344,29.9135526 L20.7492,29.9201075 L18.29448,29.9201075 L18.29448,26.3649075 L20.7492,26.3649075 Z M20.7492,27.5649075 L19.494,27.564 L19.494,28.72 L20.7492,28.7201075 C21.3282578,28.7201075 21.3604277,27.6896976 20.8457096,27.5752076 L20.7492,27.5649075 Z"/><path fill-rule="nonzero" fill="#60A5FA" d="M10.5492556,16.0154918 C10.9634692,16.0154918 11.2992556,16.3512783 11.2992556,16.7654918 C11.2992556,17.1451876 11.0171017,17.4589828 10.6510262,17.5086452 L10.5492556,17.5154918 L6.55074439,17.5154918 C6.13653083,17.5154918 5.80074439,17.1797054 5.80074439,16.7654918 C5.80074439,16.3857961 6.08289827,16.0720009 6.44897383,16.0223385 L6.55074439,16.0154918 L10.5492556,16.0154918 Z"/><path fill-rule="nonzero" fill="#60A5FA" d="M8.55,14.0162362 C8.92969577,14.0162362 9.24349096,14.2983901 9.29315338,14.6644657 L9.3,14.7662362 L9.3,18.7647475 C9.3,19.178961 8.96421356,19.5147475 8.55,19.5147475 C8.17030423,19.5147475 7.85650904,19.2325936 7.80684662,18.866518 L7.8,18.7647475 L7.8,14.7662362 C7.8,14.3520227 8.13578644,14.0162362 8.55,14.0162362 Z"/><path fill-rule="nonzero" fill="#60A5FA" d="M43.4492556,40.6647475 C43.7364437,40.6647475 43.9692556,40.8975594 43.9692556,41.1847475 C43.9692556,41.4400257 43.7853054,41.6523402 43.5427263,41.6963696 L43.4492556,41.7047475 L39.4507444,41.7047475 C39.1635563,41.7047475 38.9307444,41.4719355 38.9307444,41.1847475 C38.9307444,40.9294692 39.1146946,40.7171547 39.3572737,40.6731253 L39.4507444,40.6647475 L43.4492556,40.6647475 Z"/><path fill-rule="nonzero" fill="#60A5FA" d="M41.45,38.4354918 C41.8296958,38.4354918 42.143491,38.7176457 42.1931534,39.0837213 L42.2,39.1854918 L42.2,43.1840031 C42.2,43.5982166 41.8642136,43.9340031 41.45,43.9340031 C41.0703042,43.9340031 40.756509,43.6518492 40.7068466,43.2857736 L40.7,43.1840031 L40.7,39.1854918 C40.7,38.7712783 41.0357864,38.4354918 41.45,38.4354918 Z"/><path fill-rule="nonzero" fill="#60A5FA" d="M22.0492556,8.06525255 C22.4634692,8.06525255 22.7992556,8.40103899 22.7992556,8.81525255 C22.7992556,9.19494831 22.5171017,9.50874351 22.1510262,9.55840593 L22.0492556,9.56525255 L18.0507444,9.56525255 C17.6365308,9.56525255 17.3007444,9.22946611 17.3007444,8.81525255 C17.3007444,8.43555678 17.5828983,8.12176159 17.9489738,8.07209917 L18.0507444,8.06525255 L22.0492556,8.06525255 Z"/><path fill-rule="nonzero" fill="#60A5FA" d="M20.05,6.06599694 C20.4296958,6.06599694 20.743491,6.34815082 20.7931534,6.71422638 L20.8,6.81599694 L20.8,10.8145082 C20.8,11.2287217 20.4642136,11.5645082 20.05,11.5645082 C19.6703042,11.5645082 19.356509,11.2823543 19.3068466,10.9162787 L19.3,10.8145082 L19.3,6.81599694 C19.3,6.40178338 19.6357864,6.06599694 20.05,6.06599694 Z"/></g><text font-family="'Helvetica Neue', Helvetica, Arial-Unicode, Arial, Sans-serif" font-weight="bold" font-size="5px" fill="#60A5FA" y="65" x="0">Created by Debby Wang</text><text font-family="'Helvetica Neue', Helvetica, Arial-Unicode, Arial, Sans-serif" font-weight="bold" font-size="5px" fill="#60A5FA" y="70" x="0">from the Noun Project</text></svg>