<?xml version="1.0" encoding="UTF-8"?>
<svg version="1.1" xmlns="http://www.w3.org/2000/svg" width="512" height="512">
<path d="M0 0 C116.16 0 232.32 0 352 0 C352 168.96 352 337.92 352 512 C235.84 512 119.68 512 0 512 C0 343.04 0 174.08 0 0 Z M29 16 C30.98 18.31 32.96 20.62 35 23 C36.1506391 24.43900294 37.2996497 25.87931163 38.44608879 27.3216629 C44.72324957 34.74527741 50.38793764 40.66186526 60.34591031 41.99244404 C65.71429948 42.36265477 71.04415312 42.35921612 76.42236328 42.29492188 C78.84082742 42.32784982 81.25920358 42.36787802 83.67744446 42.41439819 C89.52670255 42.50629451 95.37200369 42.51923165 101.22183938 42.49053341 C105.98513063 42.46839532 110.74741135 42.47768859 115.51064682 42.50849915 C116.19276781 42.51283644 116.87488881 42.51717374 117.57768013 42.52164248 C118.96417546 42.53051319 120.35067056 42.53941907 121.73716544 42.54835969 C134.69625323 42.62760179 147.65340162 42.59869404 160.61246096 42.53504878 C172.41540945 42.48028214 184.21321022 42.55607716 196.01533593 42.69481796 C208.19013435 42.83683648 220.36254242 42.89228867 232.53815448 42.85543108 C239.35167318 42.83619102 246.16115511 42.84932194 252.97403336 42.95140076 C285.19965349 44.86409676 285.19965349 44.86409676 313.02097893 31.62180328 C320.2668117 24.56911949 320.2668117 24.56911949 324 16 C226.65 16 129.3 16 29 16 Z M320.38657272 39.07583857 C307.32522708 52.68507751 308.7141892 69.2660047 308.99333262 87.07951999 C309.04596838 92.06054314 308.96476362 97.03980455 308.90179443 102.02046204 C308.80010954 111.74731771 308.82133289 121.47006719 308.88828517 131.19707644 C308.94046855 139.10952239 308.94717146 147.02082629 308.9222374 154.93339539 C308.91871304 156.06431196 308.91518868 157.19522854 308.91155752 158.36041531 C308.904203 160.65865554 308.89674608 162.95689544 308.88918792 165.255135 C308.82377579 186.74990315 308.89873175 208.24240649 309.02259634 229.736803 C309.12534464 248.1357268 309.10749098 266.53131216 309.00146484 284.93017578 C308.87806493 306.35362091 308.83009117 327.77508677 308.90054691 349.19883776 C308.90787267 351.48809307 308.91510322 353.77734869 308.9222374 356.06660461 C308.92578573 357.19263284 308.92933407 358.31866106 308.93298993 359.47881135 C308.95275645 367.37159062 308.91953336 375.26310257 308.86520767 383.15568542 C308.80034346 392.79007154 308.81886584 402.42015599 308.94066478 412.05405605 C309.00067563 416.96061339 309.02562048 421.86003329 308.94873428 426.76651955 C308.33461694 451.39414016 308.33461694 451.39414016 320.38657272 471.92416143 C327.51038795 479.69570387 327.51038795 479.69570387 336 484 C336 333.19 336 182.38 336 27 C331.07572551 27 323.94505039 35.60859225 320.38657272 39.07583857 Z M16 28 C16 178.15 16 328.3 16 483 C18.31 481.02 20.62 479.04 23 477 C24.42637751 476.00283062 25.86472742 475.02223426 27.3216629 474.07026863 C34.44979718 468.79435819 39.83835014 463.17647415 41.33981568 454.14493339 C42.58252373 444.08592537 42.40169103 433.90230735 42.31027365 423.78595972 C42.28397623 418.82544696 42.35586491 413.86615549 42.41439819 408.90605164 C42.51278388 399.20719871 42.51914105 389.51042101 42.49053341 379.81119208 C42.4684766 371.92065675 42.47758991 364.03073324 42.50849915 356.14023209 C42.51500509 354.4509639 42.51500509 354.4509639 42.52164248 352.72756908 C42.53051234 350.43915384 42.53941821 348.15073874 42.54835969 345.86232378 C42.6277529 324.43387653 42.59858594 303.00659964 42.53504878 281.578169 C42.4802513 262.0161791 42.55612501 242.45729265 42.69481796 222.89579879 C42.83645237 202.76592024 42.89237611 182.6374869 42.85543108 162.50711834 C42.83611654 151.22291739 42.84928274 139.94113169 42.95140076 128.6573143 C43.03731421 119.04861639 43.04104078 109.44400355 42.94225603 99.83536272 C42.89407877 94.94083264 42.88121059 90.053597 42.9705162 85.15947914 C43.64436467 60.57594951 43.64436467 60.57594951 31.6198678 40.08174908 C24.49279003 32.30665086 24.49279003 32.30665086 16 28 Z M56 56 C56 188 56 320 56 456 C135.2 456 214.4 456 296 456 C296 324 296 192 296 56 C216.8 56 137.6 56 56 56 Z M29 495 C29 495.33 29 495.66 29 496 C126.35 496 223.7 496 324 496 C322.02 493.69 320.04 491.38 318 489 C316.8493609 487.56099706 315.7003503 486.12068837 314.55391121 484.6783371 C308.27675043 477.25472259 302.61206236 471.33813474 292.65408969 470.00755596 C287.28570052 469.63734523 281.95584688 469.64078388 276.57763672 469.70507812 C274.15917258 469.67215018 271.74079642 469.63212198 269.32255554 469.58560181 C263.47329745 469.49370549 257.62799631 469.48076835 251.77816062 469.50946659 C247.01486937 469.53160468 242.25258865 469.52231141 237.48935318 469.49150085 C236.80723219 469.48716356 236.12511119 469.48282626 235.42231987 469.47835752 C234.03582454 469.46948681 232.64932944 469.46058093 231.26283456 469.45164031 C218.30374677 469.37239821 205.34659838 469.40130596 192.38753904 469.46495122 C180.58459055 469.51971786 168.78678978 469.44392284 156.98466407 469.30518204 C144.80986565 469.16316352 132.63745758 469.10771133 120.46184552 469.14456892 C113.64832682 469.16380898 106.83884489 469.15067806 100.02596664 469.04859924 C57.85524144 467.70547412 57.85524144 467.70547412 29 495 Z " fill="#000000" transform="translate(80,0)"/>
<path d="M0 0 C-1.63962467 5.5907202 -4.16976198 10.5953075 -6.7890625 15.7734375 C-7.19987061 16.59303955 -7.61067871 17.4126416 -8.03393555 18.25708008 C-9.55989829 21.29859424 -11.09285902 24.33659339 -12.625 27.375 C-16.04875 34.18125 -19.4725 40.9875 -23 48 C-6.5 48 10 48 27 48 C27 67 27 67 24.41169739 71.6084137 C22.70883465 73.23837948 22.70883465 73.23837948 20.84301758 74.74829102 C19.54348459 75.96191085 18.24622921 77.1779734 16.95108032 78.39627075 C16.2885236 78.99036366 15.62596687 79.58445656 14.94333267 80.19655228 C11.85611276 83.06154796 9.1338629 86.22180572 6.36987305 89.39428711 C0.92094101 95.51887291 -4.64609775 101.52581572 -10.2769289 107.48335934 C-13.64159499 111.05028794 -16.95693563 114.64489801 -20.18676758 118.3347168 C-43.21721161 144.55206177 -43.21721161 144.55206177 -60.18505859 145.87158203 C-70.18252584 146.33625589 -80.11461313 145.45333004 -90 144 C-89.42225 142.68412605 -88.84439451 141.36829842 -88.26649475 140.05249023 C-87.78382188 138.95335548 -87.78382188 138.95335548 -87.29139805 137.83201599 C-81.03978462 123.62862571 -73.99360209 109.85140607 -67 96 C-83.5 96 -100 96 -117 96 C-117 73.11225276 -117 73.11225276 -109.46948242 65.31640625 C-108.91623291 64.84847656 -108.3629834 64.38054687 -107.79296875 63.8984375 C-107.1695459 63.35928711 -106.54612305 62.82013672 -105.90380859 62.26464844 C-105.27555176 61.72356445 -104.64729492 61.18248047 -104 60.625 C-102.76218036 59.4842961 -101.52906507 58.33846555 -100.30078125 57.1875 C-96.3231621 53.49374087 -92.27208388 49.88641664 -88.09532166 46.41862488 C-83.56089205 42.5958022 -79.70386411 38.49397793 -75.88980103 33.95645142 C-52.98438954 6.77501548 -36.2170951 -7.56948933 0 0 Z M-40.69140625 21.76733398 C-41.61487099 22.68663696 -41.61487099 22.68663696 -42.55699158 23.62451172 C-44.57850619 25.64649974 -46.57014214 27.69540405 -48.5625 29.74609375 C-49.96186007 31.15784253 -51.36292764 32.56790068 -52.765625 33.97633362 C-56.44647388 37.68201382 -60.102244 41.41152614 -63.75372314 45.14611816 C-66.74820639 48.20073029 -69.75952432 51.2384321 -72.7719574 54.27532864 C-78.9800691 60.53399856 -85.17726025 66.80357247 -91.34375 73.10327148 C-91.92027817 73.68877274 -92.49680634 74.27427399 -93.09080505 74.8775177 C-95.77158467 77.08754587 -95.77158467 77.08754587 -97 80 C-78.52 80 -60.04 80 -41 80 C-50.25 98.375 -50.25 98.375 -53.14550781 104.11083984 C-53.91503561 105.64404412 -54.68426075 107.17740036 -55.453125 108.7109375 C-55.84290527 109.48026611 -56.23268555 110.24959473 -56.63427734 111.04223633 C-59.40471034 116.58136428 -61.77864022 122.2196681 -64 128 C-58.93054266 128.60355621 -58.93054266 128.60355621 -54.25558472 126.99637032 C-52.50108883 125.49041623 -50.90446323 123.90597774 -49.30859375 122.23266602 C-48.38512901 121.31336304 -48.38512901 121.31336304 -47.44300842 120.37548828 C-45.42149381 118.35350026 -43.42985786 116.30459595 -41.4375 114.25390625 C-40.03813993 112.84215747 -38.63707236 111.43209932 -37.234375 110.02366638 C-33.55352612 106.31798618 -29.897756 102.58847386 -26.24627686 98.85388184 C-23.25179361 95.79926971 -20.24047568 92.7615679 -17.2280426 89.72467136 C-11.0199309 83.46600144 -4.82273975 77.19642753 1.34375 70.89672852 C1.92027817 70.31122726 2.49680634 69.72572601 3.09080505 69.1224823 C5.77158467 66.91245413 5.77158467 66.91245413 7 64 C-11.48 64 -29.96 64 -49 64 C-36.4753886 37.81217617 -36.4753886 37.81217617 -31.3125 27.625 C-30.28597177 25.59725866 -29.26112562 23.56866456 -28.23828125 21.5390625 C-27.80555908 20.68521973 -27.37283691 19.83137695 -26.92700195 18.95166016 C-25.92849284 17.20955719 -25.92849284 17.20955719 -26 16 C-33.15906598 15.27953695 -35.81516424 16.65446415 -40.69140625 21.76733398 Z " fill="#000000" transform="translate(301,152)"/>
<path d="M0 0 C42.57 0 85.14 0 129 0 C129 5.28 129 10.56 129 16 C86.43 16 43.86 16 0 16 C0 10.72 0 5.44 0 0 Z " fill="#000000" transform="translate(192,312)"/>
<path d="M0 0 C21.45 0 42.9 0 65 0 C65 5.28 65 10.56 65 16 C43.55 16 22.1 16 0 16 C0 10.72 0 5.44 0 0 Z " fill="#000000" transform="translate(224,344)"/>
<path d="M0 0 C5.61 0 11.22 0 17 0 C17 5.28 17 10.56 17 16 C11.39 16 5.78 16 0 16 C0 10.72 0 5.44 0 0 Z " fill="#000000" transform="translate(280,416)"/>
<path d="M0 0 C5.61 0 11.22 0 17 0 C17 5.28 17 10.56 17 16 C11.39 16 5.78 16 0 16 C0 10.72 0 5.44 0 0 Z " fill="#000000" transform="translate(248,416)"/>
<path d="M0 0 C5.61 0 11.22 0 17 0 C17 5.28 17 10.56 17 16 C11.39 16 5.78 16 0 16 C0 10.72 0 5.44 0 0 Z " fill="#000000" transform="translate(216,416)"/>
</svg>
