<?xml version="1.0" encoding="UTF-8"?>
<svg version="1.1" xmlns="http://www.w3.org/2000/svg" width="512" height="512">
<path d="M0 0 C1.14726563 0.01804687 2.29453125 0.03609375 3.4765625 0.0546875 C6.27694424 0.10136053 9.07550563 0.16681502 11.875 0.25 C12.30321045 1.00619629 12.7314209 1.76239258 13.17260742 2.54150391 C14.77998295 5.37335012 16.39272145 8.20205474 18.0090332 11.02880859 C18.7045226 12.24764772 19.39792635 13.46767961 20.08911133 14.68896484 C26.67396018 27.27132151 26.67396018 27.27132151 37.875 35.25 C41.21524658 36.04250691 44.3150951 36.37807059 47.74359131 36.39044189 C48.69667175 36.39615204 49.6497522 36.40186218 50.63171387 36.40774536 C51.66558228 36.40886322 52.69945068 36.40998108 53.76464844 36.41113281 C54.86282898 36.41609772 55.96100952 36.42106262 57.09246826 36.42617798 C60.72311024 36.44077477 64.35370851 36.44759759 67.984375 36.453125 C70.51157634 36.4588786 73.03877768 36.4646363 75.565979 36.47039795 C80.1884061 36.47955941 84.81082013 36.48586251 89.433254 36.4888947 C96.21824242 36.49337102 103.00302894 36.5109043 109.787956 36.5398953 C115.68098608 36.56419363 121.57396638 36.57184275 127.46704865 36.57357025 C129.96601714 36.57659154 132.46498489 36.5846023 134.96392059 36.59775543 C138.46535911 36.61486936 141.9663097 36.6129223 145.46777344 36.60644531 C147.00643066 36.62026749 147.00643066 36.62026749 148.57617188 36.6343689 C156.05309169 36.59118988 163.09771646 35.64367688 169.18212891 30.97583008 C172.08285396 28.03960204 173.95420422 25.23896947 175.9609375 21.63671875 C176.30758453 21.02230423 176.65423157 20.40788971 177.01138306 19.77485657 C178.10233947 17.83520527 179.17632628 15.88676068 180.25 13.9375 C180.9923816 12.61070757 181.73586156 11.28452907 182.48046875 9.95898438 C184.29138647 6.72964928 186.08722173 3.49221502 187.875 0.25 C191.83307715 0.13238856 195.79069621 0.06228118 199.75 0 C201.41289062 -0.05027344 201.41289062 -0.05027344 203.109375 -0.1015625 C213.73426213 -0.22656117 221.44848889 2.17722941 229.1953125 9.53515625 C238.23712822 18.76621928 240.05417141 28.68902156 239.97265625 41.24609375 C239.97053383 42.49641136 239.97053383 42.49641136 239.96836853 43.77198792 C239.96281168 46.41052986 239.9502674 49.04898409 239.9375 51.6875 C239.93247942 53.48632689 239.92791749 55.28515513 239.92382812 57.08398438 C239.91285643 61.47268958 239.89562196 65.86132996 239.875 70.25 C238.88465256 70.25586624 237.89430511 70.26173248 236.87394714 70.26777649 C227.50303399 70.32519543 218.13234864 70.39805586 208.76166821 70.48571491 C203.94505196 70.53028484 199.12851769 70.56956987 194.31176758 70.59643555 C189.65613717 70.62260272 185.00082454 70.66309826 180.34539223 70.71318626 C178.57660208 70.7297648 176.80775707 70.74133483 175.03890038 70.74761391 C158.35431457 70.81278715 142.53149946 73.23014538 129.875 85.25 C122.31509958 93.92206454 115.76716338 105.06121961 115.74077892 116.86289215 C115.73409216 118.2536127 115.73409216 118.2536127 115.72727031 119.67242861 C115.72745467 120.68758405 115.72763903 121.7027395 115.72782898 122.74865723 C115.72415229 123.82983306 115.7204756 124.9110089 115.7166875 126.02494764 C115.70564371 129.66051674 115.7018056 133.29605726 115.69799805 136.93164062 C115.69173385 139.53341767 115.68508709 142.13519383 115.67808533 144.73696899 C115.65833406 152.55448224 115.64825551 160.37199675 115.63935754 168.1895287 C115.63497165 171.87390683 115.62960555 175.55828353 115.62436867 179.24266052 C115.60735623 191.49612377 115.59286373 203.74958614 115.58561993 216.00305939 C115.58371013 219.18205262 115.58178978 222.36104585 115.57983398 225.54003906 C115.57935024 226.33013286 115.5788665 227.12022666 115.5783681 227.93426269 C115.57007406 240.72320234 115.54474781 253.51204826 115.51225331 266.30094701 C115.47913998 279.44091766 115.46116723 292.58084075 115.45797569 305.72085333 C115.45581433 313.09442297 115.4471209 320.46785601 115.42151451 327.84138489 C115.39746675 334.78202769 115.39400863 341.72242148 115.40427589 348.66309738 C115.40477091 351.20590914 115.39846071 353.74873305 115.38471985 356.29150772 C115.36696351 359.77312153 115.37412654 363.25385826 115.38725281 366.73547363 C115.37628356 367.7327833 115.36531432 368.73009297 115.35401267 369.75762415 C115.47552924 383.18266098 121.09063991 395.22862664 129.875 405.25 C141.04794539 414.33855503 152.35260875 419.34226091 166.87817383 419.45532227 C167.66894318 419.46522186 168.45971252 419.47512146 169.27444458 419.48532104 C171.87694346 419.51679926 174.47946057 419.54163914 177.08203125 419.56640625 C178.8909298 419.5869876 180.69982366 419.60798438 182.50871277 419.62937927 C187.26138509 419.68447797 192.01409993 419.7339409 196.7668457 419.78222656 C201.61999276 419.83253085 206.47307834 419.88817025 211.32617188 419.94335938 C220.84239535 420.05079163 230.35867229 420.15226957 239.875 420.25 C239.92484062 425.47866463 239.96092606 430.70718765 239.98486328 435.93603516 C239.99485378 437.71079928 240.00845081 439.48554723 240.02587891 441.26025391 C240.17314716 456.65411758 240.20038391 469.72439549 229.0625 481.5625 C221.47110287 488.76643452 214.10785953 490.39936106 203.88143921 490.39717102 C202.5025719 490.40268605 202.5025719 490.40268605 201.09584868 490.4083125 C198.00839219 490.41934606 194.92096935 490.42319264 191.83349609 490.42700195 C189.62255751 490.43326687 187.41161997 490.4399137 185.20068359 490.44691467 C177.93327569 490.46795481 170.66586757 490.47831731 163.3984375 490.48828125 C160.89620579 490.49232888 158.39397419 490.4964458 155.89174271 490.50063133 C145.48262293 490.51750015 135.07350473 490.53213456 124.6643734 490.53938007 C121.96456272 490.54128985 119.26475205 490.5432102 116.56494141 490.54516602 C115.55845066 490.54589163 115.55845066 490.54589163 114.53162678 490.5466319 C103.66835296 490.55492755 92.80518941 490.58025745 81.94196372 490.61274669 C70.77953067 490.64585759 59.61713747 490.66350001 48.45465147 490.66702431 C42.19113338 490.66937415 35.92778962 490.6783263 29.66431808 490.70348549 C23.76933696 490.72678182 17.87464476 490.73099295 11.97962952 490.72072411 C9.81976485 490.72022901 7.65988588 490.72654152 5.50006485 490.74028015 C2.54318695 490.75803164 -0.41265769 490.75087657 -3.36953735 490.73774719 C-4.64078349 490.75420106 -4.64078349 490.75420106 -5.93771136 490.77098733 C-16.09727577 490.66264994 -23.70757709 486.62164076 -30.92578125 479.6640625 C-41.31723116 468.25746207 -40.42116701 453.41775277 -40.37896729 438.86694336 C-40.38127513 437.12447193 -40.38445382 435.38200148 -40.38842177 433.63953304 C-40.3967339 428.87832169 -40.39266085 424.117191 -40.38644934 419.35597944 C-40.38191114 414.21071305 -40.38891538 409.06546021 -40.39440918 403.92019653 C-40.40329023 393.85125419 -40.4013869 383.78234172 -40.3955839 373.71339822 C-40.39106235 365.52823915 -40.39045664 357.34308843 -40.39263153 349.15792847 C-40.392938 347.99181658 -40.39324446 346.82570469 -40.39356022 345.62425607 C-40.39419968 343.25512926 -40.39484811 340.88600244 -40.3955054 338.51687562 C-40.40120492 316.31517568 -40.39465672 294.11349226 -40.38390467 271.91179502 C-40.3749695 252.87250351 -40.37652165 233.83323639 -40.38574219 214.79394531 C-40.39645149 192.67026779 -40.40065563 170.54660475 -40.39451766 148.422925 C-40.39388058 146.06264051 -40.39325184 143.70235602 -40.39263153 141.34207153 C-40.39232298 140.1808454 -40.39201443 139.01961926 -40.39169653 137.82320446 C-40.38997157 129.65035176 -40.3928804 121.47750826 -40.39759064 113.30465698 C-40.40320679 103.34116171 -40.40166755 93.37769794 -40.39102915 83.41420627 C-40.38578235 78.33325006 -40.3836988 73.25234632 -40.39032745 68.17139053 C-40.39630953 63.5155407 -40.39297464 58.85979175 -40.38237235 54.203951 C-40.38014788 52.52443132 -40.38125306 50.84490303 -40.38612393 49.16538894 C-40.42529616 34.52984003 -40.39350056 21.38803695 -30.08203125 9.9921875 C-21.07867698 1.35534145 -12.20749305 -0.36906374 0 0 Z M74.875 437.25 C73.42352097 440.15295805 73.50260975 442.02261779 73.875 445.25 C75.68810142 448.17937654 77.74795899 450.68647949 80.875 452.25 C83.66065987 452.37344964 86.42031413 452.43841652 89.20703125 452.453125 C90.45017342 452.46167511 90.45017342 452.46167511 91.71842957 452.47039795 C93.47446413 452.47985248 95.23051647 452.48638373 96.98657227 452.49023438 C99.66649596 452.49992406 102.34564753 452.5309359 105.02539062 452.5625 C106.73176628 452.56903173 108.43814742 452.57428154 110.14453125 452.578125 C110.94365433 452.5904718 111.7427774 452.6028186 112.56611633 452.61553955 C117.17513626 452.59719348 120.10456008 452.19185625 123.875 449.25 C126.44070589 445.82905881 126.31208054 442.40226516 125.875 438.25 C124.07937595 435.49670979 122.82245078 433.72372539 119.875 432.25 C114.22220147 431.96455987 108.56825965 431.93621466 102.90893555 431.89990234 C101.01655781 431.88334668 99.1242425 431.85606165 97.23217773 431.81787109 C94.50211186 431.76305528 91.7735111 431.74122182 89.04296875 431.7265625 C88.20009811 431.70389313 87.35722748 431.68122375 86.48881531 431.65786743 C80.89496469 431.67794645 78.4457591 432.59736531 74.875 437.25 Z " fill="#4A82FF" transform="translate(50.125,10.75)"/>
<path d="M0 0 C1.05912865 -0.00467997 2.1182573 -0.00935994 3.20948076 -0.01418173 C6.73446967 -0.02608303 10.25906629 -0.01669334 13.78405762 -0.00723267 C16.32100144 -0.01130051 18.85794349 -0.01664359 21.3948822 -0.02316284 C27.55582542 -0.03540061 33.716625 -0.03363943 39.87757003 -0.02492492 C44.88726632 -0.01813381 49.8969319 -0.01723781 54.90663147 -0.02049637 C55.97849612 -0.02118592 55.97849612 -0.02118592 57.0720146 -0.0218894 C58.52392496 -0.02284863 59.9758353 -0.02382127 61.42774564 -0.02480717 C75.02385907 -0.03334997 88.6199117 -0.02354439 102.21601516 -0.00740607 C113.8674699 0.00599611 125.51883496 0.0036677 137.17028809 -0.01016235 C150.71966956 -0.02623782 164.26899783 -0.0325261 177.81838751 -0.02332556 C179.26478417 -0.02236997 180.71118084 -0.02142686 182.15757751 -0.02049637 C182.86912508 -0.02003354 183.58067264 -0.01957072 184.31378224 -0.01909386 C189.3141054 -0.01650987 194.31439463 -0.0208622 199.31471252 -0.02793503 C206.05187175 -0.03725563 212.78883607 -0.03056493 219.52598763 -0.01325226 C221.99545575 -0.0092926 224.46493815 -0.0104125 226.93440056 -0.01704025 C230.31119405 -0.02526616 233.68744955 -0.01492089 237.06420898 0 C238.52191798 -0.01003825 238.52191798 -0.01003825 240.00907564 -0.02027929 C251.16677463 0.07502073 261.3982413 3.45837722 269.81726074 10.97470093 C283.01335869 25.28453604 281.32493586 44.20270104 281.29089355 62.31845093 C281.29360666 64.74407048 281.29716938 67.16968921 281.30151367 69.5953064 C281.30966009 75.47721184 281.30850445 81.35907033 281.30268839 87.24097443 C281.29815532 92.02510496 281.29756608 96.8092212 281.29973602 101.59335327 C281.30004249 102.27655231 281.30034896 102.95975134 281.30066471 103.66365337 C281.30130422 105.05194219 281.30195264 106.44023101 281.30260989 107.82851982 C281.30830091 120.81951286 281.30177462 133.81047759 281.29100916 146.80146599 C281.28207476 157.92693347 281.28362715 169.0523592 281.29284668 180.17782593 C281.30357106 193.12514431 281.30775171 206.07243793 281.30162215 219.01976013 C281.30098511 220.40268961 281.30035637 221.7856191 281.29973602 223.16854858 C281.29942747 223.84881953 281.29911892 224.52909048 281.29880102 225.2299757 C281.29708057 230.0034514 281.29997509 234.77691127 281.30469513 239.55038452 C281.31091887 245.98548579 281.30643189 252.42052702 281.29490662 258.85562134 C281.29227166 261.2113736 281.29300513 263.56713251 281.29743195 265.92288208 C281.35771403 301.27274519 281.35771403 301.27274519 269.81726074 313.78720093 C260.39928447 322.1953723 249.38417329 324.84674105 237.06420898 324.76190186 C236.00508033 324.76658183 234.94595168 324.7712618 233.85472822 324.77608359 C230.32973932 324.78798489 226.80514269 324.77859519 223.28015137 324.76913452 C220.74320754 324.77320237 218.20626549 324.77854545 215.66932678 324.7850647 C209.50838356 324.79730246 203.34758398 324.79554128 197.18663895 324.78682677 C192.17694267 324.78003566 187.16727709 324.77913966 182.15757751 324.78239822 C181.08571287 324.78308777 181.08571287 324.78308777 179.99219438 324.78379125 C178.54028403 324.78475048 177.08837368 324.78572312 175.63646334 324.78670903 C162.04034991 324.79525183 148.44429728 324.78544625 134.84819382 324.76930793 C123.19673908 324.75590575 111.54537402 324.75823415 99.8939209 324.77206421 C86.34453942 324.78813968 72.79521116 324.79442796 59.24582148 324.78522742 C57.79942482 324.78427183 56.35302815 324.78332872 54.90663147 324.78239822 C54.19508391 324.7819354 53.48353635 324.78147257 52.75042674 324.78099572 C47.75010359 324.77841172 42.74981436 324.78276405 37.74949646 324.78983688 C31.01233723 324.79915749 24.27537291 324.79246679 17.53822136 324.77515411 C15.06875323 324.77119446 12.59927083 324.77231435 10.12980843 324.77894211 C6.75301493 324.78716802 3.37675944 324.77682274 0 324.76190186 C-0.971806 324.76859402 -1.94361199 324.77528619 -2.94486666 324.78218114 C-14.32683456 324.6849656 -24.99249926 321.2533231 -33.23352051 313.15438843 C-40.91930546 304.18763931 -43.58122943 294.77626361 -43.47583008 283.10971069 C-43.48207004 282.03001542 -43.48831 280.95032015 -43.49473906 279.83790684 C-43.51059095 276.24916278 -43.49809491 272.6611053 -43.48547363 269.07235718 C-43.49089819 266.4876262 -43.49802272 263.90289832 -43.50671387 261.31817627 C-43.52443768 255.04405561 -43.52068669 248.77012708 -43.5090633 242.4959991 C-43.50000494 237.39384185 -43.49881533 232.29173819 -43.50315857 227.1895752 C-43.5037715 226.46154617 -43.50438443 225.73351714 -43.50501594 224.98342663 C-43.50629493 223.50413853 -43.50759178 222.02485045 -43.5089063 220.54556239 C-43.52029411 206.69616645 -43.50722673 192.84687667 -43.48570484 178.99749815 C-43.46783547 167.13144751 -43.47094008 155.26555343 -43.48937988 143.39950562 C-43.51081848 129.59739451 -43.51919565 115.79537628 -43.50693083 101.99325085 C-43.50565672 100.51960947 -43.50439924 99.04596807 -43.50315857 97.57232666 C-43.50254147 96.84739425 -43.50192437 96.12246184 -43.50128856 95.37556177 C-43.49784461 90.28351414 -43.50364332 85.19152576 -43.51307678 80.0994873 C-43.52551059 73.23751182 -43.51657312 66.3758359 -43.49349976 59.51388931 C-43.48822323 56.9996909 -43.48970826 54.48546755 -43.49855042 51.97127914 C-43.5095307 48.53125126 -43.49571094 45.09215988 -43.47583008 41.65219116 C-43.48475296 40.66452538 -43.49367585 39.67685961 -43.50286913 38.65926456 C-43.37347306 27.0639175 -39.23867805 17.50913377 -30.96789551 9.38095093 C-21.6625504 2.17386992 -11.56681555 -0.07965277 0 0 Z M-2.96789551 41.38095093 C-2.96789551 65.80095093 -2.96789551 90.22095093 -2.96789551 115.38095093 C21.45210449 115.38095093 45.87210449 115.38095093 71.03210449 115.38095093 C71.03210449 90.96095093 71.03210449 66.54095093 71.03210449 41.38095093 C46.61210449 41.38095093 22.19210449 41.38095093 -2.96789551 41.38095093 Z M91.03210449 41.38095093 C91.03210449 65.80095093 91.03210449 90.22095093 91.03210449 115.38095093 C96.97210449 115.38095093 102.91210449 115.38095093 109.03210449 115.38095093 C109.03210449 102.84095093 109.03210449 90.30095093 109.03210449 77.38095093 C121.57210449 77.38095093 134.11210449 77.38095093 147.03210449 77.38095093 C147.03210449 71.44095093 147.03210449 65.50095093 147.03210449 59.38095093 C134.49210449 59.38095093 121.95210449 59.38095093 109.03210449 59.38095093 C109.03210449 53.44095093 109.03210449 47.50095093 109.03210449 41.38095093 C103.09210449 41.38095093 97.15210449 41.38095093 91.03210449 41.38095093 Z M166.03210449 41.38095093 C166.03210449 65.80095093 166.03210449 90.22095093 166.03210449 115.38095093 C190.45210449 115.38095093 214.87210449 115.38095093 240.03210449 115.38095093 C240.03210449 90.96095093 240.03210449 66.54095093 240.03210449 41.38095093 C215.61210449 41.38095093 191.19210449 41.38095093 166.03210449 41.38095093 Z M-2.96789551 134.38095093 C-2.96789551 152.86095093 -2.96789551 171.34095093 -2.96789551 190.38095093 C27.72210449 190.38095093 58.41210449 190.38095093 90.03210449 190.38095093 C90.03210449 184.11095093 90.03210449 177.84095093 90.03210449 171.38095093 C96.63210449 171.38095093 103.23210449 171.38095093 110.03210449 171.38095093 C110.03210449 177.65095093 110.03210449 183.92095093 110.03210449 190.38095093 C115.97210449 190.38095093 121.91210449 190.38095093 128.03210449 190.38095093 C128.03210449 196.65095093 128.03210449 202.92095093 128.03210449 209.38095093 C115.82210449 209.38095093 103.61210449 209.38095093 91.03210449 209.38095093 C91.03210449 215.32095093 91.03210449 221.26095093 91.03210449 227.38095093 C97.30210449 227.38095093 103.57210449 227.38095093 110.03210449 227.38095093 C110.03210449 239.92095093 110.03210449 252.46095093 110.03210449 265.38095093 C103.76210449 265.38095093 97.49210449 265.38095093 91.03210449 265.38095093 C91.03210449 271.32095093 91.03210449 277.26095093 91.03210449 283.38095093 C102.91210449 283.38095093 114.79210449 283.38095093 127.03210449 283.38095093 C127.03210449 264.90095093 127.03210449 246.42095093 127.03210449 227.38095093 C139.90210449 227.38095093 152.77210449 227.38095093 166.03210449 227.38095093 C166.03210449 233.65095093 166.03210449 239.92095093 166.03210449 246.38095093 C177.91210449 246.38095093 189.79210449 246.38095093 202.03210449 246.38095093 C202.03210449 234.17095093 202.03210449 221.96095093 202.03210449 209.38095093 C189.82210449 209.38095093 177.61210449 209.38095093 165.03210449 209.38095093 C165.03210449 196.84095093 165.03210449 184.30095093 165.03210449 171.38095093 C171.30210449 171.38095093 177.57210449 171.38095093 184.03210449 171.38095093 C184.03210449 165.11095093 184.03210449 158.84095093 184.03210449 152.38095093 C190.30210449 152.38095093 196.57210449 152.38095093 203.03210449 152.38095093 C203.03210449 164.92095093 203.03210449 177.46095093 203.03210449 190.38095093 C208.97210449 190.38095093 214.91210449 190.38095093 221.03210449 190.38095093 C221.03210449 184.11095093 221.03210449 177.84095093 221.03210449 171.38095093 C227.30210449 171.38095093 233.57210449 171.38095093 240.03210449 171.38095093 C240.03210449 165.44095093 240.03210449 159.50095093 240.03210449 153.38095093 C233.76210449 153.38095093 227.49210449 153.38095093 221.03210449 153.38095093 C221.03210449 147.11095093 221.03210449 140.84095093 221.03210449 134.38095093 C202.88210449 134.38095093 184.73210449 134.38095093 166.03210449 134.38095093 C166.03210449 140.65095093 166.03210449 146.92095093 166.03210449 153.38095093 C159.76210449 153.38095093 153.49210449 153.38095093 147.03210449 153.38095093 C147.03210449 159.65095093 147.03210449 165.92095093 147.03210449 172.38095093 C140.43210449 172.38095093 133.83210449 172.38095093 127.03210449 172.38095093 C127.03210449 159.84095093 127.03210449 147.30095093 127.03210449 134.38095093 C121.42210449 134.38095093 115.81210449 134.38095093 110.03210449 134.38095093 C110.03210449 140.65095093 110.03210449 146.92095093 110.03210449 153.38095093 C97.16210449 153.38095093 84.29210449 153.38095093 71.03210449 153.38095093 C71.03210449 147.11095093 71.03210449 140.84095093 71.03210449 134.38095093 C65.09210449 134.38095093 59.15210449 134.38095093 53.03210449 134.38095093 C53.03210449 146.92095093 53.03210449 159.46095093 53.03210449 172.38095093 C40.49210449 172.38095093 27.95210449 172.38095093 15.03210449 172.38095093 C15.03210449 159.84095093 15.03210449 147.30095093 15.03210449 134.38095093 C9.09210449 134.38095093 3.15210449 134.38095093 -2.96789551 134.38095093 Z M-2.96789551 209.38095093 C-2.96789551 233.80095093 -2.96789551 258.22095093 -2.96789551 283.38095093 C21.45210449 283.38095093 45.87210449 283.38095093 71.03210449 283.38095093 C71.03210449 258.96095093 71.03210449 234.54095093 71.03210449 209.38095093 C46.61210449 209.38095093 22.19210449 209.38095093 -2.96789551 209.38095093 Z M222.03210449 228.38095093 C222.03210449 240.59095093 222.03210449 252.80095093 222.03210449 265.38095093 C197.28210449 265.38095093 172.53210449 265.38095093 147.03210449 265.38095093 C147.03210449 271.32095093 147.03210449 277.26095093 147.03210449 283.38095093 C177.72210449 283.38095093 208.41210449 283.38095093 240.03210449 283.38095093 C240.03210449 265.23095093 240.03210449 247.08095093 240.03210449 228.38095093 C234.09210449 228.38095093 228.15210449 228.38095093 222.03210449 228.38095093 Z " fill="#4785FF" transform="translate(220.9678955078125,93.61904907226563)"/>
<path d="M0 0 C48.84 0 97.68 0 148 0 C136.08981617 22.33159469 136.08981617 22.33159469 132.20484066 23.57416248 C129.84966283 24.02903575 127.69912435 24.12878546 125.30067444 24.13371277 C123.88968727 24.14011024 123.88968727 24.14011024 122.45019531 24.14663696 C120.91262573 24.14595718 120.91262573 24.14595718 119.34399414 24.14526367 C117.71656532 24.15030159 117.71656532 24.15030159 116.05625916 24.15544128 C112.46587991 24.16494878 108.8755473 24.16689422 105.28515625 24.16796875 C102.79178345 24.17118118 100.29841085 24.17454525 97.80503845 24.17805481 C92.57713518 24.18404537 87.34924377 24.18593755 82.12133789 24.18530273 C76.75053957 24.18476828 71.37981307 24.19181852 66.0090332 24.20581055 C59.52701317 24.22245793 53.04505776 24.22935915 46.56301689 24.22869301 C44.09145175 24.22987428 41.61988596 24.23430428 39.1483326 24.24202538 C35.69394611 24.25180726 32.23979048 24.24895434 28.78540039 24.24291992 C27.76237823 24.24853943 26.73935608 24.25415894 25.68533325 24.25994873 C24.74185532 24.25575424 23.79837738 24.25155975 22.8263092 24.24723816 C21.60212579 24.24805531 21.60212579 24.24805531 20.3532114 24.24888897 C16.77492802 23.87042945 13.89423484 22.98186087 11.4453125 20.29296875 C7.28147133 13.65299718 3.74478794 6.95460617 0 0 Z " fill="#03BEFF" transform="translate(76,11)"/>
<path d="M0 0 C12.54 0 25.08 0 38 0 C38 12.54 38 25.08 38 38 C25.46 38 12.92 38 0 38 C0 25.46 0 12.92 0 0 Z " fill="#5F71FF" transform="translate(236,321)"/>
<path d="M0 0 C12.54 0 25.08 0 38 0 C38 12.54 38 25.08 38 38 C25.46 38 12.92 38 0 38 C0 25.46 0 12.92 0 0 Z " fill="#2E99FF" transform="translate(405,153)"/>
<path d="M0 0 C12.54 0 25.08 0 38 0 C38 12.54 38 25.08 38 38 C25.46 38 12.92 38 0 38 C0 25.46 0 12.92 0 0 Z " fill="#2E99FF" transform="translate(236,153)"/>
</svg>
