<svg xmlns="http://www.w3.org/2000/svg" width="512" height="512" xmlns:v="https://vecta.io/nano"><path d="M59.005 84.725l2.576-.015 8.338-.011 5.837-.013 12.192-.002 15.605-.034 12.037-.012 5.754-.016 8.04.006 2.385-.023c4.805.046 8.05.784 12.231 3.395 3.884 4.1 5.741 7.71 6.375 13.313-.467 4.589-1.703 7.929-4.375 11.688-5.594 4.452-9.952 5.145-16.893 5.126l-2.435.006-5.24.006-11.167.045-20.786.067a1745 1745 0 0 0-14.463.062l-5.493.004c-11.602-.044-20.025.457-29.397 7.996-6.183 7.819-6.705 14.127-6.64 23.845l-.021 3.996-.002 10.936-.022 11.812-.013 23.124-.001 18.799-.003 2.704-.006 5.439.009 50.992-.029 46.624-.031 47.902.003 5.421.001 2.694-.022 18.767.005 22.885-.004 11.669.014 10.696-.028 5.673c.082 7.542 1.231 13.468 5.664 19.707 7.638 7.256 15.521 9.123 25.898 9.129l2.039.005h6.758l4.897.007 13.452.005 14.51.01 28.426.012 23.104.006 65.498.013h3.567 3.571l57.306.023 58.835.02 33.034.013 28.125.004 14.348.005 13.141-.002 4.748.006c11.91.039 22.359-.055 31.744-8.255 8.753-9.924 7.286-23.836 7.255-36.206l.011-5.502.008-11.797.029-18.658.077-53.038.055-29.331.012-18.546.03-11.529-.005-5.343.022-7.296-.028-2.131c.077-4.981 1.455-7.763 4.533-11.622 3.819-3.628 6.883-4.31 12-4.5 5.117.19 8.181.872 12 4.5 3.761 4.672 4.578 8.304 4.508 14.151l.019 2.438-.009 8.062.021 5.792-.002 15.72.006 16.478-.021 27.693.007 31.948.01 27.471.006 16.388-.02 15.432.005 5.639c.085 19.816-4.633 35.725-18.745 50.125-10.033 9.597-22.994 14.779-36.861 14.798l-2.134.007-7.097.006-5.133.011-14.12.016-15.224.022-36.773.039-17.32.015-57.58.039-14.941.006-3.751.001-60.15.066-61.764.054-34.674.036-29.532.02a3154.2 3154.2 0 0 0-15.061.017l-13.806.001c-1.659-.002-3.318.002-4.977.014-19.074.128-34.518-5.288-48.224-18.72-9.112-9.526-14.774-22.26-14.798-35.533l-.014-3.5.001-3.832-.011-4.081-.016-11.213-.022-12.095-.039-29.209-.015-13.763-.039-45.768-.006-11.873-.001-2.981-.066-47.783-.054-49.085-.036-27.548-.02-23.466-.017-11.962-.001-10.974-.03-5.801c.113-15.428 5.501-29.803 16.126-41.119C27.95 90.861 42.21 84.672 59.004 84.725zM356.938-.437l3.027-.059c6.06.99 10.206 5.417 14.406 9.637l1.471 1.472 3.053 3.076 4.607 4.627c4.753 4.77 9.37 9.605 13.752 14.722 3.56 4.001 7.43 7.707 11.246 11.462 5.09 5.009 10.03 10.04 14.682 15.459 3.587 4.026 7.477 7.76 11.318 11.541 5.09 5.009 10.03 10.04 14.682 15.459 3.587 4.026 7.477 7.76 11.318 11.541 5.09 5.009 10.03 10.04 14.682 15.459 3.587 4.026 7.477 7.76 11.318 11.541 5.206 5.124 10.277 10.271 15.035 15.816 2.182 2.507 4.569 4.765 6.985 7.043 3.258 3.611 3.794 6.707 3.855 11.516l.086 3.055c-.94 6.263-5.376 10.203-9.773 14.445-3.135 3.032-6.109 6.073-8.949 9.383-4.927 5.697-10.346 10.896-15.711 16.176-3.631 3.596-7.198 7.188-10.527 11.066-4.831 5.628-10.19 10.734-15.473 15.934-3.631 3.596-7.198 7.188-10.527 11.066-4.831 5.628-10.19 10.734-15.473 15.934-3.631 3.596-7.198 7.188-10.527 11.066-4.831 5.628-10.19 10.734-15.473 15.934-4.244 4.204-8.304 8.469-12.196 12.999-3.67 4.143-7.608 8.028-11.519 11.942l-2.549 2.586-2.463 2.469-2.214 2.226c-4.743 4.191-8.933 4.336-15.103 4.223-4.312-.547-7.198-2.041-9.984-5.379-2.772-4.669-3.368-8.071-3.341-13.474l-.001-2.19.049-7.109.013-4.952.074-12.991.06-13.273L341 235l-14.694.359-4.982.12c-51.07 1.182-97.113 17.994-133.121 55.068-10.478 11.667-19.781 24.628-26.953 38.578-2.995 5.676-5.18 9.23-11.309 11.707-5.074 1.504-9.009 1.214-13.926-.703-3.818-2.138-6.064-5.226-8.016-9.129a95.07 95.07 0 0 1-.177-5.155l-.039-3.274-.022-3.576-.024-3.713-.032-7.841-.062-7.886C126.969 240.27 147.435 189.052 188 146l2.207-2.371c5.835-6.073 12.288-11.213 18.998-16.273l3.438-2.625c33.007-25.46 76.775-40.174 118.482-39.793l2.898.014L341 85l-.034-2.755-.225-25.775-.118-13.25-.097-12.799-.054-4.87c-.246-15.347-.246-15.347 4.214-21.204 3.757-3.846 6.952-4.777 12.253-4.784zM374 58l-.011 1.73-.196 17.911-.063 6.675-.12 9.622-.004 2.99c-.126 6.022-.659 11.288-4.606 16.072-5.132 4.027-10.503 4.572-16.828 4.504l-2.493.025-5.235.028-13.565.182-2.655.051c-9.255.207-18.194 1.156-27.223 3.211l-2.378.532c-47.953 11.025-87.388 40.086-113.474 81.604C172.946 222.956 164.513 245.805 162 269c3.709-3.091 7.228-6.195 10.563-9.687C191.736 239.917 216.796 225.807 242 216l2.284-.891c9.194-3.503 18.521-5.884 28.154-7.859l2.919-.603c17.925-3.457 35.772-4.02 53.99-4.018l11.616-.079 7.455-.012 3.472-.044c6.368.036 12.076.224 17.11 4.504 4.597 5.634 4.601 12.086 4.609 19.063l.05 3.127.091 9.811.09 6.684L374 262l3.322-2.831 1.869-1.592c2.542-2.216 4.928-4.565 7.309-6.952l2.656-2.648c2.121-2.174 4.115-4.43 6.094-6.734 4.936-5.691 10.356-10.894 15.723-16.176 3.631-3.596 7.198-7.188 10.527-11.066 4.831-5.628 10.19-10.734 15.473-15.934 3.626-3.591 7.187-7.177 10.508-11.055 4.94-5.759 10.478-10.943 15.932-16.209l2.482-2.439 2.245-2.178c1.964-2.307 2.906-4.328 3.86-7.185-7.041-7.892-14.353-15.446-21.896-22.859-3.301-3.26-6.503-6.542-9.526-10.063-4.112-4.776-8.589-9.16-13.078-13.578-5.1-5.019-10.052-10.06-14.713-15.49C409.37 93.167 405.665 89.604 402 86c-4.99-4.906-9.825-9.849-14.388-15.156-2.388-2.731-4.918-5.281-7.487-7.844l-1.469-1.48c-1.984-2.447-1.984-2.447-4.656-3.52z"/></svg>